<?xml version="1.0" standalone="no"?>
<!DOCTYPE svg PUBLIC "-//W3C//DTD SVG 20010904//EN"
 "http://www.w3.org/TR/2001/REC-SVG-20010904/DTD/svg10.dtd">
<svg version="1.0" xmlns="http://www.w3.org/2000/svg"
 width="1415.000000pt" height="1415.000000pt" viewBox="0 0 1415.000000 1415.000000"
 preserveAspectRatio="xMidYMid meet">
<metadata>
Created by potrace 1.11, written by Peter Selinger 2001-2013
</metadata>
<g transform="translate(0.000000,1415.000000) scale(0.100000,-0.100000)"
fill="#000000" stroke="none">
<path d="M3675 10148 l0 -883 573 -3 572 -2 0 534 0 534 579 0 580 -1 0 -530
c0 -291 2 -531 3 -533 2 -1 386 -5 853 -7 468 -2 868 -7 890 -10 22 -4 49 -9
61 -12 12 -2 38 -7 59 -11 94 -15 250 -77 307 -122 131 -104 190 -238 189
-432 -1 -218 -68 -360 -218 -464 -29 -20 -59 -36 -66 -36 -7 0 -17 -4 -22 -8
-12 -11 -120 -49 -160 -57 -16 -3 -41 -8 -55 -10 -23 -5 -133 -21 -170 -25 -8
0 -622 -3 -1365 -5 -742 -2 -1357 -4 -1365 -4 -13 -1 -15 -77 -14 -626 l1
-625 -613 0 c-578 0 -614 -1 -615 -17 -3 -44 -5 -3639 -2 -3648 2 -7 670 -10
1981 -9 1756 1 2139 4 2264 19 18 2 65 6 103 9 81 7 140 14 175 21 14 2 48 7
75 11 28 3 94 14 148 25 53 10 110 21 125 24 119 21 360 94 527 161 174 69
411 196 517 278 14 12 41 32 59 46 120 91 266 240 368 373 39 52 71 97 71 100
0 3 13 25 29 49 76 115 192 376 225 508 2 8 13 51 25 95 20 81 22 89 40 193
29 167 36 253 36 467 0 226 -6 285 -46 455 -116 493 -387 921 -764 1205 l-84
64 37 27 c63 47 236 225 294 304 137 186 227 368 282 575 26 96 31 121 51 260
12 85 13 455 1 530 -2 17 -8 55 -11 85 -4 30 -9 63 -11 75 -2 11 -7 36 -10 55
-5 30 -10 56 -29 140 -65 290 -210 587 -411 843 -40 51 -200 216 -250 257
-214 179 -425 304 -689 407 -76 30 -276 96 -325 108 -8 2 -46 11 -85 20 -38 9
-79 19 -90 21 -11 2 -42 8 -70 14 -56 11 -231 36 -315 45 -30 4 -77 9 -105 12
-27 4 -970 8 -2095 10 l-2045 4 0 -883z m3960 -3822 c276 -42 445 -114 575
-246 77 -79 145 -204 165 -305 3 -16 8 -41 10 -55 3 -14 7 -68 9 -120 6 -185
-42 -320 -153 -430 -36 -37 -91 -80 -121 -97 -88 -49 -220 -93 -328 -109 -20
-3 -48 -8 -62 -12 -14 -3 -510 -8 -1102 -9 l-1078 -4 0 694 c0 381 2 696 5
698 7 8 2027 3 2080 -5z"/>
<path d="M1610 9386 l0 -514 513 0 514 0 0 514 0 514 -514 0 -513 0 0 -514z"/>
<path d="M10 9352 c-6 -2 -10 -111 -10 -298 0 -273 1 -294 18 -295 21 -1 543
-1 558 0 13 1 18 590 5 592 -18 3 -563 3 -571 1z"/>
<path d="M2876 8812 c-2 -4 -5 -337 -5 -740 l0 -732 117 0 c114 0 1307 0 1347
0 20 0 20 7 20 737 l-1 738 -736 3 c-405 1 -739 -1 -742 -6z"/>
<path d="M1114 8262 l-30 -3 0 -372 1 -372 375 0 375 0 1 360 c0 198 -2 367
-5 375 -5 13 -53 15 -346 15 -187 0 -354 -1 -371 -3z"/>
</g>
</svg>
