<?xml version="1.0" standalone="no"?>
<!DOCTYPE svg PUBLIC "-//W3C//DTD SVG 20010904//EN"
 "http://www.w3.org/TR/2001/REC-SVG-20010904/DTD/svg10.dtd">
<svg version="1.0" xmlns="http://www.w3.org/2000/svg"
 width="1700.000000pt" height="1700.000000pt" viewBox="0 0 1700.000000 1700.000000"
 preserveAspectRatio="xMidYMid meet">
<metadata>
Created by potrace 1.11, written by Peter Selinger 2001-2013
</metadata>
<g transform="translate(0.000000,1700.000000) scale(0.100000,-0.100000)"
fill="#000000" stroke="none">
<path d="M5420 14533 c-82 -8 -280 -46 -340 -65 -105 -33 -184 -61 -205 -74
-11 -6 -30 -15 -42 -18 -19 -6 -195 -105 -287 -161 -75 -46 -300 -224 -400
-315 -110 -101 -200 -214 -218 -274 -27 -89 54 -124 159 -69 93 50 290 170
328 200 6 5 51 31 100 60 261 149 418 207 690 255 75 13 409 13 490 0 114 -18
280 -54 290 -61 5 -5 24 -11 40 -15 83 -19 303 -121 405 -187 14 -9 65 -37
113 -63 164 -86 273 -74 343 36 31 49 32 116 2 177 -24 49 -125 155 -158 166
-11 3 -20 10 -20 15 0 10 -175 110 -285 163 -44 21 -88 42 -97 47 -28 15 -197
80 -208 80 -6 0 -18 4 -28 9 -52 29 -248 74 -397 92 -70 8 -208 9 -275 2z"/>
<path d="M10395 13684 c-72 -8 -209 -35 -280 -56 -133 -39 -204 -87 -244 -163
-28 -53 -26 -100 7 -162 80 -151 245 -175 832 -121 165 15 947 15 1110 0 69
-7 224 -21 345 -31 121 -11 227 -22 235 -25 14 -5 240 -35 304 -41 42 -3 96
16 108 38 14 27 2 81 -34 146 -34 61 -95 131 -116 131 -7 0 -24 7 -37 16 -13
8 -48 22 -77 30 -80 23 -259 65 -293 70 -16 2 -77 11 -135 20 -113 17 -136 19
-220 29 -30 3 -82 10 -115 16 -63 11 -291 43 -555 79 -122 16 -222 21 -475 24
-176 2 -338 2 -360 0z"/>
<path d="M5830 13105 c-242 -44 -457 -200 -580 -421 -33 -60 -60 -115 -60
-124 -1 -8 -8 -33 -17 -55 -48 -123 -77 -413 -63 -625 27 -395 125 -637 323
-797 35 -29 69 -53 73 -53 5 0 25 -9 45 -19 127 -68 312 -70 474 -5 149 60
304 193 390 333 6 9 19 30 31 46 12 17 40 71 63 120 23 50 47 99 52 110 5 11
17 45 25 75 76 263 88 351 81 565 -7 214 -33 323 -115 495 -14 30 -30 57 -34
58 -4 2 -8 10 -8 17 0 8 -8 20 -18 27 -10 7 -31 30 -47 52 -38 50 -168 146
-220 162 -22 7 -56 19 -75 27 -52 22 -230 29 -320 12z"/>
<path d="M10508 12620 c-37 -5 -72 -12 -79 -16 -7 -4 -30 -9 -53 -12 -22 -2
-52 -13 -65 -23 -13 -11 -29 -19 -36 -19 -6 0 -22 -9 -35 -20 -13 -11 -26 -20
-29 -20 -19 0 -161 -155 -209 -229 -31 -47 -59 -90 -61 -96 -2 -5 -20 -50 -41
-100 -88 -208 -123 -388 -121 -620 1 -88 5 -182 11 -210 5 -27 14 -79 20 -115
16 -91 46 -180 98 -288 84 -176 200 -294 364 -371 63 -30 102 -42 163 -48 86
-9 235 4 270 24 11 6 49 25 85 41 147 65 275 188 379 363 34 57 59 107 71 144
7 22 18 49 25 61 20 31 72 265 86 379 20 174 -2 424 -51 580 -100 320 -307
531 -577 589 -77 17 -110 18 -215 6z"/>
<path d="M13650 12087 c0 -16 21 -47 33 -47 8 0 9 3 1 8 -6 4 -16 16 -22 27
-6 11 -12 16 -12 12z"/>
<path d="M13442 12056 c-8 -19 -8 -27 3 -36 10 -9 13 -4 13 25 0 42 -1 43 -16
11z"/>
<path d="M13720 12060 c0 -5 5 -10 10 -10 6 0 10 5 10 10 0 6 -4 10 -10 10 -5
0 -10 -4 -10 -10z"/>
<path d="M13762 12055 c-7 -9 -8 -15 -2 -15 5 0 10 -13 10 -30 0 -38 -18 -40
-22 -2 -3 27 -4 27 -67 23 -41 -2 -61 0 -57 7 3 5 -2 13 -11 17 -10 3 -19 1
-21 -4 -2 -6 -7 -9 -10 -7 -4 2 -8 -16 -9 -41 -3 -52 -6 -58 -28 -49 -12 4
-13 10 -6 24 9 17 5 18 -55 17 -55 -2 -64 1 -64 16 0 10 -4 20 -9 23 -5 4 -7
-3 -4 -14 4 -15 0 -20 -13 -21 -11 0 -14 -3 -6 -6 18 -7 15 -33 -4 -33 -12 0
-15 -6 -11 -21 6 -23 -20 -39 -33 -20 -9 16 -20 -9 -20 -45 0 -13 -4 -24 -10
-24 -5 0 -7 -7 -3 -16 5 -13 2 -15 -18 -9 -20 7 -22 5 -12 -6 13 -16 -5 -49
-26 -49 -15 0 -14 -17 2 -24 10 -5 10 -7 0 -12 -7 -3 -13 -12 -13 -19 0 -8 -8
-19 -17 -25 -17 -10 -17 -10 0 -20 9 -6 17 -18 17 -26 0 -8 5 -12 10 -9 6 3
10 1 10 -4 0 -6 -7 -11 -15 -11 -8 0 -15 7 -15 15 0 8 -7 15 -16 15 -11 0 -13
-6 -9 -19 5 -16 2 -18 -15 -14 -15 4 -20 11 -17 24 4 14 0 19 -16 18 -12 0
-16 -3 -9 -6 6 -2 12 -10 12 -16 0 -6 10 -21 22 -34 12 -13 16 -23 10 -23 -7
0 -12 5 -12 11 0 7 -11 8 -29 4 -20 -4 -31 -2 -34 7 -2 7 -3 5 -2 -4 2 -10 -1
-18 -7 -18 -5 0 -6 -5 -3 -10 4 -6 10 -8 15 -5 4 3 6 -4 3 -14 -4 -16 -10 -18
-33 -11 -16 5 -31 5 -35 2 -3 -4 -10 0 -15 7 -7 12 -11 12 -24 -2 -9 -8 -16
-21 -16 -27 0 -12 31 -47 37 -42 8 6 23 1 23 -8 0 -5 -15 -12 -34 -15 -28 -6
-33 -10 -28 -28 4 -17 2 -19 -13 -13 -18 7 -18 6 -2 -12 13 -14 17 -33 15 -74
-3 -53 -3 -54 -33 -53 -22 2 -29 6 -27 18 2 10 0 17 -3 17 -13 0 -32 -27 -37
-53 -5 -27 5 -37 17 -17 3 6 13 10 22 10 12 0 9 -7 -10 -24 -15 -14 -24 -31
-21 -39 3 -8 1 -18 -5 -22 -7 -4 -11 5 -11 24 0 54 -49 32 -78 -34 -12 -25
-11 -31 2 -41 17 -12 23 -49 6 -39 -5 3 -10 0 -10 -7 0 -10 -3 -9 -10 2 -5 8
-12 12 -15 8 -10 -9 18 -49 32 -44 6 3 19 -2 30 -9 17 -13 17 -14 1 -15 -12 0
-18 -8 -18 -25 0 -17 -8 -29 -25 -37 -25 -11 -35 -38 -14 -38 5 0 7 -4 4 -10
-3 -5 0 -10 7 -10 10 0 10 -2 -1 -9 -8 -5 -16 -20 -18 -32 -2 -13 -6 -25 -9
-28 -3 -3 -4 8 -1 26 5 33 -13 60 -33 48 -13 -8 -13 -45 1 -45 6 0 3 -7 -5
-16 -9 -8 -16 -29 -16 -45 0 -19 -5 -29 -15 -29 -17 0 -17 -32 0 -40 7 -3 6
-17 -2 -40 -6 -19 -12 -29 -12 -22 -2 23 -29 12 -36 -15 -5 -22 -2 -31 14 -42
26 -17 28 -41 3 -34 -12 3 -18 -2 -19 -16 -1 -14 4 -21 15 -21 14 0 15 -2 2
-9 -8 -6 -17 -8 -21 -6 -3 3 -9 -13 -13 -34 -3 -22 -12 -42 -18 -44 -8 -3 -6
-6 5 -6 11 -1 17 -9 17 -26 0 -21 -5 -25 -30 -25 -34 0 -40 -15 -9 -23 33 -9
3 -45 -40 -49 -40 -4 -63 -30 -43 -50 11 -11 13 -10 10 1 -2 8 5 17 14 19 14
3 17 -3 15 -26 -1 -19 -6 -28 -14 -25 -7 3 -13 1 -13 -5 0 -6 6 -13 13 -15 9
-4 8 -8 -3 -16 -10 -7 -11 -11 -2 -11 21 0 13 -37 -9 -43 -16 -4 -20 -11 -16
-26 4 -16 0 -21 -15 -21 -11 0 -16 4 -13 11 4 6 -2 5 -14 -3 -25 -15 -26 -24
-6 -32 8 -3 15 -1 15 4 0 16 27 11 34 -5 3 -9 0 -15 -9 -15 -9 0 -15 -10 -15
-26 0 -14 -4 -22 -10 -19 -6 3 -7 -1 -4 -9 4 -11 0 -16 -10 -16 -9 0 -16 -5
-16 -11 0 -6 9 -8 20 -4 15 5 20 2 20 -12 0 -10 -5 -25 -10 -33 -8 -11 -9 -8
-4 13 5 22 3 26 -9 21 -9 -3 -18 -12 -21 -20 -3 -8 -15 -14 -26 -14 -24 0 -27
-20 -2 -21 10 0 12 -3 5 -6 -14 -5 -18 -43 -5 -43 5 0 13 12 20 28 11 25 11
25 6 2 -3 -14 -7 -36 -8 -50 0 -14 -8 -28 -16 -32 -12 -5 -12 -7 3 -7 18 -1
23 -16 8 -25 -4 -3 -16 3 -26 14 -10 11 -25 20 -34 20 -10 0 -7 -7 11 -21 24
-19 25 -23 12 -37 -8 -8 -13 -21 -10 -28 3 -8 0 -11 -10 -7 -11 4 -14 -4 -14
-31 0 -20 5 -36 10 -36 6 0 10 5 10 12 0 6 3 9 6 5 12 -12 -8 -47 -27 -47 -10
0 -19 -4 -19 -9 0 -12 29 -23 41 -15 5 3 5 -5 0 -19 -6 -14 -7 -28 -4 -31 4
-3 -1 -6 -9 -6 -12 0 -14 6 -10 22 5 21 5 21 -14 2 -16 -15 -17 -21 -7 -32 15
-15 8 -31 -31 -75 -20 -24 -23 -33 -15 -54 12 -32 12 -32 -8 -27 -13 3 -24 -8
-39 -39 -19 -41 -19 -44 -3 -40 10 3 20 12 22 22 3 9 4 4 4 -10 -1 -18 -6 -25
-14 -22 -7 3 -13 -2 -13 -11 0 -9 -4 -16 -10 -16 -10 0 -2 -31 10 -40 4 -3 4
-14 0 -25 -7 -19 -7 -19 -14 3 -7 22 -46 32 -46 12 0 -5 9 -10 20 -10 11 0 20
-4 20 -10 0 -5 -6 -10 -12 -10 -9 0 -10 -2 -2 -8 6 -4 14 -18 18 -32 4 -15 4
-20 -1 -13 -6 8 -18 10 -38 5 -19 -5 -25 -11 -17 -16 14 -8 16 -55 3 -75 -5
-7 -14 -11 -20 -7 -14 9 -2 -26 13 -36 6 -4 1 -8 -11 -8 -17 0 -23 -6 -24 -25
-1 -14 -2 -31 -3 -37 -1 -9 10 -12 31 -10 28 3 31 1 26 -19 -5 -17 -3 -20 8
-14 11 6 12 5 2 -5 -7 -7 -23 -14 -35 -15 -16 -1 -23 -8 -24 -23 -1 -12 2 -22
6 -22 4 0 10 -7 14 -15 3 -8 2 -14 -2 -14 -20 3 -52 -15 -53 -30 0 -10 -2 -11
-6 -3 -2 6 -9 9 -15 6 -5 -3 -2 -14 8 -25 13 -15 14 -22 5 -33 -18 -22 -5 -55
19 -49 13 4 20 0 20 -10 0 -21 -29 -30 -37 -11 -10 27 -41 -11 -37 -46 4 -34
-2 -37 -34 -14 -27 19 -31 0 -5 -28 10 -11 12 -18 4 -18 -7 0 -10 -10 -7 -25
4 -23 3 -24 -17 -10 -22 14 -22 13 -19 -30 4 -47 16 -59 25 -25 3 11 11 20 19
19 10 0 10 -2 1 -6 -7 -2 -13 -14 -13 -24 0 -15 -6 -19 -22 -17 -20 3 -23 -1
-20 -28 2 -19 -3 -38 -12 -47 -21 -21 -22 -44 -1 -27 20 17 21 -8 1 -36 -14
-18 -15 -18 -21 9 -7 25 -8 26 -20 10 -12 -17 -4 -62 16 -88 10 -14 -1 -66
-13 -59 -5 3 -6 14 -3 25 7 22 -7 25 -24 5 -8 -10 -9 -16 -1 -21 5 -3 10 -14
10 -23 -1 -16 -1 -16 -11 1 -14 24 -32 22 -24 -3 3 -11 2 -20 -4 -20 -5 0 -13
9 -16 20 -7 23 -21 26 -28 6 -4 -11 -1 -13 10 -9 13 5 15 2 10 -11 -4 -10 -3
-15 3 -11 6 3 10 -1 10 -9 0 -8 -7 -19 -15 -24 -23 -12 -8 -42 22 -42 22 0 24
-2 13 -15 -8 -9 -16 -12 -19 -7 -3 6 -17 12 -31 13 -21 3 -24 0 -22 -18 4 -28
-18 -41 -33 -20 -7 10 -16 17 -21 17 -4 0 -3 -5 4 -12 21 -21 15 -50 -10 -46
-13 2 -27 8 -31 13 -5 6 -7 4 -4 -5 2 -8 16 -16 30 -18 15 -2 27 -10 27 -18 0
-9 11 -14 29 -14 29 0 49 15 36 28 -3 3 -10 0 -15 -7 -5 -10 -8 -6 -7 12 2 18
5 23 14 15 7 -5 17 -7 23 -3 6 4 9 -5 7 -25 -2 -18 -10 -36 -17 -40 -20 -13
-22 -58 -2 -63 17 -5 -20 -11 -45 -8 -7 1 -13 -9 -13 -22 0 -20 -4 -23 -25
-19 -14 2 -25 11 -25 21 0 9 -5 23 -11 31 -8 12 -9 10 -4 -9 5 -15 2 -27 -6
-32 -11 -7 -10 -9 4 -9 9 0 17 -7 17 -15 0 -8 5 -15 10 -15 6 0 10 -8 10 -17
0 -15 -2 -16 -10 -3 -7 12 -12 11 -31 -5 -22 -20 -22 -20 -15 3 5 14 3 22 -4
22 -8 0 -11 -11 -8 -30 3 -16 1 -30 -4 -30 -5 0 -7 -10 -4 -22 3 -13 3 -17 0
-10 -9 19 -24 14 -33 -10 -5 -13 -8 -25 -8 -28 2 -21 -27 -50 -51 -51 -15 0
-21 -3 -14 -6 19 -8 14 -33 -8 -33 -17 0 -18 -3 -9 -27 12 -33 4 -57 -19 -51
-10 3 -24 -1 -31 -9 -18 -20 -10 -24 25 -14 31 9 44 1 57 -33 6 -14 4 -17 -9
-12 -13 5 -15 1 -12 -18 4 -21 3 -23 -14 -13 -21 14 -24 33 -5 40 6 2 -16 6
-51 8 -34 2 -62 1 -62 -3 0 -5 7 -8 15 -8 8 0 15 -8 15 -18 0 -19 38 -48 48
-37 4 4 -1 12 -11 19 -19 15 -23 40 -5 34 16 -6 33 -59 21 -67 -5 -3 -12 -14
-16 -24 -4 -10 -11 -15 -17 -12 -5 3 -10 1 -10 -4 0 -6 -12 -11 -27 -11 -20 0
-24 -3 -14 -9 17 -11 7 -41 -13 -41 -8 0 -26 -11 -40 -25 -14 -14 -21 -25 -16
-25 6 0 10 -5 10 -11 0 -7 -9 -9 -21 -6 -16 4 -19 3 -11 -5 6 -6 23 -11 37
-11 15 1 23 -2 18 -6 -6 -3 -12 -12 -14 -20 -4 -11 -9 -10 -24 5 -16 16 -18
17 -12 2 4 -12 0 -19 -14 -23 -22 -7 -26 -25 -4 -25 8 0 15 5 15 11 0 6 7 3
16 -5 8 -9 20 -14 25 -11 5 4 9 -3 9 -14 0 -12 -5 -21 -11 -21 -5 0 -7 -4 -4
-10 3 -6 -1 -7 -10 -3 -12 4 -13 8 -5 13 20 12 2 30 -29 30 -20 0 -30 -6 -34
-20 -3 -13 0 -20 9 -20 8 0 17 -7 21 -16 5 -13 7 -13 14 -2 7 10 9 9 9 -4 0
-9 7 -21 16 -26 23 -13 26 -88 3 -89 -10 -1 -19 8 -23 20 -9 34 -13 16 -8 -40
2 -34 8 -51 15 -46 6 4 7 1 2 -6 -5 -9 -13 -7 -27 9 -16 18 -22 19 -29 8 -6
-10 -9 -10 -9 0 0 6 -6 12 -14 12 -8 0 -13 -11 -12 -29 1 -18 5 -27 14 -24 6
3 12 9 12 13 0 5 9 6 20 3 12 -3 18 -8 15 -12 -11 -10 -88 -30 -97 -25 -4 3
-8 2 -9 -3 0 -4 -2 -18 -3 -30 -2 -18 0 -20 11 -11 22 18 25 3 4 -20 -20 -24
-40 -29 -42 -9 -1 6 -4 1 -8 -12 -8 -28 -31 -41 -31 -17 0 9 -4 16 -10 16 -5
0 -10 -8 -10 -17 0 -10 -3 -28 -6 -40 -5 -17 -2 -23 11 -23 12 0 16 6 12 20
-5 21 3 24 41 14 35 -10 26 -41 -10 -35 -13 2 -9 -44 4 -57 16 -16 2 -28 -16
-13 -18 15 -56 -5 -56 -30 0 -9 -6 -21 -13 -27 -14 -12 -31 2 -56 44 -9 15 -9
12 -4 -16 6 -32 5 -34 -10 -21 -15 12 -17 11 -17 -8 0 -15 5 -21 16 -19 10 2
19 -4 21 -12 4 -13 3 -13 -7 0 -10 12 -10 10 -5 -10 4 -14 10 -41 15 -60 7
-32 9 -33 15 -12 9 28 25 29 25 2 0 -12 -10 -24 -24 -30 -29 -11 -43 -30 -22
-30 8 0 18 4 21 10 8 13 25 13 25 1 0 -5 -10 -13 -21 -16 -12 -4 -18 -10 -13
-14 13 -9 16 -31 4 -31 -6 0 -10 -24 -11 -52 -1 -44 -2 -48 -9 -26 -4 15 -15
35 -24 44 -22 21 -20 33 7 44 l22 9 -22 6 c-13 4 -20 12 -16 21 3 8 -1 14 -11
14 -9 0 -16 -7 -16 -16 0 -11 -6 -14 -20 -9 -22 7 -25 -2 -10 -39 6 -18 6 -26
-1 -26 -6 0 -4 -7 5 -15 22 -22 27 -18 21 17 l-6 32 20 -23 c12 -13 21 -30 21
-38 0 -7 5 -13 11 -13 5 0 7 -5 4 -10 -4 -6 -10 -8 -14 -6 -4 3 -14 -4 -21
-15 -8 -10 -23 -19 -33 -19 -14 0 -17 -4 -10 -12 15 -20 15 -62 0 -50 -10 9
-137 25 -137 18 0 -17 44 -86 55 -86 18 0 20 -36 3 -43 -7 -3 -4 -6 7 -6 27
-1 55 19 38 26 -7 2 -13 13 -13 24 0 16 -8 22 -30 21 -3 0 -10 5 -16 12 -9 10
-1 13 38 13 43 1 47 -1 36 -15 -10 -12 -10 -16 0 -19 20 -7 14 -47 -10 -68
l-23 -20 23 -3 c12 -2 22 -10 22 -18 0 -40 -99 15 -101 56 -1 17 -3 19 -6 8
-2 -10 -14 -18 -25 -18 -18 0 -20 5 -15 38 3 20 3 31 0 25 -7 -18 -23 -16 -23
2 0 8 -7 15 -16 15 -8 0 -12 -5 -8 -11 3 -6 0 -16 -7 -21 -10 -7 -7 -7 9 -3
20 6 22 3 22 -28 0 -41 -8 -51 -27 -32 -10 10 -33 14 -71 13 l-57 -2 58 -3
c44 -3 57 -8 57 -20 0 -12 7 -14 32 -9 18 3 36 12 40 19 6 9 8 9 8 0 0 -6 8
-13 17 -15 12 -2 7 -9 -19 -27 -20 -14 -34 -31 -31 -38 3 -7 -2 -13 -10 -13
-26 0 -27 -15 -1 -16 17 -1 24 3 24 17 0 17 3 18 20 7 23 -15 27 -38 5 -38 -8
0 -15 -3 -15 -8 0 -4 -20 -6 -45 -4 l-45 4 15 -28 c18 -36 12 -41 -22 -19 -18
12 -28 14 -31 6 -2 -6 -7 -9 -12 -6 -12 8 -36 -25 -23 -33 5 -4 16 -24 24 -44
7 -21 17 -38 21 -38 11 0 6 22 -9 38 -19 19 -16 32 5 25 16 -7 16 -6 0 11 -23
22 -23 24 5 22 20 -1 22 -6 22 -56 0 -49 -3 -55 -25 -62 -20 -5 -18 -6 10 -4
37 3 36 -1 26 79 -6 44 22 51 58 13 27 -28 29 -29 23 -8 -5 21 -2 20 26 -10
29 -30 30 -33 12 -36 -11 -2 -26 -9 -34 -15 -11 -10 -9 -13 10 -17 19 -5 23
-13 24 -42 1 -21 -2 -35 -7 -32 -4 3 -8 18 -8 35 0 25 -3 28 -22 25 -13 -3
-27 -5 -33 -6 -5 0 -3 -5 7 -10 18 -11 14 -50 -6 -51 -6 0 -2 -4 8 -8 18 -7
18 -8 -4 -29 -13 -12 -26 -19 -30 -17 -4 2 -5 -7 -2 -20 2 -14 0 -25 -6 -25
-5 0 -12 -7 -16 -15 -8 -21 0 -19 23 6 22 24 57 19 47 -7 -3 -9 -6 -24 -6 -34
0 -15 -7 -18 -32 -18 -18 1 -27 3 -20 5 16 6 15 23 -2 23 -14 0 -30 -34 -27
-57 1 -7 -6 -13 -15 -13 -10 0 -14 -5 -10 -15 3 -8 -1 -29 -8 -47 -16 -38 -6
-78 19 -78 9 0 15 -9 15 -23 0 -12 9 -28 20 -35 16 -10 20 -10 20 2 0 8 -7 16
-15 20 -21 8 -19 36 3 36 20 0 26 -38 16 -89 -4 -20 -9 -22 -34 -18 -18 4 -31
2 -34 -6 -4 -7 -4 -2 -2 11 3 14 -1 22 -11 22 -8 0 -11 5 -7 11 7 12 -15 31
-28 23 -12 -8 -10 -52 3 -60 6 -3 15 0 20 7 7 11 9 9 7 -6 -3 -41 3 -56 25
-64 19 -8 18 -9 -10 -9 -18 1 -33 6 -33 12 0 6 -5 4 -10 -4 -8 -12 -10 -12
-10 -1 0 8 -3 12 -6 8 -3 -3 -1 -14 5 -24 7 -12 10 -14 11 -4 0 11 3 11 18 -2
9 -8 20 -16 24 -17 38 -4 68 -14 68 -21 0 -15 -38 -10 -54 7 -15 14 -16 13
-16 -10 0 -20 5 -26 23 -26 12 0 29 4 37 9 21 14 32 3 19 -20 -8 -16 -16 -19
-47 -13 -20 4 -34 3 -30 0 3 -4 13 -8 21 -10 21 -3 52 -36 35 -37 -7 0 -21 -2
-30 -4 -12 -2 -18 3 -18 16 0 11 -7 19 -16 19 -9 0 -14 -6 -11 -12 19 -53 19
-56 -14 -63 -29 -7 -31 -9 -26 -41 5 -30 4 -32 -9 -20 -8 8 -14 22 -14 30 0 9
-4 16 -10 16 -5 0 -10 -5 -10 -11 0 -7 -9 -9 -21 -6 -17 4 -19 3 -10 -6 26
-26 -6 -49 -36 -24 -9 7 -13 5 -13 -7 0 -9 7 -16 16 -16 10 0 14 -6 10 -15 -3
-8 -1 -15 4 -15 13 0 13 -37 0 -42 -6 -2 -1 -9 11 -17 19 -11 21 -11 16 3 -4
10 -1 13 9 9 7 -3 14 -1 14 5 0 6 -6 13 -12 15 -8 3 -6 6 5 6 9 1 17 -6 17
-14 0 -8 8 -15 18 -16 13 0 12 -2 -5 -9 -29 -12 -31 -40 -3 -33 14 4 21 -1 26
-21 3 -14 10 -26 14 -26 4 0 5 -12 2 -27 l-6 -28 -6 30 c-4 20 -11 30 -23 29
-9 -1 -17 4 -17 12 0 8 -9 14 -20 14 -25 0 -26 -27 -1 -35 11 -3 22 -13 25
-21 5 -12 2 -15 -10 -10 -8 3 -18 6 -20 6 -3 0 -2 5 2 12 4 7 3 8 -5 4 -6 -4
-14 0 -17 8 -5 12 -10 13 -25 5 -10 -5 -19 -15 -18 -22 0 -8 2 -9 5 -1 9 22
43 3 49 -27 7 -29 12 -32 50 -30 11 0 14 -2 8 -5 -7 -3 -13 -11 -13 -18 0 -7
-11 -18 -25 -24 -14 -6 -25 -20 -26 -29 0 -16 -2 -15 -9 2 -8 19 -9 19 -9 -2
-1 -13 -5 -23 -11 -23 -5 0 -10 10 -11 23 0 12 -3 16 -6 9 -3 -7 -2 -24 2 -39
6 -24 7 -25 20 -7 8 11 15 16 15 12 0 -4 14 -3 31 2 30 9 31 8 26 -16 -2 -13
-1 -27 3 -29 15 -9 39 6 33 21 -3 8 0 14 6 14 14 0 15 -27 1 -35 -5 -3 -10
-18 -9 -33 0 -24 1 -25 9 -7 7 17 9 17 9 3 1 -19 21 -26 21 -8 0 6 14 10 30
10 20 0 30 -5 30 -15 0 -9 -6 -12 -15 -9 -21 8 -67 -4 -60 -16 3 -6 -1 -10 -9
-10 -18 0 -22 -25 -6 -35 6 -3 9 -14 9 -23 -1 -15 -2 -15 -6 1 -6 24 -23 21
-23 -4 0 -14 -5 -19 -14 -16 -8 3 -16 1 -18 -5 -2 -6 -13 -8 -28 -3 -20 6 -21
9 -6 17 9 5 14 13 11 19 -4 5 -2 9 4 9 5 0 11 -5 13 -12 3 -8 6 -7 10 3 8 22
-39 23 -51 1 -6 -9 -11 -12 -11 -4 0 17 -20 15 -20 -3 0 -8 6 -15 13 -15 9 0
8 -3 -2 -9 -10 -6 -10 -10 -1 -16 9 -6 9 -10 -1 -16 -11 -7 -10 -9 4 -9 31 0
18 -19 -15 -22 -25 -2 -34 -8 -36 -25 -2 -13 2 -23 8 -23 7 0 9 8 5 21 -5 14
-3 20 7 18 7 -1 23 -1 36 0 21 1 23 4 17 34 -3 17 -3 27 2 21 4 -6 18 -14 31
-18 12 -4 22 -12 22 -17 0 -5 5 -9 10 -9 6 0 10 7 10 15 0 22 21 18 27 -5 6
-22 29 -27 35 -8 3 9 6 9 11 1 9 -14 -56 -35 -79 -26 -8 3 -24 -4 -35 -16 -11
-11 -30 -22 -42 -22 -16 -1 -17 -3 -5 -6 9 -2 27 1 38 7 25 13 42 4 20 -10
-23 -14 2 -32 43 -32 29 0 36 -4 42 -25 3 -14 4 -28 0 -31 -3 -3 -5 2 -5 10 0
16 -56 45 -67 34 -3 -3 -1 -6 5 -6 7 0 12 -7 12 -15 0 -8 -4 -15 -9 -15 -5 0
-11 -9 -14 -19 -3 -14 -1 -18 9 -14 8 3 14 0 14 -6 0 -6 -4 -11 -9 -11 -5 0
-13 -9 -16 -20 -3 -11 -13 -20 -21 -20 -8 0 -14 -6 -14 -12 0 -9 -4 -8 -10 2
-8 13 -10 13 -10 -2 0 -11 -5 -15 -15 -12 -8 4 -15 2 -15 -4 0 -5 -18 -8 -40
-7 -22 1 -40 -2 -40 -6 0 -5 9 -9 21 -9 11 0 27 -7 36 -15 14 -14 13 -15 -11
-9 -17 4 -26 2 -26 -6 0 -6 4 -9 9 -5 16 9 17 -29 1 -42 -8 -6 -11 -15 -6 -20
5 -4 11 -2 13 5 6 16 30 16 37 0 3 -7 3 -1 0 13 -6 31 10 46 30 29 11 -8 15
-8 20 2 4 9 5 9 5 -2 -3 -36 2 -50 16 -50 11 0 14 7 11 25 -3 14 -1 23 5 20 5
-4 9 8 9 24 0 34 -2 36 -31 21 -15 -8 -19 -7 -19 5 0 11 10 15 35 15 25 0 35
-4 35 -16 0 -8 5 -12 11 -8 7 4 9 0 5 -14 -4 -11 -2 -23 3 -27 7 -3 8 0 5 9
-3 9 -1 16 5 16 7 0 8 8 1 24 -10 28 -5 36 27 36 23 0 31 14 13 23 -6 3 -5 4
2 3 22 -4 20 -26 -4 -36 -22 -10 -22 -10 4 -5 16 3 28 0 31 -8 3 -7 6 -5 6 6
1 19 20 24 22 5 1 -7 5 -2 9 12 l8 25 1 -29 c1 -25 4 -27 27 -22 23 6 24 5 13
-16 -7 -12 -12 -34 -11 -49 0 -22 -3 -26 -15 -22 -12 5 -15 2 -10 -10 4 -12 0
-15 -20 -14 -16 1 -30 -6 -40 -21 -14 -21 -14 -22 6 -22 14 0 21 6 21 20 0 11
5 20 10 20 6 0 10 -9 10 -20 0 -11 5 -20 10 -20 6 0 10 4 10 9 0 5 14 14 30
21 17 7 30 17 30 22 0 5 9 6 20 3 11 -3 20 -2 20 4 0 5 9 13 20 16 22 7 27 40
8 48 -8 4 -7 6 4 6 9 1 19 7 22 14 4 6 4 1 2 -12 -3 -14 -1 -30 5 -37 7 -8 7
-14 -1 -19 -17 -10 -11 -25 10 -25 11 0 20 6 20 13 0 7 3 8 8 2 4 -5 15 -11
25 -13 15 -3 17 1 12 17 -4 13 -2 21 5 21 6 0 8 -4 5 -10 -3 -5 -1 -10 5 -10
6 0 10 -8 9 -17 -1 -10 -1 -25 0 -33 1 -13 2 -13 11 0 6 10 10 11 10 3 0 -7 7
-13 15 -13 8 0 15 6 15 13 0 8 4 7 10 -3 8 -12 10 -11 10 7 0 12 -6 23 -12 25
-18 6 16 38 39 37 10 0 13 -3 6 -6 -7 -2 -12 -14 -12 -26 1 -17 2 -18 6 -4 6
24 38 21 51 -6 l11 -22 0 23 c1 24 16 30 24 10 3 -8 6 -5 6 6 1 12 6 16 16 12
8 -3 15 -1 15 4 0 6 -10 11 -22 11 -17 1 -19 2 -5 6 20 5 23 19 5 26 -7 2 -1
4 14 3 20 -1 28 -6 28 -18 0 -10 5 -18 10 -18 6 0 10 9 10 20 0 16 7 20 30 20
19 0 30 -5 30 -14 0 -23 -17 -28 -34 -10 -15 14 -16 14 -16 -1 0 -8 -10 -20
-22 -25 l-23 -9 22 0 c12 -1 33 3 47 9 16 6 26 6 26 0 0 -5 8 -6 17 -3 15 6
15 7 -3 14 -16 6 -16 8 -2 8 9 1 21 -7 27 -16 9 -17 11 -16 28 3 10 12 28 24
41 28 14 5 22 15 22 29 -1 21 -1 22 -15 3 -8 -11 -18 -16 -22 -13 -11 11 28
35 49 29 10 -2 18 1 18 7 0 6 11 11 25 11 14 0 25 3 25 8 0 4 15 13 33 21 17
8 36 19 40 25 6 7 7 4 3 -6 -4 -13 0 -18 14 -18 22 0 27 25 8 34 -7 2 -2 4 12
3 14 -1 24 3 23 10 -1 6 4 17 12 23 9 8 15 8 15 2 0 -6 -5 -12 -12 -14 -7 -3
-6 -7 5 -11 9 -3 17 -2 17 3 0 6 6 10 14 10 8 0 17 6 19 13 4 9 6 9 6 0 1 -7
8 -13 16 -13 9 0 27 -7 40 -16 25 -16 25 -16 36 14 6 17 17 33 26 36 8 4 13
13 9 21 -3 8 -1 15 4 15 6 0 10 -9 10 -20 0 -11 5 -20 10 -20 6 0 10 12 10 27
0 26 1 26 14 7 8 -10 18 -15 22 -11 5 4 2 12 -6 18 -13 8 -13 10 0 19 8 5 24
10 35 10 17 0 17 2 5 10 -8 5 -10 10 -5 10 6 0 15 -4 20 -9 6 -5 19 -5 30 -1
11 5 14 9 8 9 -7 1 -13 10 -13 21 0 24 6 25 28 3 16 -16 17 -16 20 0 2 9 8 17
13 17 5 0 9 6 9 14 0 24 22 30 37 11 8 -12 13 -14 13 -6 0 8 6 11 15 7 9 -3
15 0 15 10 0 9 5 12 12 8 8 -5 9 -2 4 11 -4 12 0 24 14 37 11 10 20 14 20 8 0
-7 6 -10 13 -7 6 2 11 10 9 16 -1 6 10 11 24 11 23 0 25 2 14 15 -11 13 -15
13 -21 3 -5 -8 -9 -8 -9 -2 0 6 8 19 19 28 17 16 19 16 26 -1 7 -17 8 -17 15
2 4 11 3 25 -2 31 -5 8 -4 12 4 11 50 -2 67 4 71 26 l4 22 2 -23 c1 -22 2 -22
31 10 18 19 41 33 57 34 39 3 41 4 18 14 -17 7 -17 9 -2 9 9 1 17 5 17 11 0 5
6 7 14 4 8 -3 17 -1 21 5 3 6 -1 11 -11 11 -14 0 -13 3 6 20 13 11 27 20 32
20 5 0 14 11 20 25 6 14 17 25 24 25 7 0 19 7 28 15 8 9 19 15 23 14 27 -6 57
31 36 44 -5 2 -2 2 5 0 7 -1 23 7 35 18 12 12 32 25 45 30 19 7 28 26 23 52
-1 5 3 6 8 3 11 -7 74 4 67 12 -8 7 45 72 59 72 7 0 23 9 36 21 13 11 18 17
10 13 -24 -12 22 44 47 57 24 13 29 29 10 29 -6 0 -2 9 10 20 11 11 28 17 36
14 11 -4 16 0 16 15 0 14 6 21 20 21 14 0 20 7 20 23 0 17 2 19 10 7 5 -8 11
-12 14 -9 5 4 13 38 15 62 1 4 10 7 20 7 15 0 18 5 14 23 -4 18 -3 19 6 7 9
-13 11 -13 11 3 0 9 7 17 15 17 9 0 15 9 15 21 0 12 8 23 19 26 11 3 21 13 24
24 3 11 14 19 26 19 16 0 21 6 21 26 0 16 12 37 30 54 17 15 30 32 30 37 0 4
12 19 25 32 14 13 23 26 21 29 -8 8 21 32 39 32 13 0 16 6 13 25 -5 21 -2 25
13 20 15 -5 19 -1 19 20 0 33 23 57 47 49 16 -5 16 -4 -2 12 -13 10 -14 15 -5
11 26 -8 57 26 65 71 6 38 14 47 39 43 4 -1 6 9 2 23 -5 20 -1 25 19 30 25 6
35 26 13 26 -6 0 -8 3 -4 7 4 5 13 8 19 8 7 0 16 21 22 47 8 38 13 46 25 38
20 -13 39 -12 20 0 -13 9 -13 12 0 23 9 6 14 21 12 32 -2 11 -1 17 3 13 9 -9
35 16 36 34 0 7 5 4 10 -7 8 -16 8 -15 4 8 -6 28 18 73 57 108 11 10 15 23 11
37 -4 19 -1 22 23 23 25 0 26 1 9 9 -17 7 -17 9 -3 9 10 1 17 4 17 9 -1 4 2
22 6 40 5 22 12 31 21 28 10 -4 14 3 14 24 0 17 5 30 10 30 6 0 10 5 10 12 0
7 11 22 23 33 16 13 26 35 30 64 3 26 15 54 30 70 14 14 28 36 31 48 4 11 13
27 21 33 8 7 15 27 15 45 0 19 5 35 12 37 7 3 13 22 13 44 1 30 6 41 23 49 13
6 22 19 22 31 0 12 7 27 16 35 8 7 13 20 11 30 -3 9 -1 23 4 30 4 7 3 19 -2
25 -8 9 -5 11 10 7 16 -4 21 -1 21 16 0 11 5 21 11 21 7 0 9 10 6 26 -3 18 -1
24 8 20 15 -5 28 20 19 35 -3 5 2 9 10 9 17 0 22 15 8 24 -14 8 -7 42 11 60
11 11 17 33 17 61 0 26 5 47 14 52 16 10 40 53 28 53 -15 0 -7 40 10 46 10 3
15 11 11 20 -3 7 0 14 6 14 6 0 11 4 11 10 0 5 -7 7 -15 4 -9 -4 -15 0 -15 10
0 9 8 16 20 16 11 0 19 3 19 8 -1 4 -1 19 0 34 1 20 5 26 16 22 11 -5 14 2 12
28 -1 18 -6 36 -12 40 -6 5 -5 8 3 8 6 0 12 11 12 25 0 14 5 25 11 25 6 0 9 7
6 15 -4 8 -2 17 2 20 5 3 7 14 4 25 -3 11 -1 20 5 20 9 0 19 55 27 154 3 27 9
53 15 56 6 4 15 35 20 70 5 35 15 67 21 71 10 6 10 11 0 23 -11 13 -10 17 4
22 17 7 17 8 -1 21 -10 7 -13 13 -8 13 6 0 15 16 21 35 8 24 8 35 1 35 -7 0
-7 4 -1 13 6 6 13 30 16 52 4 27 3 35 -3 25 -8 -13 -10 -13 -10 2 0 9 7 21 16
26 12 7 13 11 5 17 -9 5 -9 10 0 21 9 11 9 18 1 26 -17 17 -15 38 4 38 11 0
15 9 14 33 -1 17 -1 37 0 42 1 6 2 14 1 18 -1 4 4 17 10 29 9 16 8 23 -2 30
-11 8 -11 11 -1 15 10 4 10 8 1 20 -10 11 -10 16 0 23 8 4 9 10 3 14 -8 5 -9
77 -3 129 1 4 8 7 16 7 19 0 19 5 -1 35 -10 15 -12 25 -5 25 6 0 11 9 11 19 0
11 5 23 11 26 6 4 8 14 5 22 -4 8 -9 36 -12 62 -3 25 -9 50 -15 55 -14 15 -11
26 7 26 13 0 15 7 9 38 -4 20 -11 39 -16 40 -5 2 -9 13 -9 25 1 22 1 22 16 2
15 -19 16 -16 11 38 -3 31 -3 57 1 57 4 0 7 11 7 25 0 14 -4 25 -8 25 -5 0 -5
5 -2 10 4 6 1 17 -5 25 -9 11 -9 15 -1 15 7 0 11 12 9 28 -2 17 1 26 10 24 19
-3 15 6 -15 36 -27 27 -27 27 -5 30 18 3 20 7 12 23 -7 13 -7 25 0 38 7 14 7
22 0 26 -6 4 -8 16 -5 28 2 12 2 16 -1 10 -3 -7 -9 -13 -13 -13 -9 0 -6 74 4
90 3 5 1 10 -5 10 -5 0 -10 12 -10 28 1 126 -1 162 -10 167 -14 8 -13 45 1 45
7 0 8 7 4 18 -4 9 -9 26 -11 37 -16 78 -16 85 -4 85 9 0 8 6 -4 19 -9 10 -19
37 -22 60 -3 23 -9 53 -14 67 -6 15 -6 24 0 24 6 0 10 7 10 15 0 8 -5 15 -11
15 -8 0 -9 15 -5 45 6 39 5 45 -11 46 -10 0 -13 3 -7 5 12 5 7 44 -5 44 -4 0
-8 6 -8 13 0 6 -3 22 -7 35 -5 15 -3 22 6 22 9 1 7 5 -4 14 -11 8 -18 27 -18
47 0 42 -4 67 -17 99 -6 14 -9 29 -6 33 3 4 0 14 -7 22 -8 10 -8 15 0 20 8 5
5 13 -9 26 -12 11 -21 30 -21 43 0 13 -7 29 -16 36 -9 8 -14 26 -12 44 4 53
-12 124 -30 131 -15 6 -15 8 3 16 17 7 15 8 -8 6 -28 -2 -29 -1 -31 51 -1 29
-8 58 -14 64 -7 7 -12 26 -12 43 0 17 -11 55 -25 83 -14 29 -25 58 -25 64 0 7
-9 27 -20 43 -11 17 -20 38 -20 47 0 9 -10 20 -21 23 -12 4 -17 10 -12 14 18
12 23 41 8 41 -9 0 -15 10 -15 25 0 18 -5 25 -20 25 -11 0 -20 5 -20 10 0 6 5
10 10 10 6 0 10 7 10 15 0 8 -4 15 -10 15 -5 0 -10 5 -10 11 0 15 -72 79 -82
73 -4 -3 -5 2 -2 11 4 10 -3 29 -15 46 -12 16 -19 33 -16 38 7 12 -14 60 -37
85 -10 11 -18 24 -18 30 0 5 -3 7 -6 3 -9 -9 -34 19 -34 38 0 9 -4 13 -10 10
-5 -3 -10 -1 -10 5 0 14 -25 40 -39 40 -18 0 -12 18 12 35 21 16 21 17 1 11
-30 -9 -75 10 -81 34 -4 16 -11 19 -27 14 -11 -4 -22 -11 -24 -15 -6 -15 -22
-10 -22 6 0 9 -12 20 -26 25 -14 6 -23 14 -20 19 6 9 -15 71 -24 71 -3 -1 -11
-7 -18 -15z m-150 -72 c-21 -15 -32 -16 -32 -3 0 6 8 10 18 11 10 0 12 3 5 6
-7 2 -13 9 -13 14 0 5 9 4 19 -3 18 -11 18 -13 3 -25z m101 2 c-3 -9 -8 -14
-10 -11 -3 3 -2 9 2 15 9 16 15 13 8 -4z m-208 -25 c3 -5 -1 -10 -10 -10 -9 0
-13 5 -10 10 3 6 8 10 10 10 2 0 7 -4 10 -10z m-48 -32 c-3 -7 -5 -2 -5 12 0
14 2 19 5 13 2 -7 2 -19 0 -25z m-17 7 c0 -2 -7 -5 -15 -9 -9 -3 -15 0 -15 9
0 9 6 12 15 9 8 -4 15 -7 15 -9z m501 -58 c-7 -7 -14 -8 -21 -1 -6 6 -2 10 12
11 16 2 18 -1 9 -10z m-534 -29 c-3 -8 -6 -5 -6 6 -1 11 2 17 5 13 3 -3 4 -12
1 -19z m-132 -168 c3 -5 1 -10 -4 -10 -6 0 -11 5 -11 10 0 6 2 10 4 10 3 0 8
-4 11 -10z m-206 -174 c9 -11 7 -13 -11 -11 -30 3 -30 3 -23 15 9 14 20 13 34
-4z m1171 -6 c0 -5 -7 -10 -15 -10 -8 0 -15 5 -15 10 0 6 7 10 15 10 8 0 15
-4 15 -10z m-1300 -290 c0 -5 -2 -10 -4 -10 -3 0 -8 5 -11 10 -3 6 -1 10 4 10
6 0 11 -4 11 -10z m-60 -54 c0 -4 -6 -6 -14 -3 -8 3 -17 1 -19 -6 -2 -7 -8 -9
-11 -5 -4 3 1 15 11 25 17 18 32 13 33 -11z m63 -21 c-3 -9 -8 -14 -10 -11 -3
3 -2 9 2 15 9 16 15 13 8 -4z m-23 -40 c0 -8 -2 -15 -4 -15 -2 0 -6 7 -10 15
-3 8 -1 15 4 15 6 0 10 -7 10 -15z m-125 -315 c9 0 12 6 9 18 -5 14 -4 15 5 2
8 -11 7 -18 -6 -27 -20 -15 -37 -17 -28 -3 3 6 1 10 -4 10 -6 0 -11 8 -11 18
1 16 1 16 11 0 5 -10 16 -18 24 -18z m-45 -50 c0 -5 -5 -10 -11 -10 -5 0 -7 5
-4 10 3 6 8 10 11 10 2 0 4 -4 4 -10z m-70 -270 c0 -5 -4 -10 -10 -10 -5 0
-10 5 -10 10 0 6 5 10 10 10 6 0 10 -4 10 -10z m-80 -220 c0 -5 -7 -10 -15
-10 -8 0 -15 5 -15 10 0 6 7 10 15 10 8 0 15 -4 15 -10z m-220 -760 c0 -5 -2
-10 -4 -10 -3 0 -8 5 -11 10 -3 6 -1 10 4 10 6 0 11 -4 11 -10z m-60 -165 c0
-8 -2 -15 -4 -15 -2 0 -6 7 -10 15 -3 8 -1 15 4 15 6 0 10 -7 10 -15z m-60
-85 c0 -5 -5 -10 -11 -10 -5 0 -7 5 -4 10 3 6 8 10 11 10 2 0 4 -4 4 -10z
m-33 -185 c6 -14 7 -23 2 -19 -5 3 -9 -11 -9 -30 0 -30 -4 -36 -20 -36 -23 0
-24 25 -3 47 6 7 10 24 9 38 -4 32 6 32 21 0z m-117 -475 c0 -5 -5 -10 -11
-10 -5 0 -7 5 -4 10 3 6 8 10 11 10 2 0 4 -4 4 -10z m-55 -80 c-3 -5 -12 -10
-18 -10 -7 0 -6 4 3 10 19 12 23 12 15 0z m-185 -429 c0 -6 -4 -13 -10 -16 -5
-3 -10 1 -10 9 0 9 5 16 10 16 6 0 10 -4 10 -9z m47 -7 c-3 -3 -12 -4 -19 -1
-8 3 -5 6 6 6 11 1 17 -2 13 -5z m-82 -84 c3 -5 2 -10 -4 -10 -5 0 -13 5 -16
10 -3 6 -2 10 4 10 5 0 13 -4 16 -10z m-35 -230 c0 -5 -4 -10 -10 -10 -5 0
-10 5 -10 10 0 6 5 10 10 10 6 0 10 -4 10 -10z m-90 -90 c0 -5 -2 -10 -4 -10
-3 0 -8 5 -11 10 -3 6 -1 10 4 10 6 0 11 -4 11 -10z m30 -27 c0 -5 -7 -16 -14
-26 -11 -14 -15 -15 -19 -4 -3 8 0 20 6 26 13 13 27 15 27 4z m-63 -49 c3 -9
-2 -23 -12 -32 -10 -9 -15 -11 -11 -4 4 6 2 12 -3 12 -6 0 -11 9 -11 20 0 24
28 27 37 4z m-57 -46 c0 -7 3 -23 6 -35 5 -17 2 -23 -9 -23 -9 0 -18 8 -20 18
-2 9 -2 0 1 -22 3 -27 1 -36 -7 -32 -6 4 -11 14 -11 22 0 8 -7 14 -15 14 -8 0
-15 5 -15 10 0 6 7 13 15 16 8 4 15 15 15 25 0 12 7 19 20 19 11 0 20 -6 20
-12z m44 -14 c12 -4 13 -11 6 -24 -5 -9 -7 -20 -4 -23 3 -3 -3 -10 -15 -16
-13 -7 -22 -8 -26 -1 -3 5 1 10 9 10 9 0 16 9 16 20 0 11 -5 20 -11 20 -5 0
-7 5 -4 10 7 12 8 12 29 4z m-247 -376 c-3 -8 -6 -5 -6 6 -1 11 2 17 5 13 3
-3 4 -12 1 -19z m18 -38 c3 -5 1 -10 -4 -10 -6 0 -11 5 -11 10 0 6 2 10 4 10
3 0 8 -4 11 -10z m-18 -82 c-3 -7 -5 -2 -5 12 0 14 2 19 5 13 2 -7 2 -19 0
-25z m-97 2 c0 -5 -2 -10 -4 -10 -3 0 -8 5 -11 10 -3 6 -1 10 4 10 6 0 11 -4
11 -10z m140 -50 c0 -5 -8 -10 -17 -10 -15 0 -16 2 -3 10 19 12 20 12 20 0z
m-30 -82 c0 -16 -3 -19 -11 -11 -6 6 -8 16 -5 22 11 17 16 13 16 -11z m-165
-158 c-3 -5 3 -10 14 -10 11 0 23 -4 26 -10 4 -6 -7 -10 -24 -10 -24 0 -31 4
-31 20 0 11 5 20 11 20 5 0 7 -4 4 -10z m-60 -170 c-3 -5 -10 -10 -16 -10 -5
0 -9 5 -9 10 0 6 7 10 16 10 8 0 12 -4 9 -10z m2995 -36 c0 -3 -7 -12 -15 -21
-20 -19 -32 -10 -14 11 14 15 29 21 29 10z m-3040 -64 c0 -5 -4 -10 -10 -10
-5 0 -10 5 -10 10 0 6 5 10 10 10 6 0 10 -4 10 -10z m30 -14 c0 -3 -4 -8 -10
-11 -5 -3 -10 -1 -10 4 0 6 5 11 10 11 6 0 10 -2 10 -4z m-50 -27 c0 -15 -4
-19 -16 -15 -9 3 -27 6 -40 6 -13 0 -24 4 -24 9 0 8 18 14 68 20 6 0 12 -8 12
-20z m-80 -29 c0 -5 -4 -10 -10 -10 -5 0 -10 5 -10 10 0 6 5 10 10 10 6 0 10
-4 10 -10z m140 0 c0 -5 -5 -10 -11 -10 -5 0 -7 5 -4 10 3 6 8 10 11 10 2 0 4
-4 4 -10z m-80 -40 c0 -16 4 -30 10 -30 5 0 7 -7 4 -15 -4 -8 -1 -22 6 -30 10
-12 9 -15 -4 -15 -9 0 -16 -4 -16 -10 0 -5 -9 -10 -21 -10 -15 0 -20 5 -17 22
2 12 9 23 16 26 7 2 10 -2 6 -12 -3 -9 -1 -16 5 -16 17 0 13 41 -5 54 -11 8
-13 20 -9 39 9 36 25 34 25 -3z m40 20 c0 -5 -5 -10 -11 -10 -5 0 -7 5 -4 10
3 6 8 10 11 10 2 0 4 -4 4 -10z m70 0 c0 -5 -4 -10 -10 -10 -5 0 -10 5 -10 10
0 6 5 10 10 10 6 0 10 -4 10 -10z m-50 -60 c0 -5 -2 -10 -4 -10 -3 0 -8 5 -11
10 -3 6 -1 10 4 10 6 0 11 -4 11 -10z m-20 -190 c0 -5 -4 -10 -10 -10 -5 0
-10 5 -10 10 0 6 5 10 10 10 6 0 10 -4 10 -10z m-140 -20 c0 -5 -4 -10 -10
-10 -5 0 -10 5 -10 10 0 6 5 10 10 10 6 0 10 -4 10 -10z m-33 -15 c9 -24 -1
-27 -15 -5 -8 13 -8 20 -2 20 6 0 13 -7 17 -15z m108 -5 c3 -5 1 -10 -4 -10
-6 0 -11 5 -11 10 0 6 2 10 4 10 3 0 8 -4 11 -10z m-15 -32 c0 -12 -14 -10
-28 4 -19 19 -14 29 8 16 11 -7 20 -16 20 -20z m127 -10 c-3 -8 -6 -5 -6 6 -1
11 2 17 5 13 3 -3 4 -12 1 -19z m-127 -30 c0 -13 -9 -10 -33 13 l-22 21 28
-13 c15 -7 27 -16 27 -21z m-110 2 c0 -5 -4 -10 -10 -10 -5 0 -10 5 -10 10 0
6 5 10 10 10 6 0 10 -4 10 -10z m70 -25 c0 -5 -5 -3 -10 5 -5 8 -10 20 -10 25
0 6 5 3 10 -5 5 -8 10 -19 10 -25z m-43 -7 c-3 -8 -6 -5 -6 6 -1 11 2 17 5 13
3 -3 4 -12 1 -19z m18 -64 c-18 -19 -25 -18 -25 5 0 14 5 18 20 14 16 -4 17
-7 5 -19z m-162 -55 c3 -12 10 -18 16 -15 5 4 12 2 16 -4 3 -5 1 -10 -4 -10
-6 0 -11 -8 -11 -18 0 -10 -8 -18 -19 -19 -14 -1 -20 7 -24 34 -4 20 -4 40 -1
45 9 14 21 9 27 -13z m-83 -94 c0 -2 -3 -10 -6 -19 -8 -21 -21 -20 -26 2 -4
12 1 18 13 19 11 1 19 0 19 -2z m100 -25 c0 -5 8 -10 17 -10 9 0 14 -3 10 -6
-10 -10 -58 5 -52 16 8 13 25 13 25 0z m70 -31 c0 -5 -2 -9 -4 -9 -2 0 -11 -3
-19 -6 -12 -4 -14 0 -10 15 5 19 33 19 33 0z m-40 -61 c0 -26 -23 -18 -25 9
-1 14 3 19 12 16 7 -3 13 -14 13 -25z m60 12 c0 -5 -4 -10 -10 -10 -5 0 -10 5
-10 10 0 6 5 10 10 10 6 0 10 -4 10 -10z m2674 -95 c3 -8 1 -15 -4 -15 -6 0
-10 7 -10 15 0 8 2 15 4 15 2 0 6 -7 10 -15z m-2723 -38 c-10 -9 -11 -8 -5 6
3 10 9 15 12 12 3 -3 0 -11 -7 -18z m-51 -37 c0 -11 -6 -20 -14 -20 -21 0 -47
-55 -33 -69 8 -8 6 -11 -6 -11 -18 0 -24 35 -7 45 15 9 12 25 -4 25 -9 0 -12
7 -9 20 7 25 23 26 24 3 0 -14 2 -15 6 -3 13 32 43 39 43 10z m87 0 c-3 -11
-1 -20 5 -20 5 0 3 -7 -6 -15 -20 -20 -25 -19 -23 5 1 11 5 20 9 20 4 0 8 7 8
15 0 8 3 15 6 15 4 0 4 -9 1 -20z m-177 -40 c0 -5 -4 -10 -10 -10 -5 0 -10 5
-10 10 0 6 5 10 10 10 6 0 10 -4 10 -10z m87 -37 c-5 -12 -14 -23 -19 -23 -5
0 -2 10 6 21 8 12 12 29 9 38 -4 13 -3 13 5 2 7 -10 7 -22 -1 -38z m53 27 c0
-5 -2 -10 -4 -10 -3 0 -8 5 -11 10 -3 6 -1 10 4 10 6 0 11 -4 11 -10z m-180
-120 c0 -11 -4 -20 -10 -20 -5 0 -10 9 -10 20 0 11 5 20 10 20 6 0 10 -9 10
-20z m107 -2 c-3 -8 -6 -5 -6 6 -1 11 2 17 5 13 3 -3 4 -12 1 -19z m-107 -38
c0 -5 -4 -10 -10 -10 -5 0 -10 5 -10 10 0 6 5 10 10 10 6 0 10 -4 10 -10z m34
-62 c7 -5 4 -8 -6 -8 -12 0 -18 7 -17 23 0 15 2 17 6 7 3 -8 11 -18 17 -22z
m-74 -4 c0 -3 -6 -12 -14 -19 -12 -12 -15 -11 -19 5 -4 15 0 20 14 20 10 0 19
-3 19 -6z m177 -30 c-3 -3 -12 -4 -19 -1 -8 3 -5 6 6 6 11 1 17 -2 13 -5z
m-72 -54 c3 -5 -1 -10 -9 -10 -9 0 -16 -4 -16 -10 0 -5 -4 -10 -10 -10 -5 0
-10 9 -10 20 0 21 33 29 45 10z m2475 -20 c0 -5 -4 -10 -10 -10 -5 0 -10 5
-10 10 0 6 5 10 10 10 6 0 10 -4 10 -10z m-2545 -90 c8 0 16 -4 19 -9 3 -4 -5
-8 -17 -7 -16 1 -23 8 -24 26 -1 14 0 18 3 8 3 -10 12 -18 19 -18z m92 -6 c-3
-3 -12 -4 -19 -1 -8 3 -5 6 6 6 11 1 17 -2 13 -5z m-13 -69 c-4 -8 -8 -15 -10
-15 -2 0 -4 7 -4 15 0 8 4 15 10 15 5 0 7 -7 4 -15z m-154 -170 c0 -8 -4 -15
-10 -15 -5 0 -10 7 -10 15 0 8 5 15 10 15 6 0 10 -7 10 -15z m30 -45 c0 -5 -4
-10 -10 -10 -5 0 -10 5 -10 10 0 6 5 10 10 10 6 0 10 -4 10 -10z m-110 -31
c-12 -21 -36 -25 -43 -6 -4 13 33 38 45 31 5 -3 3 -14 -2 -25z m34 -5 c3 -8
10 -12 16 -9 5 3 16 3 22 -1 9 -6 5 -10 -12 -14 -34 -9 -50 -2 -50 21 0 23 16
25 24 3z m33 10 c-3 -3 -12 -4 -19 -1 -8 3 -5 6 6 6 11 1 17 -2 13 -5z m102
-28 c9 -11 6 -12 -14 -8 -14 2 -22 8 -19 13 8 13 20 11 33 -5z m-109 -56 c0
-5 -4 -10 -10 -10 -5 0 -10 5 -10 10 0 6 5 10 10 10 6 0 10 -4 10 -10z m80
-43 c0 -5 -4 -5 -10 -2 -5 3 -10 14 -10 23 0 15 2 15 10 2 5 -8 10 -19 10 -23z
m-70 -12 c-7 -9 -15 -13 -17 -11 -6 6 20 36 26 30 2 -2 -2 -10 -9 -19z m40
-149 c0 -2 -7 -7 -16 -10 -8 -3 -12 -2 -9 4 6 10 25 14 25 6z m80 -6 c0 -5 -5
-10 -11 -10 -5 0 -7 5 -4 10 3 6 8 10 11 10 2 0 4 -4 4 -10z m-187 -15 c-3 -9
-8 -14 -10 -11 -3 3 -2 9 2 15 9 16 15 13 8 -4z m34 -27 c-3 -7 -5 -2 -5 12 0
14 2 19 5 13 2 -7 2 -19 0 -25z m37 -1 c7 -6 6 -7 -4 -4 -8 2 -16 12 -17 23
-2 13 -1 15 4 4 3 -8 11 -19 17 -23z m1786 -22 c0 -8 -4 -15 -10 -15 -5 0 -7
7 -4 15 4 8 8 15 10 15 2 0 4 -7 4 -15z m-1764 -21 c-4 -9 -9 -15 -11 -12 -3
3 -3 13 1 22 4 9 9 15 11 12 3 -3 3 -13 -1 -22z m104 -24 c0 -5 -4 -10 -10
-10 -5 0 -10 5 -10 10 0 6 5 10 10 10 6 0 10 -4 10 -10z m-87 -124 c4 -10 0
-12 -14 -9 -22 6 -26 23 -5 23 8 0 16 -6 19 -14z m87 4 c0 -5 -2 -10 -4 -10
-3 0 -8 5 -11 10 -3 6 -1 10 4 10 6 0 11 -4 11 -10z m1403 -40 c-3 -11 -12
-20 -19 -20 -20 0 -17 28 4 33 9 3 18 5 19 6 0 0 -1 -8 -4 -19z m-1523 0 c0
-5 -4 -10 -10 -10 -5 0 -10 5 -10 10 0 6 5 10 10 10 6 0 10 -4 10 -10z m80
-10 c0 -5 -4 -10 -10 -10 -5 0 -10 5 -10 10 0 6 5 10 10 10 6 0 10 -4 10 -10z
m170 -81 c0 -14 -17 -10 -23 5 -4 10 -1 13 9 9 7 -3 14 -9 14 -14z m-203 -11
c-3 -8 -6 -5 -6 6 -1 11 2 17 5 13 3 -3 4 -12 1 -19z m73 -28 c0 -5 -4 -10
-10 -10 -5 0 -10 5 -10 10 0 6 5 10 10 10 6 0 10 -4 10 -10z m-130 -144 c0 -3
-4 -8 -10 -11 -5 -3 -10 -1 -10 4 0 6 5 11 10 11 6 0 10 -2 10 -4z m300 -2 c0
-3 -7 -12 -15 -21 -20 -19 -32 -10 -14 11 14 15 29 21 29 10z m90 -24 c0 -5
-9 -10 -20 -10 -11 0 -20 5 -20 10 0 6 9 10 20 10 11 0 20 -4 20 -10z m-5 -30
c-3 -5 -14 -10 -23 -9 -14 0 -13 2 3 9 27 11 27 11 20 0z m375 -16 c0 -8 -4
-14 -10 -14 -5 0 -10 9 -10 21 0 11 5 17 10 14 6 -3 10 -13 10 -21z m-430 0
c0 -6 -6 -14 -13 -17 -7 -3 -13 3 -13 12 0 10 6 18 13 18 7 0 13 -6 13 -13z
m202 -40 c-7 -12 -11 -13 -17 -4 -4 7 -2 16 6 21 18 11 23 4 11 -17z m228 12
c0 -3 -4 -8 -10 -11 -5 -3 -10 -1 -10 4 0 6 5 11 10 11 6 0 10 -2 10 -4z"/>
<path d="M13841 12054 c0 -11 3 -14 6 -6 3 7 2 16 -1 19 -3 4 -6 -2 -5 -13z"/>
<path d="M13487 12019 c4 -13 8 -18 11 -10 2 7 -1 18 -6 23 -8 8 -9 4 -5 -13z"/>
<path d="M13542 12028 c5 -15 28 -23 28 -10 0 5 -7 13 -16 16 -10 4 -14 1 -12
-6z"/>
<path d="M13516 12021 c-4 -7 -5 -15 -2 -18 9 -9 19 4 14 18 -4 11 -6 11 -12
0z"/>
<path d="M13880 11990 c0 -5 5 -10 11 -10 5 0 7 5 4 10 -3 6 -8 10 -11 10 -2
0 -4 -4 -4 -10z"/>
<path d="M13340 11980 c0 -5 5 -10 10 -10 6 0 10 5 10 10 0 6 -4 10 -10 10 -5
0 -10 -4 -10 -10z"/>
<path d="M13960 11978 c0 -9 -3 -23 -6 -32 -7 -19 12 -21 30 -3 10 10 9 16 -6
31 -15 16 -18 17 -18 4z"/>
<path d="M13280 11949 c0 -5 5 -7 10 -4 6 3 10 8 10 11 0 2 -4 4 -10 4 -5 0
-10 -5 -10 -11z"/>
<path d="M13277 11890 c-4 -15 0 -20 14 -20 23 0 24 7 5 25 -12 12 -15 11 -19
-5z"/>
<path d="M13210 11801 c0 -5 -9 -7 -20 -4 -11 3 -20 1 -20 -5 0 -16 25 -21 43
-7 19 14 22 25 7 25 -5 0 -10 -4 -10 -9z"/>
<path d="M13040 11690 c0 -5 5 -10 10 -10 6 0 10 5 10 10 0 6 -4 10 -10 10 -5
0 -10 -4 -10 -10z"/>
<path d="M14150 11690 c0 -5 5 -10 10 -10 6 0 10 5 10 10 0 6 -4 10 -10 10 -5
0 -10 -4 -10 -10z"/>
<path d="M13125 11680 c-3 -5 -1 -10 4 -10 6 0 11 5 11 10 0 6 -2 10 -4 10 -3
0 -8 -4 -11 -10z"/>
<path d="M13111 11644 c0 -11 3 -14 6 -6 3 7 2 16 -1 19 -3 4 -6 -2 -5 -13z"/>
<path d="M14150 11650 c0 -5 5 -10 10 -10 6 0 10 5 10 10 0 6 -4 10 -10 10 -5
0 -10 -4 -10 -10z"/>
<path d="M13076 11635 c-3 -8 -1 -15 4 -15 6 0 10 7 10 15 0 8 -2 15 -4 15 -2
0 -6 -7 -10 -15z"/>
<path d="M13020 11615 c-7 -9 -8 -15 -2 -15 5 0 12 7 16 15 3 8 4 15 2 15 -2
0 -9 -7 -16 -15z"/>
<path d="M13075 11590 c-4 -6 -10 -8 -15 -5 -4 3 -19 0 -32 -5 -22 -10 -22
-10 4 -5 14 3 28 0 30 -5 2 -6 9 -1 16 10 7 11 10 20 8 20 -3 0 -8 -5 -11 -10z"/>
<path d="M14220 11590 c0 -5 5 -10 11 -10 5 0 7 5 4 10 -3 6 -8 10 -11 10 -2
0 -4 -4 -4 -10z"/>
<path d="M12945 11440 c3 -5 10 -10 16 -10 5 0 9 5 9 10 0 6 -7 10 -16 10 -8
0 -12 -4 -9 -10z"/>
<path d="M12950 11380 c0 -5 5 -10 10 -10 6 0 10 5 10 10 0 6 -4 10 -10 10 -5
0 -10 -4 -10 -10z"/>
<path d="M12941 11344 c0 -11 3 -14 6 -6 3 7 2 16 -1 19 -3 4 -6 -2 -5 -13z"/>
<path d="M12760 11040 c0 -5 5 -10 11 -10 5 0 7 5 4 10 -3 6 -8 10 -11 10 -2
0 -4 -4 -4 -10z"/>
<path d="M12812 10985 c0 -16 2 -22 5 -12 2 9 2 23 0 30 -3 6 -5 -1 -5 -18z"/>
<path d="M12582 10468 c6 -18 28 -21 28 -4 0 9 -7 16 -16 16 -9 0 -14 -5 -12
-12z"/>
<path d="M12520 10430 c0 -6 7 -10 15 -10 8 0 15 2 15 4 0 2 -7 6 -15 10 -8 3
-15 1 -15 -4z"/>
<path d="M12566 10419 c4 -6 0 -15 -7 -20 -11 -7 -11 -9 2 -9 22 0 32 27 13
34 -9 4 -12 2 -8 -5z"/>
<path d="M12610 10410 c0 -5 5 -10 10 -10 6 0 10 5 10 10 0 6 -4 10 -10 10 -5
0 -10 -4 -10 -10z"/>
<path d="M12560 10330 c0 -5 7 -10 15 -10 8 0 15 5 15 10 0 6 -7 10 -15 10 -8
0 -15 -4 -15 -10z"/>
<path d="M12480 10180 c0 -5 7 -7 15 -4 8 4 15 8 15 10 0 2 -7 4 -15 4 -8 0
-15 -4 -15 -10z"/>
<path d="M12395 10171 c-4 -7 0 -8 10 -4 10 3 21 0 27 -8 8 -12 9 -11 5 1 -5
18 -33 25 -42 11z"/>
<path d="M12430 10125 c0 -8 7 -15 15 -15 8 0 15 7 15 15 0 8 -7 15 -15 15 -8
0 -15 -7 -15 -15z"/>
<path d="M12435 10050 c-3 -6 1 -7 9 -4 18 7 21 14 7 14 -6 0 -13 -4 -16 -10z"/>
<path d="M12440 10010 c0 -5 5 -10 10 -10 6 0 10 5 10 10 0 6 -4 10 -10 10 -5
0 -10 -4 -10 -10z"/>
<path d="M12402 9958 c-16 -16 -15 -28 3 -28 8 0 15 9 15 20 0 23 -2 24 -18 8z"/>
<path d="M12431 9954 c0 -11 3 -14 6 -6 3 7 2 16 -1 19 -3 4 -6 -2 -5 -13z"/>
<path d="M12360 9850 c0 -11 5 -20 10 -20 6 0 10 9 10 20 0 11 -4 20 -10 20
-5 0 -10 -9 -10 -20z"/>
<path d="M12320 9746 c0 -8 7 -16 15 -20 17 -6 18 -4 9 18 -8 20 -24 21 -24 2z"/>
<path d="M12270 9720 c0 -5 5 -10 10 -10 6 0 10 5 10 10 0 6 -4 10 -10 10 -5
0 -10 -4 -10 -10z"/>
<path d="M12309 9702 c7 -5 11 -14 7 -20 -4 -6 2 -8 14 -5 20 5 28 23 11 23
-5 0 -18 3 -28 6 -14 4 -15 4 -4 -4z"/>
<path d="M12290 9645 c12 -15 30 -12 30 6 0 5 -10 9 -21 9 -18 0 -19 -2 -9
-15z"/>
<path d="M12311 9604 c0 -11 3 -14 6 -6 3 7 2 16 -1 19 -3 4 -6 -2 -5 -13z"/>
<path d="M12285 9600 c-3 -5 -1 -10 4 -10 6 0 11 5 11 10 0 6 -2 10 -4 10 -3
0 -8 -4 -11 -10z"/>
<path d="M12230 9560 c0 -5 5 -10 11 -10 5 0 7 5 4 10 -3 6 -8 10 -11 10 -2 0
-4 -4 -4 -10z"/>
<path d="M12208 9432 c-10 -2 -18 -8 -18 -13 0 -13 27 -11 35 2 9 13 4 16 -17
11z"/>
<path d="M12171 9314 c0 -11 3 -14 6 -6 3 7 2 16 -1 19 -3 4 -6 -2 -5 -13z"/>
<path d="M12158 9243 c7 -3 16 -2 19 1 4 3 -2 6 -13 5 -11 0 -14 -3 -6 -6z"/>
<path d="M12115 9140 c-3 -5 -1 -10 4 -10 6 0 11 5 11 10 0 6 -2 10 -4 10 -3
0 -8 -4 -11 -10z"/>
<path d="M12095 8897 c-4 -10 -5 -21 -1 -24 10 -10 18 4 13 24 -4 17 -4 17
-12 0z"/>
<path d="M12078 8788 c-10 -10 -14 -18 -9 -18 10 0 36 29 30 34 -2 1 -12 -6
-21 -16z"/>
<path d="M12036 8711 c-4 -7 -5 -15 -2 -18 9 -9 19 4 14 18 -4 11 -6 11 -12 0z"/>
<path d="M12021 8584 c0 -11 3 -14 6 -6 3 7 2 16 -1 19 -3 4 -6 -2 -5 -13z"/>
<path d="M11940 8420 c0 -5 5 -10 10 -10 6 0 10 5 10 10 0 6 -4 10 -10 10 -5
0 -10 -4 -10 -10z"/>
<path d="M11840 8341 c0 -6 4 -13 10 -16 6 -3 7 1 4 9 -7 18 -14 21 -14 7z"/>
<path d="M11835 8300 c3 -5 8 -10 11 -10 2 0 4 5 4 10 0 6 -5 10 -11 10 -5 0
-7 -4 -4 -10z"/>
<path d="M11886 8222 c-7 -12 12 -38 21 -29 4 5 1 12 -6 16 -11 7 -11 10 0 14
9 3 10 6 2 6 -6 1 -14 -3 -17 -7z"/>
<path d="M11840 8160 c0 -5 7 -10 16 -10 8 0 12 5 9 10 -3 6 -10 10 -16 10 -5
0 -9 -4 -9 -10z"/>
<path d="M6890 7935 c-96 -8 -200 -18 -230 -24 -30 -5 -102 -15 -160 -22 -147
-16 -321 -54 -390 -85 -118 -53 -146 -157 -62 -229 41 -36 161 -59 273 -52
108 6 370 31 509 49 121 15 580 15 725 0 61 -7 175 -19 255 -27 180 -18 392
-48 530 -74 58 -11 157 -29 220 -41 63 -11 128 -25 145 -30 16 -6 62 -17 100
-25 137 -28 510 -122 575 -144 14 -5 72 -23 130 -41 58 -17 116 -36 130 -42
14 -6 45 -16 70 -23 25 -7 91 -27 148 -44 173 -52 260 -36 290 54 18 54 2 102
-52 156 -37 38 -167 129 -183 129 -4 0 -25 9 -47 19 -97 45 -121 55 -228 93
-107 37 -397 127 -476 148 -21 5 -82 21 -137 35 -103 27 -229 56 -350 80 -188
38 -228 46 -335 65 -420 73 -1037 105 -1450 75z"/>
<path d="M11720 7854 c0 -23 2 -24 15 -10 8 8 15 19 15 25 0 6 -7 11 -15 11
-9 0 -15 -10 -15 -26z"/>
<path d="M11760 7832 c0 -11 8 -18 20 -19 14 -1 20 4 20 18 0 12 -7 19 -20 19
-13 0 -20 -7 -20 -18z"/>
<path d="M11581 7633 c0 -4 4 -17 9 -28 8 -19 9 -19 9 2 1 12 -3 25 -9 28 -5
3 -10 3 -9 -2z"/>
<path d="M3990 7585 c0 -10 -7 -14 -22 -11 -13 2 -33 0 -45 -5 -19 -7 -23 -16
-23 -52 0 -54 17 -155 31 -183 6 -11 9 -24 8 -30 -2 -5 1 -29 6 -54 5 -25 8
-53 6 -62 -1 -10 1 -18 6 -18 4 0 8 -21 9 -47 1 -68 8 -116 18 -132 5 -8 10
-42 11 -76 0 -33 4 -65 7 -70 3 -6 5 -29 4 -53 -1 -24 1 -45 4 -47 4 -2 7 -26
8 -52 1 -26 5 -61 8 -76 12 -57 21 -158 29 -312 2 -49 7 -103 9 -120 3 -16 8
-68 11 -115 11 -132 11 -136 20 -149 4 -8 3 -16 -3 -20 -8 -5 -7 -14 2 -33 8
-14 16 -46 19 -70 6 -60 28 -139 45 -165 7 -12 11 -27 7 -33 -3 -5 -2 -10 4
-10 6 0 19 -17 30 -37 11 -21 29 -44 40 -51 12 -7 21 -19 21 -27 0 -9 9 -15
24 -15 13 0 26 -7 30 -15 3 -8 12 -12 21 -9 8 4 22 1 30 -6 8 -7 22 -9 31 -6
15 6 15 8 2 24 -13 16 -43 76 -81 164 -9 20 -21 74 -27 119 -6 46 -13 86 -15
89 -3 6 -19 309 -30 585 -11 281 -72 882 -94 930 -5 11 -15 38 -21 60 -28 100
-77 185 -107 185 -7 0 -13 5 -13 10 0 6 -4 10 -10 10 -5 0 -10 -7 -10 -15z"/>
<path d="M11531 7534 c0 -11 3 -14 6 -6 3 7 2 16 -1 19 -3 4 -6 -2 -5 -13z"/>
<path d="M11451 7414 c0 -11 3 -14 6 -6 3 7 2 16 -1 19 -3 4 -6 -2 -5 -13z"/>
<path d="M11377 7341 c-4 -17 -3 -21 5 -13 5 5 8 16 6 23 -3 8 -7 3 -11 -10z"/>
<path d="M11381 7294 c0 -11 3 -14 6 -6 3 7 2 16 -1 19 -3 4 -6 -2 -5 -13z"/>
<path d="M11336 7292 c-3 -6 3 -12 15 -15 12 -3 19 -1 16 6 -5 15 -24 20 -31
9z"/>
<path d="M11357 7253 c12 -2 24 -12 26 -21 3 -12 5 -10 6 6 1 18 -4 22 -26 21
-23 -1 -24 -2 -6 -6z"/>
<path d="M11284 7108 c-5 -13 -7 -27 -6 -31 1 -4 -5 -7 -14 -5 -23 4 -29 -18
-8 -26 23 -9 31 1 39 47 8 41 1 50 -11 15z"/>
<path d="M11211 6956 c11 -9 69 -15 64 -6 -3 6 -20 10 -37 10 -17 0 -29 -2
-27 -4z"/>
<path d="M11308 6953 c6 -2 18 -2 25 0 6 3 1 5 -13 5 -14 0 -19 -2 -12 -5z"/>
<path d="M11300 6933 c0 -9 48 -33 64 -33 5 0 0 9 -12 20 -21 20 -52 27 -52
13z"/>
<path d="M11265 6904 c8 -6 17 -25 18 -42 1 -17 5 -28 9 -24 4 4 5 23 2 43 -4
26 -11 35 -26 35 -17 0 -18 -2 -3 -12z"/>
<path d="M11198 6857 c-3 -17 0 -23 14 -24 21 -2 24 20 4 36 -11 9 -14 7 -18
-12z"/>
<path d="M11186 6801 c-4 -7 -5 -15 -2 -18 9 -9 19 4 14 18 -4 11 -6 11 -12 0z"/>
<path d="M11136 6735 c4 -8 8 -15 10 -15 2 0 4 7 4 15 0 8 -4 15 -10 15 -5 0
-7 -7 -4 -15z"/>
<path d="M11090 6640 c0 -5 5 -10 10 -10 6 0 10 5 10 10 0 6 -4 10 -10 10 -5
0 -10 -4 -10 -10z"/>
<path d="M11078 6613 c7 -3 16 -2 19 1 4 3 -2 6 -13 5 -11 0 -14 -3 -6 -6z"/>
<path d="M11112 6534 c-14 -16 -5 -18 17 -5 7 5 9 11 5 14 -5 3 -15 -1 -22 -9z"/>
<path d="M11040 6519 c0 -5 5 -7 10 -4 6 3 10 8 10 11 0 2 -4 4 -10 4 -5 0
-10 -5 -10 -11z"/>
<path d="M10970 6395 c0 -8 5 -15 10 -15 6 0 10 7 10 15 0 8 -4 15 -10 15 -5
0 -10 -7 -10 -15z"/>
<path d="M10870 6382 c0 -11 9 -22 20 -25 13 -3 20 0 20 9 0 8 -6 11 -17 7
-10 -4 -14 -2 -9 5 3 6 2 13 -4 17 -5 3 -10 -3 -10 -13z"/>
<path d="M9730 6371 c0 -24 0 -24 -16 -5 -8 10 -13 13 -9 7 3 -7 2 -13 -4 -13
-5 0 -12 6 -14 13 -3 7 -6 4 -6 -7 -1 -14 -6 -17 -26 -12 -19 5 -23 3 -19 -9
4 -10 0 -15 -10 -15 -9 0 -16 7 -16 15 0 8 -7 15 -15 15 -8 0 -15 -7 -15 -15
0 -8 -9 -15 -19 -15 -11 0 -26 -3 -35 -6 -11 -4 -16 -1 -16 10 0 28 -28 17
-35 -14 -6 -28 -23 -38 -39 -23 -11 11 -45 14 -51 4 -3 -5 -1 -12 5 -16 25
-15 5 -25 -50 -25 -45 0 -62 -4 -66 -15 -4 -9 -11 -15 -18 -14 -18 2 -56 -13
-56 -22 0 -5 -15 -9 -32 -10 -31 -1 -32 -1 -8 -9 l25 -8 -27 -1 c-16 -1 -28 3
-28 9 0 5 -11 9 -24 8 -16 -2 -22 -7 -19 -19 7 -26 -18 -35 -35 -13 -14 18
-14 18 -9 -5 4 -18 3 -21 -6 -12 -13 13 -41 15 -33 2 4 -5 -3 -7 -14 -4 -15 4
-20 0 -20 -13 0 -16 -2 -17 -10 -4 -9 13 -10 13 -11 0 -1 -8 -1 -18 0 -22 0
-5 -8 -8 -20 -8 -13 0 -18 4 -13 12 5 8 2 9 -10 5 -10 -4 -19 -7 -21 -7 -2 0
-1 -8 2 -18 5 -20 -23 -27 -44 -10 -7 5 -14 5 -18 -2 -3 -5 -1 -10 4 -10 6 0
11 -4 11 -9 0 -4 -10 -7 -22 -5 -62 9 -63 9 -66 -13 -2 -15 -10 -23 -23 -23
-10 0 -19 -5 -19 -11 0 -6 -7 -3 -16 6 -10 9 -20 13 -23 8 -10 -14 -60 -33
-74 -27 -8 3 -22 -7 -32 -22 -17 -27 -18 -27 -26 -8 -6 16 -14 20 -37 16 -21
-3 -29 -8 -25 -18 3 -8 -3 -17 -13 -21 -11 -3 -21 -10 -24 -14 -3 -4 -18 -11
-33 -14 -19 -5 -27 -3 -27 6 0 8 -5 6 -14 -6 -7 -10 -20 -16 -29 -12 -8 3 -23
-3 -33 -14 -13 -14 -20 -16 -30 -8 -17 14 -54 2 -54 -17 0 -9 5 -12 12 -8 7 4
8 3 4 -4 -5 -9 -13 -9 -26 -2 -27 15 -66 6 -62 -14 3 -17 1 -18 -66 -21 -23
-1 -45 -5 -48 -8 -3 -3 -12 -3 -20 0 -17 6 -18 -9 -2 -25 9 -9 6 -12 -14 -10
-16 1 -24 7 -21 15 8 21 -21 15 -35 -7 -7 -11 -18 -17 -27 -14 -10 4 -15 0
-15 -15 0 -12 -6 -21 -16 -21 -8 0 -12 5 -9 10 10 16 -7 12 -40 -10 -22 -14
-31 -16 -37 -7 -6 9 -11 8 -21 -4 -6 -9 -18 -14 -24 -12 -7 3 -13 0 -13 -6 0
-6 -5 -11 -10 -11 -7 0 -7 7 1 22 10 18 9 20 -6 15 -9 -4 -21 -7 -26 -7 -14 0
-11 -30 4 -31 6 -1 -1 -4 -18 -8 -28 -6 -64 12 -61 30 2 11 -18 12 -22 1 -1
-5 8 -14 20 -21 l23 -12 -22 5 c-13 2 -26 0 -29 -6 -3 -5 -15 -8 -25 -5 -11 3
-26 -1 -33 -9 -12 -11 -15 -11 -20 1 -3 8 -13 15 -23 15 -15 0 -15 -2 -4 -9
12 -8 12 -12 -2 -26 -10 -9 -17 -13 -17 -8 0 5 -19 9 -42 9 -23 1 -44 7 -46
13 -4 13 -32 15 -32 2 0 -5 -9 -11 -20 -14 -11 -3 -18 -1 -15 3 3 5 -9 4 -27
-1 -37 -12 -44 -13 -77 -11 -17 2 -21 6 -17 18 4 10 2 14 -6 11 -7 -2 -12 -9
-11 -14 1 -5 -11 -8 -27 -7 -21 1 -31 -3 -35 -17 -8 -24 -22 -25 -28 -1 -4 13
-5 11 -6 -5 0 -13 -7 -23 -16 -23 -9 0 -12 6 -9 15 4 10 0 15 -13 15 -10 0
-24 5 -29 10 -7 7 -18 2 -34 -15 -13 -14 -31 -25 -39 -24 -11 0 -12 2 -3 6 17
7 15 20 -4 27 -16 6 -44 -15 -44 -33 0 -6 -7 -11 -16 -11 -9 0 -12 5 -8 11 5
8 -2 10 -21 6 -18 -3 -38 1 -52 10 -26 17 -47 9 -23 -8 11 -8 8 -9 -12 -5 -28
6 -78 -11 -78 -26 0 -5 -7 -2 -16 6 -21 22 -32 20 -36 -6 -2 -18 -10 -24 -38
-26 -24 -2 -31 0 -21 6 7 5 22 7 33 4 15 -3 19 -1 16 9 -6 19 -108 23 -108 4
0 -7 6 -16 13 -18 9 -4 9 -6 0 -6 -7 -1 -18 8 -25 19 -19 29 -42 26 -34 -4 6
-24 -9 -47 -16 -26 -2 6 -13 12 -26 15 -12 2 -28 7 -35 12 -21 13 -67 11 -67
-3 0 -8 -4 -14 -10 -14 -5 0 -10 9 -10 20 0 22 -1 23 -85 24 -45 1 -64 -3 -76
-17 -10 -10 -23 -15 -33 -11 -18 7 -22 24 -4 24 6 0 9 3 5 6 -9 9 -87 10 -87
2 0 -5 8 -8 19 -8 11 0 21 -9 24 -22 5 -19 5 -20 -10 -5 -13 12 -20 13 -35 4
-16 -10 -22 -9 -33 7 -13 17 -15 17 -39 -7 -28 -28 -32 -42 -16 -50 6 -3 5 -4
-2 -3 -7 1 -14 12 -16 24 -3 22 -4 22 -20 4 -9 -10 -13 -12 -8 -5 5 9 4 13 -5
13 -9 0 -10 3 -4 8 7 5 5 19 -7 42 -17 31 -18 32 -13 8 4 -21 1 -28 -10 -28
-8 0 -15 7 -15 16 0 13 -3 14 -15 4 -21 -17 -65 -4 -65 19 0 11 8 21 18 23 14
3 13 5 -6 10 -12 3 -20 2 -16 -3 3 -5 -2 -9 -10 -9 -9 0 -16 -7 -16 -15 0 -21
-18 -19 -23 3 -4 13 -5 13 -6 -4 0 -12 -8 -27 -16 -34 -17 -14 -20 -30 -6 -30
5 0 11 10 15 23 5 17 8 19 15 8 5 -7 14 -10 20 -7 6 4 11 2 11 -4 0 -6 4 -9 9
-5 5 3 12 1 16 -5 4 -6 -4 -10 -19 -10 -17 0 -29 -9 -40 -30 -8 -16 -10 -30
-5 -30 5 0 12 7 15 15 8 21 31 19 44 -4 15 -28 12 -41 -7 -42 -11 0 -13 -3 -5
-6 6 -2 12 -11 12 -19 0 -8 4 -14 9 -14 5 0 11 -7 13 -15 2 -11 7 -12 18 -4
11 8 12 12 2 16 -7 2 -17 13 -22 23 -8 15 -5 17 18 17 15 0 21 -2 15 -4 -7 -3
-13 -9 -13 -15 0 -6 7 -7 16 -4 12 5 15 0 12 -22 -2 -18 -10 -28 -23 -30 -18
-2 -20 -9 -17 -44 3 -22 0 -38 -4 -35 -5 3 -10 -6 -11 -20 -1 -18 2 -22 7 -12
11 17 66 -1 62 -19 -1 -7 5 -15 13 -18 9 -4 15 -19 15 -37 l0 -30 78 7 c125
10 207 20 352 41 164 23 181 26 250 41 36 8 97 21 135 28 39 8 98 21 131 30
34 9 72 16 85 16 13 1 42 8 64 16 22 9 63 22 90 29 113 30 196 57 222 71 16 7
37 14 49 14 11 0 24 4 30 9 5 4 32 16 59 26 28 9 68 25 90 35 22 10 49 21 60
24 57 15 161 54 207 77 10 5 25 9 33 9 9 0 26 6 38 14 18 11 85 29 107 28 3 0
12 6 21 14 8 7 30 17 47 20 18 4 32 10 32 15 0 5 12 9 28 10 32 0 158 32 168
42 4 4 16 7 26 7 10 0 44 9 75 19 32 11 78 23 103 26 25 4 63 13 85 20 22 7
108 27 190 44 83 18 175 38 205 45 30 8 62 14 70 14 8 0 53 7 100 17 149 29
281 43 379 40 100 -3 192 -14 201 -24 3 -3 14 -11 25 -17 17 -10 20 -20 17
-74 -1 -35 -8 -68 -16 -75 -7 -8 -26 -33 -41 -57 -15 -24 -56 -65 -91 -93 -35
-27 -63 -56 -64 -62 0 -7 -7 -13 -15 -13 -8 0 -15 -7 -15 -15 0 -9 -10 -20
-22 -25 -21 -8 -21 -9 -3 -10 15 0 17 -2 6 -9 -11 -7 -10 -11 5 -20 17 -9 17
-10 2 -11 -9 0 -20 -5 -23 -10 -6 -9 50 -6 82 5 7 2 15 0 18 -5 4 -6 0 -10 -9
-10 -8 0 -16 -5 -18 -11 -2 -5 -15 -12 -28 -14 -26 -3 -103 -29 -123 -42 -6
-4 -21 -8 -34 -10 -13 -2 -35 -5 -49 -6 -14 -2 -29 -10 -34 -17 -4 -7 -13 -9
-19 -5 -7 4 -18 1 -26 -5 -8 -6 -24 -9 -35 -5 -14 5 -25 1 -33 -10 -12 -15
-55 -28 -104 -29 -11 -1 -19 -4 -17 -7 4 -7 -29 -20 -61 -24 -11 -1 -33 -7
-50 -14 -16 -7 -40 -10 -52 -8 -14 3 -23 -1 -23 -8 0 -16 -24 -26 -75 -32 -22
-2 -41 -9 -43 -14 -2 -5 -12 -9 -22 -9 -10 0 -21 -4 -24 -8 -3 -5 -22 -9 -42
-10 -21 -1 -42 -6 -48 -12 -5 -5 -19 -10 -31 -10 -11 0 -29 -6 -40 -13 -11 -8
-42 -20 -70 -27 -27 -7 -54 -16 -60 -20 -5 -4 -25 -11 -42 -15 -18 -3 -33 -11
-33 -16 0 -6 -9 -7 -20 -4 -11 3 -20 2 -20 -3 0 -6 -7 -13 -16 -16 -8 -3 -13
-2 -10 3 4 5 -3 7 -14 4 -11 -3 -20 -9 -20 -14 0 -5 -9 -9 -20 -9 -11 0 -20
-3 -20 -7 0 -5 -14 -9 -32 -10 -17 -1 -34 -7 -37 -12 -4 -5 -18 -11 -33 -13
-15 -2 -30 -7 -34 -11 -4 -4 -17 -7 -28 -7 -12 0 -29 -7 -40 -15 -10 -8 -43
-20 -72 -26 -30 -7 -54 -16 -54 -21 0 -5 -4 -7 -9 -3 -5 3 -13 0 -16 -6 -4 -5
-13 -8 -21 -5 -8 3 -14 1 -14 -3 0 -5 -24 -15 -52 -21 -29 -7 -73 -23 -98 -35
-25 -12 -66 -28 -92 -35 -27 -7 -48 -16 -48 -20 0 -4 -13 -10 -29 -13 -16 -4
-49 -15 -73 -25 -24 -11 -63 -27 -88 -37 -81 -31 -138 -62 -177 -95 -7 -5 -17
-10 -24 -10 -14 0 -70 -47 -84 -71 -5 -10 -22 -37 -36 -61 -15 -24 -30 -59
-33 -79 -3 -20 -8 -43 -11 -52 -4 -8 3 -37 14 -62 12 -26 18 -51 15 -56 -3 -5
0 -9 6 -9 6 0 8 -5 5 -10 -4 -7 2 -9 18 -5 17 5 26 2 31 -10 5 -14 14 -16 44
-10 20 4 42 10 47 15 6 4 28 10 50 14 22 4 79 16 126 28 102 24 159 20 159
-13 0 -12 -14 -61 -30 -111 -17 -49 -39 -124 -50 -165 -11 -42 -27 -84 -35
-93 -8 -9 -15 -24 -15 -33 0 -9 -14 -37 -32 -62 -25 -35 -42 -48 -73 -56 -22
-5 -47 -13 -55 -16 -8 -3 -19 -7 -25 -7 -5 -1 -28 -10 -50 -20 -49 -22 -59
-24 -108 -25 -23 -1 -36 -5 -32 -11 4 -6 -7 -10 -24 -10 -21 0 -31 -5 -31 -15
0 -8 -5 -15 -11 -15 -5 0 -8 -4 -5 -8 2 -4 1 -14 -4 -22 -7 -12 -10 -12 -16 3
-6 16 -8 16 -25 -4 -11 -12 -19 -31 -19 -42 0 -15 -5 -18 -21 -14 -15 4 -19 2
-15 -10 3 -8 -1 -24 -9 -36 -20 -28 -19 -51 0 -43 13 4 14 2 5 -14 -6 -11 -15
-20 -20 -20 -6 0 -10 -4 -10 -10 0 -5 7 -10 15 -10 22 0 20 -56 -2 -69 -10 -6
-13 -11 -7 -11 7 0 14 -9 17 -20 4 -15 0 -20 -14 -20 -30 0 -22 -13 19 -32 20
-10 29 -16 20 -13 -21 5 -24 -15 -5 -34 9 -11 9 -12 0 -7 -9 5 -11 2 -7 -8 7
-19 20 -21 27 -3 4 9 8 9 14 1 4 -6 18 -14 30 -18 14 -4 20 -12 16 -22 -4 -10
0 -12 11 -8 9 3 16 2 16 -4 0 -6 -6 -13 -12 -15 -10 -4 -10 -6 0 -6 7 -1 15 5
18 13 4 11 13 12 36 5 17 -4 35 -6 41 -2 6 3 7 2 4 -4 -3 -5 12 -20 34 -33 35
-19 44 -21 64 -10 13 7 28 9 34 6 6 -4 11 -2 11 5 0 20 84 92 141 121 30 15
76 30 103 34 l48 7 -7 -44 c-7 -42 -37 -96 -62 -112 -7 -4 -13 -21 -13 -37 0
-19 -5 -30 -14 -30 -8 0 -16 -7 -20 -15 -3 -8 -15 -15 -26 -15 -12 0 -20 -6
-19 -12 4 -30 -2 -59 -10 -53 -5 3 -12 1 -16 -4 -3 -6 -12 -8 -20 -5 -8 4 -12
10 -9 15 3 5 -2 6 -10 3 -15 -6 -29 -50 -24 -75 2 -8 -7 -15 -19 -17 -14 -2
-23 -10 -23 -21 0 -26 -22 -51 -49 -56 -28 -5 -25 0 -40 -53 -9 -33 -16 -42
-28 -38 -12 5 -14 1 -11 -19 3 -13 1 -26 -5 -28 -5 -1 -9 -15 -9 -30 0 -22 -3
-25 -14 -16 -11 9 -14 5 -15 -25 -1 -20 -3 -51 -5 -68 -2 -18 -3 -50 -4 -70 0
-21 -5 -38 -10 -38 -6 0 -6 -9 0 -24 6 -18 5 -28 -5 -36 -10 -9 -14 -7 -17 7
-3 10 -5 -4 -6 -32 -1 -29 4 -53 11 -58 9 -7 9 -10 0 -14 -7 -2 -13 -10 -13
-17 0 -6 -12 -19 -27 -28 -26 -16 -26 -17 -7 -18 12 0 24 -6 27 -14 4 -10 -1
-12 -16 -9 -22 4 -22 4 -2 -12 19 -15 19 -17 3 -26 -10 -6 -18 -19 -18 -29 0
-11 -7 -20 -15 -20 -8 0 -15 -7 -15 -16 0 -8 -4 -12 -10 -9 -5 3 -10 -1 -10
-9 0 -9 7 -16 15 -16 13 0 14 -4 3 -23 -6 -12 -12 -30 -13 -41 -2 -15 3 -17
32 -13 24 4 33 2 30 -6 -3 -7 -10 -11 -16 -10 -6 2 -11 -3 -11 -11 0 -19 40
-47 54 -39 6 4 6 0 -1 -8 -13 -16 -6 -62 8 -54 4 3 24 -1 43 -9 19 -8 37 -12
40 -9 3 3 12 0 21 -7 9 -7 15 -8 15 -2 0 12 42 3 51 -11 4 -5 14 -5 25 1 11 6
45 18 76 28 31 9 59 23 62 30 3 8 11 14 18 14 16 0 107 83 124 113 7 12 18 33
25 47 6 14 15 33 21 43 5 11 11 51 14 90 2 40 1 66 -2 60 -3 -7 -18 -13 -34
-13 -21 0 -30 6 -37 28 -6 15 -16 43 -23 62 -20 57 -23 77 -10 85 17 11 37
-12 23 -26 -24 -24 21 -109 59 -109 35 0 14 83 -32 125 -11 10 -20 24 -20 30
0 7 -7 19 -16 26 -12 10 -15 24 -10 59 14 109 50 166 124 192 17 7 32 16 32
20 0 4 7 8 15 8 26 0 94 82 116 140 37 98 70 243 76 331 5 72 3 92 -15 131
-33 76 -60 83 -282 81 -130 -1 -187 2 -192 10 -4 7 -8 35 -8 62 0 76 20 94
180 167 30 13 74 33 97 44 24 10 43 22 43 27 0 4 5 7 12 7 6 0 20 8 31 18 19
16 20 16 15 -3 -4 -15 0 -21 12 -21 12 0 15 6 12 19 -4 16 -1 18 19 12 13 -4
28 -14 34 -22 10 -14 98 -26 90 -12 -3 4 -1 10 5 14 5 3 10 -1 10 -9 0 -19 11
-21 28 -4 9 9 13 8 17 -4 4 -10 15 -13 30 -10 14 2 22 8 20 13 -3 4 7 2 21 -6
15 -8 30 -12 34 -10 3 2 29 6 58 10 43 4 52 3 52 -10 0 -9 9 -15 23 -15 13 0
28 -5 34 -11 8 -8 17 -8 33 1 20 11 21 10 15 -9 -7 -24 0 -27 20 -7 8 7 11 17
7 21 -4 4 3 2 15 -6 18 -11 25 -11 35 -1 17 17 38 15 38 -3 0 -8 5 -15 10 -15
6 0 10 6 10 13 0 8 4 7 10 -3 8 -12 10 -11 10 6 0 19 5 21 38 18 31 -3 33 -2
15 6 -29 12 -31 40 -3 33 14 -4 20 0 20 10 0 9 -8 18 -17 20 -14 4 -13 5 4 6
12 0 26 -6 31 -15 8 -15 10 -15 15 0 4 9 14 16 24 16 15 0 16 -2 3 -10 -12 -8
-11 -10 8 -10 13 0 22 6 22 15 0 8 -9 15 -20 15 -11 0 -20 7 -20 15 0 8 7 15
15 15 8 0 15 -4 15 -10 0 -5 11 -10 25 -10 14 0 24 -3 24 -7 -5 -31 3 -37 20
-16 10 12 22 19 26 15 4 -4 5 5 1 20 -7 32 1 58 20 58 8 0 14 5 14 10 0 6 -9
10 -19 10 -11 0 -22 4 -26 9 -7 12 35 26 44 14 3 -4 20 -9 36 -9 17 -1 24 1
18 3 -7 3 -13 11 -13 19 0 15 31 19 45 5 6 -5 19 -5 30 -1 18 8 17 9 -7 9 -17
1 -28 7 -28 15 0 8 -2 20 -3 28 -2 7 -2 10 0 6 9 -16 21 -7 16 11 -3 10 0 22
6 25 7 4 11 -1 11 -12 0 -24 29 -37 44 -21 8 8 8 13 -1 16 -8 3 -3 13 13 28
21 19 30 22 45 14 11 -5 19 -20 19 -33 0 -24 17 -37 48 -35 11 0 12 2 5 6 -7
2 -13 12 -13 20 0 9 -6 13 -15 9 -8 -3 -15 -1 -15 4 0 6 7 10 15 10 8 0 15 7
15 16 0 11 -6 14 -20 9 -21 -7 -28 10 -7 18 7 3 5 6 -5 6 -18 1 -26 21 -9 21
5 0 18 3 28 7 10 3 15 3 11 -2 -4 -4 -2 -17 3 -28 9 -16 13 -17 20 -6 6 11 11
11 20 2 10 -10 9 -14 -4 -19 -21 -8 -23 -44 -2 -44 8 0 19 17 25 42 14 48 35
75 43 54 3 -8 3 -23 0 -34 -6 -25 11 -36 34 -23 16 9 15 10 -6 11 -17 0 -21 3
-14 13 16 20 13 60 -5 73 -14 10 -12 11 12 9 15 -2 30 -6 33 -9 9 -8 33 14 33
30 0 8 -8 14 -17 15 -10 0 -13 3 -6 5 7 3 9 12 6 21 -4 11 -2 14 5 9 7 -4 12
-2 12 3 0 6 4 11 8 11 13 0 10 -30 -2 -30 -6 0 -3 -5 8 -11 14 -9 20 -8 27 2
4 7 6 16 3 20 -2 4 4 10 13 12 14 4 13 5 -4 6 -26 1 -31 19 -9 27 12 5 11 9
-4 24 -11 11 -16 27 -13 43 6 29 -25 52 -57 42 -14 -5 -20 -2 -20 10 0 9 5 13
10 10 6 -4 17 -1 25 5 23 19 42 5 49 -34 7 -34 36 -53 36 -23 0 7 9 23 20 35
25 26 25 32 2 32 -14 0 -17 8 -15 48 2 36 0 41 -6 22 l-8 -25 -10 25 c-7 15
-7 30 -2 36 6 7 4 22 -5 39 -8 15 -12 34 -9 43 4 9 2 13 -4 9 -5 -3 -10 1 -10
9 0 9 6 13 14 9 8 -3 22 -5 31 -6 14 0 13 -2 -2 -8 -18 -7 -18 -8 -2 -14 10
-4 19 -1 22 8 4 8 12 15 20 15 8 0 14 5 14 12 0 8 6 7 16 -4 9 -9 16 -32 16
-53 0 -20 2 -34 4 -32 9 8 10 77 2 77 -4 0 -8 6 -8 14 0 8 -6 17 -12 19 -8 3
-7 6 4 6 23 1 32 19 18 36 -8 10 -9 15 -2 15 6 0 9 6 6 14 -3 9 -13 12 -22 9
-9 -4 -14 -3 -10 2 4 4 3 14 -4 22 -8 11 -7 12 5 8 9 -4 21 2 30 15 9 12 20
19 26 16 5 -4 14 2 20 11 15 28 23 9 8 -20 -11 -21 -16 -24 -26 -14 -9 9 -14
9 -21 -3 -7 -11 -4 -16 13 -20 15 -4 18 -8 9 -14 -17 -10 -15 -26 3 -26 8 0
15 9 15 20 0 10 9 24 21 30 18 10 20 17 14 61 -5 32 -3 49 4 49 6 0 8 -6 5
-14 -3 -8 -1 -17 5 -20 6 -4 8 -13 5 -20 -6 -17 17 -26 45 -19 26 7 28 23 2
23 -14 0 -18 7 -17 24 0 13 5 22 9 19 4 -3 13 0 20 6 10 7 13 5 14 -11 2 -25
9 -32 22 -23 6 3 9 20 6 36 -5 26 -3 28 9 17 10 -9 11 -15 2 -20 -6 -5 -2 -8
11 -8 27 0 34 10 26 39 -4 14 -11 20 -20 17 -9 -4 -13 -1 -10 6 2 7 12 13 21
13 10 0 22 9 28 19 8 14 12 16 19 5 4 -7 3 -19 -2 -25 -7 -8 -6 -14 1 -19 5
-3 10 -17 10 -30 0 -19 -4 -23 -17 -18 -14 4 -15 3 -7 -6 7 -8 18 -9 35 -2 13
5 18 10 12 10 -31 2 7 91 39 91 9 0 19 4 23 9 3 6 17 6 36 -1 16 -6 33 -8 36
-4 4 3 -1 6 -10 6 -33 0 -16 20 18 22 19 0 41 1 48 2 6 1 11 -4 10 -10 -1 -7
7 -14 17 -17 15 -4 20 0 20 13 0 13 5 17 20 13 11 -3 20 0 20 6 0 6 -4 11 -10
11 -23 0 -8 18 19 23 20 4 31 13 33 28 2 12 10 24 18 26 12 4 12 3 2 -5 -11
-7 -10 -11 5 -16 17 -7 17 -8 0 -21 -17 -12 -16 -14 20 -24 50 -14 53 -14 47
4 -4 9 0 15 9 15 9 0 18 -10 20 -22 4 -20 4 -19 6 4 1 25 41 63 41 39 0 -5 -5
-11 -11 -13 -6 -2 0 -9 15 -16 22 -10 26 -9 26 3 0 8 -4 15 -9 15 -5 0 -7 9
-4 20 3 11 9 20 13 20 5 0 6 -9 3 -20 -3 -11 0 -20 6 -20 6 0 11 9 11 20 0 22
20 26 38 8 10 -10 15 -10 22 2 5 8 10 11 10 7 0 -4 8 -3 18 2 16 8 17 5 14
-27 -2 -30 -1 -34 8 -19 6 9 8 22 5 27 -3 6 -2 10 3 10 6 0 9 8 8 17 0 12 7
19 22 21 12 2 22 8 22 13 0 5 5 9 10 9 6 0 10 -7 10 -16 0 -8 5 -12 10 -9 16
10 11 43 -7 48 -11 3 -7 5 10 6 28 1 35 19 15 39 -9 9 -8 12 5 12 9 0 17 -8
17 -17 0 -11 3 -14 8 -7 4 6 14 14 22 17 10 4 8 6 -7 6 -13 1 -23 5 -23 10 0
5 -9 7 -20 4 -11 -3 -20 -12 -20 -19 0 -8 -8 -14 -17 -13 -11 0 -13 3 -5 6 23
9 12 23 -13 17 -15 -4 -25 -2 -25 5 0 6 6 8 14 5 8 -3 19 3 25 14 6 11 7 22 2
24 -5 2 -12 18 -16 37 -6 28 -5 33 8 28 8 -3 20 0 26 6 8 8 11 8 11 -1 0 -7 8
-12 18 -11 10 0 12 3 4 6 -13 5 -47 63 -44 75 1 4 -10 11 -26 14 -39 10 -57
25 -40 35 19 13 26 11 31 -8 2 -10 4 -4 4 14 0 25 -5 33 -21 35 -18 3 -20 9
-18 40 3 28 -2 42 -20 60 -20 20 -21 23 -5 26 22 4 22 20 0 18 -12 -1 -17 6
-16 18 1 13 -2 15 -10 7 -19 -19 -27 -12 -27 24 0 24 -5 35 -15 35 -8 0 -15 5
-15 11 0 5 -4 8 -8 5 -4 -2 -9 4 -9 15 -1 10 -12 33 -23 50 -18 25 -21 38 -15
75 4 30 2 50 -6 60 -17 20 -5 28 14 9 15 -14 18 -14 37 5 22 22 27 50 8 51 -7
0 -4 4 7 8 11 5 26 6 33 4 18 -8 14 -33 -5 -33 -12 0 -8 -5 11 -15 20 -11 32
-12 36 -5 4 6 15 8 25 4 12 -5 16 -4 12 3 -4 6 1 19 10 29 17 17 18 16 24 -12
l7 -29 1 28 c1 21 -5 30 -19 34 -22 6 -27 23 -7 23 6 0 4 5 -5 11 -10 5 -18
18 -18 27 -1 16 -2 16 -14 0 -16 -22 -36 -23 -36 -3 0 8 6 12 14 9 9 -3 18 6
25 28 9 26 9 30 -1 20 -15 -15 -32 -16 -22 0 5 8 2 9 -10 5 -10 -4 -15 -3 -11
3 3 6 13 10 21 10 8 0 14 7 14 16 0 18 30 75 45 86 15 11 -7 10 -24 -1 -7 -5
-10 -14 -7 -20 11 -17 -10 -13 -29 5 -10 10 -13 24 -9 38 5 17 4 19 -7 9 -10
-10 -10 -18 -1 -38 15 -32 15 -55 1 -55 -6 0 -8 8 -4 19 5 15 -2 24 -27 37
-26 14 -29 19 -15 22 12 2 16 9 13 19 -3 8 -6 17 -6 19 0 2 -7 4 -15 4 -8 0
-15 8 -15 18 0 9 -7 30 -15 45 -8 15 -9 25 -3 21 7 -5 8 -3 4 5 -5 7 -15 10
-23 7 -12 -5 -14 -1 -10 14 3 11 1 23 -4 26 -5 3 -9 -9 -9 -26 0 -23 -6 -33
-22 -39 -29 -11 -49 -3 -46 17 2 8 -3 17 -9 19 -7 3 -13 0 -13 -6 0 -6 -4 -11
-10 -11 -5 0 -10 7 -10 15 0 9 -9 15 -25 15 -39 0 -40 0 -37 -16 4 -22 -6 -17
-38 19 -29 32 -29 32 -30 8z m-395 -131 c-3 -5 -10 -10 -16 -10 -5 0 -9 5 -9
10 0 6 7 10 16 10 8 0 12 -4 9 -10z m715 -280 c0 -5 -5 -10 -11 -10 -5 0 -7 5
-4 10 3 6 8 10 11 10 2 0 4 -4 4 -10z m90 -15 c7 -14 10 -28 7 -32 -4 -3 -7 1
-7 10 0 10 -8 17 -20 17 -13 0 -18 5 -14 15 9 22 19 19 34 -10z m-3344 -383
c-12 -11 -18 7 -10 30 l8 23 4 -23 c2 -13 1 -26 -2 -30z m-702 -12 c-6 -5 -24
21 -24 34 0 6 6 1 14 -10 8 -10 12 -21 10 -24z m123 4 c0 -7 -10 -10 -23 -8
-14 3 -27 -2 -34 -13 -11 -17 -11 -17 -6 0 3 10 6 21 6 23 0 2 7 4 15 4 8 0
15 7 15 15 0 13 3 13 13 3 8 -7 14 -18 14 -24z m517 3 c7 -6 6 -7 -4 -4 -8 2
-16 12 -17 23 -2 13 -1 15 4 4 3 -8 11 -19 17 -23z m-454 -2 c0 -1 -12 -2 -26
-2 -17 0 -22 2 -13 7 10 7 39 3 39 -5z m-492 -26 c2 -13 -1 -19 -5 -13 -4 6
-17 14 -28 18 -16 6 -17 9 -5 16 22 14 35 7 38 -21z m64 3 c3 -21 0 -28 -13
-28 -10 0 -15 4 -13 8 3 4 -1 8 -8 9 -10 0 -10 2 0 6 6 2 12 11 12 19 0 26 18
15 22 -14z m175 -28 c-3 -3 -12 -4 -19 -1 -8 3 -5 6 6 6 11 1 17 -2 13 -5z
m-167 -94 c0 -5 -4 -10 -10 -10 -5 0 -10 5 -10 10 0 6 5 10 10 10 6 0 10 -4
10 -10z m4327 -104 c-5 -15 -47 -16 -47 -1 0 18 9 23 31 18 11 -3 18 -11 16
-17z m-7 -71 c0 -9 -9 -15 -25 -15 -26 0 -34 15 -12 23 23 10 37 7 37 -8z
m-90 -139 c0 -2 -7 -7 -16 -10 -8 -3 -12 -2 -9 4 6 10 25 14 25 6z m-10 -40
c0 -3 -4 -8 -10 -11 -5 -3 -10 -1 -10 4 0 6 5 11 10 11 6 0 10 -2 10 -4z
m-483 -38 c-3 -8 -6 -5 -6 6 -1 11 2 17 5 13 3 -3 4 -12 1 -19z m203 2 c0 -5
-4 -10 -10 -10 -5 0 -10 5 -10 10 0 6 5 10 10 10 6 0 10 -4 10 -10z m130 -19
c0 -5 -9 -7 -20 -4 -11 3 -20 7 -20 9 0 2 9 4 20 4 11 0 20 -4 20 -9z m-383
-83 c-3 -7 -5 -2 -5 12 0 14 2 19 5 13 2 -7 2 -19 0 -25z m-37 -18 c0 -5 -7
-10 -15 -10 -8 0 -15 5 -15 10 0 6 7 10 15 10 8 0 15 -4 15 -10z m-130 -40 c0
-5 -2 -10 -4 -10 -3 0 -8 5 -11 10 -3 6 -1 10 4 10 6 0 11 -4 11 -10z m-300
-180 c0 -5 -4 -10 -10 -10 -5 0 -10 5 -10 10 0 6 5 10 10 10 6 0 10 -4 10 -10z
m3 -80 c-7 -28 -13 -25 -13 6 0 14 4 23 9 20 5 -3 7 -15 4 -26z m37 0 c0 -5
-7 -10 -15 -10 -8 0 -15 5 -15 10 0 6 7 10 15 10 8 0 15 -4 15 -10z m30 0 c0
-5 -5 -10 -11 -10 -5 0 -7 5 -4 10 3 6 8 10 11 10 2 0 4 -4 4 -10z m-80 -40
c0 -5 -4 -10 -10 -10 -5 0 -10 5 -10 10 0 6 5 10 10 10 6 0 10 -4 10 -10z
m-48 -87 c-10 -4 -8 -9 5 -20 17 -13 17 -13 -3 -4 -12 6 -24 8 -27 4 -4 -3 -1
6 6 20 8 18 15 23 22 15 7 -7 6 -12 -3 -15z m28 -57 c0 -2 -3 -11 -6 -20 -5
-13 -8 -13 -20 -1 -19 19 -18 25 6 25 11 0 20 -2 20 -4z m-29 -56 c5 0 9 -4 9
-9 0 -5 -16 -8 -35 -6 -19 2 -37 -1 -41 -6 -6 -11 -24 -2 -24 12 0 5 8 9 18
10 14 0 14 2 -3 9 -16 7 -17 9 -3 9 9 1 20 -3 23 -9 7 -12 26 -14 24 -2 -1 4
0 16 1 27 1 16 3 15 12 -7 5 -16 14 -28 19 -28z m59 -56 c0 -8 -4 -12 -10 -9
-5 3 -10 10 -10 16 0 5 5 9 10 9 6 0 10 -7 10 -16z m-165 -12 c-3 -3 -11 0
-18 7 -9 10 -8 11 6 5 10 -3 15 -9 12 -12z m39 -34 c-10 -16 -22 -7 -17 13 4
15 8 17 14 8 4 -7 5 -17 3 -21z m56 14 c0 -10 -21 -32 -31 -32 -6 0 -6 19 0
38 2 6 31 1 31 -6z m-37 -40 c15 -2 27 -10 27 -18 0 -20 -16 -26 -29 -10 -6 7
-24 12 -40 10 -25 -3 -28 0 -24 17 4 14 11 18 22 13 9 -4 28 -9 44 -12z m-69
-39 c10 4 16 1 16 -8 0 -8 -9 -15 -20 -15 -11 0 -20 5 -20 10 0 6 -10 10 -22
11 -22 0 -22 1 -3 8 12 5 23 4 26 -2 4 -5 14 -7 23 -4z m129 -3 c-3 -11 -12
-20 -19 -20 -16 0 -16 2 -8 24 9 24 33 20 27 -4z m-55 -27 c-10 -2 -18 -9 -18
-15 0 -6 -3 -9 -6 -5 -10 10 6 27 24 26 15 -1 15 -2 0 -6z m-58 -38 c0 -8 -4
-15 -10 -15 -5 0 -7 7 -4 15 4 8 8 15 10 15 2 0 4 -7 4 -15z m-12 -51 c-2 -1
-15 0 -30 3 -23 4 -25 8 -15 23 10 18 12 18 29 -2 10 -12 17 -22 16 -24z
m-223 -24 c3 -5 1 -10 -4 -10 -6 0 -11 5 -11 10 0 6 2 10 4 10 3 0 8 -4 11
-10z m215 -5 c0 -8 -7 -15 -15 -15 -9 0 -12 6 -9 15 4 8 10 15 15 15 5 0 9 -7
9 -15z m-230 -75 c0 -5 -5 -10 -11 -10 -5 0 -7 5 -4 10 3 6 8 10 11 10 2 0 4
-4 4 -10z m-100 -44 c0 -2 -7 -6 -15 -10 -8 -3 -15 -1 -15 4 0 6 7 10 15 10 8
0 15 -2 15 -4z m-20 -51 c0 -8 -7 -15 -15 -15 -8 0 -15 7 -15 15 0 8 7 15 15
15 8 0 15 -7 15 -15z m-122 -45 c7 -11 9 -20 4 -20 -10 0 -32 22 -32 32 0 15
15 8 28 -12z m42 -23 c-8 -7 -14 -22 -12 -34 3 -18 -1 -23 -20 -23 -22 1 -22
1 -4 15 11 8 17 18 13 21 -9 9 12 34 27 34 6 0 4 -6 -4 -13z m26 -84 c-3 -8
-6 -17 -6 -21 0 -3 -6 3 -14 13 -17 23 -12 37 10 28 8 -3 13 -12 10 -20z
m-879 -655 c-3 -7 -5 -2 -5 12 0 14 2 19 5 13 2 -7 2 -19 0 -25z m-783 -1113
c-4 -8 -13 -15 -22 -15 -13 0 -12 3 4 15 24 18 25 18 18 0z"/>
<path d="M11002 6368 c5 -15 28 -23 28 -10 0 5 -7 13 -16 16 -10 4 -14 1 -12
-6z"/>
<path d="M9528 6353 c7 -3 16 -2 19 1 4 3 -2 6 -13 5 -11 0 -14 -3 -6 -6z"/>
<path d="M9438 6323 c7 -3 16 -2 19 1 4 3 -2 6 -13 5 -11 0 -14 -3 -6 -6z"/>
<path d="M11000 6310 c0 -5 4 -10 9 -10 6 0 13 5 16 10 3 6 -1 10 -9 10 -9 0
-16 -4 -16 -10z"/>
<path d="M10100 6277 c0 -20 4 -38 9 -42 6 -3 7 10 4 32 -8 50 -13 55 -13 10z"/>
<path d="M10860 6250 c0 -5 7 -10 15 -10 8 0 15 5 15 10 0 6 -7 10 -15 10 -8
0 -15 -4 -15 -10z"/>
<path d="M10146 6203 c-6 -14 -5 -15 5 -6 7 7 10 15 7 18 -3 3 -9 -2 -12 -12z"/>
<path d="M10858 6183 c22 -9 13 -23 -15 -23 -17 0 -23 -4 -17 -9 5 -5 21 -7
37 -4 35 7 39 43 5 42 -13 0 -17 -3 -10 -6z"/>
<path d="M10225 6049 c-4 -6 -5 -12 -2 -15 2 -3 7 2 10 11 7 17 1 20 -8 4z"/>
<path d="M8720 6040 c0 -5 5 -10 10 -10 6 0 10 5 10 10 0 6 -4 10 -10 10 -5 0
-10 -4 -10 -10z"/>
<path d="M10410 6040 c0 -5 5 -10 10 -10 6 0 10 5 10 10 0 6 -4 10 -10 10 -5
0 -10 -4 -10 -10z"/>
<path d="M10160 6025 c0 -3 7 -14 16 -23 15 -14 16 -14 13 3 -4 17 -29 35 -29
20z"/>
<path d="M10206 5965 c-3 -8 -1 -15 4 -15 6 0 10 7 10 15 0 8 -2 15 -4 15 -2
0 -6 -7 -10 -15z"/>
<path d="M10446 5884 c-9 -24 -4 -24 18 -3 16 16 17 19 4 19 -9 0 -19 -7 -22
-16z"/>
<path d="M10641 5891 c-8 -5 -10 -14 -6 -21 6 -9 10 -8 17 4 12 21 7 28 -11
17z"/>
<path d="M10675 5881 c-3 -5 -1 -12 5 -16 5 -3 10 1 10 9 0 18 -6 21 -15 7z"/>
<path d="M10605 5870 c-3 -5 -1 -10 4 -10 6 0 11 5 11 10 0 6 -2 10 -4 10 -3
0 -8 -4 -11 -10z"/>
<path d="M10690 5841 c0 -5 9 -7 20 -4 11 3 20 7 20 9 0 2 -9 4 -20 4 -11 0
-20 -4 -20 -9z"/>
<path d="M10130 5831 c0 -6 4 -13 10 -16 6 -3 7 1 4 9 -7 18 -14 21 -14 7z"/>
<path d="M10190 5830 c0 -5 5 -10 10 -10 6 0 10 5 10 10 0 6 -4 10 -10 10 -5
0 -10 -4 -10 -10z"/>
<path d="M10245 5830 c3 -5 11 -10 16 -10 6 0 7 5 4 10 -3 6 -11 10 -16 10 -6
0 -7 -4 -4 -10z"/>
<path d="M10080 5775 c-14 -16 -3 -20 19 -6 8 5 9 11 3 15 -5 3 -15 -1 -22 -9z"/>
<path d="M10730 5680 c0 -5 4 -11 10 -15 5 -3 6 -13 3 -22 -4 -11 -3 -14 5 -9
17 10 15 43 -3 50 -8 3 -15 1 -15 -4z"/>
<path d="M5652 5630 c13 -20 28 -27 28 -12 0 4 -9 13 -20 20 -19 12 -20 11 -8
-8z"/>
<path d="M5596 5627 c3 -10 9 -15 12 -12 3 3 0 11 -7 18 -10 9 -11 8 -5 -6z"/>
<path d="M5620 5620 c0 -5 5 -10 11 -10 5 0 7 5 4 10 -3 6 -8 10 -11 10 -2 0
-4 -4 -4 -10z"/>
<path d="M5771 5614 c0 -11 3 -14 6 -6 3 7 2 16 -1 19 -3 4 -6 -2 -5 -13z"/>
<path d="M5890 5616 c0 -9 4 -16 9 -16 5 0 11 -8 13 -17 2 -10 6 -13 10 -8 3
6 -2 21 -13 34 -14 18 -19 19 -19 7z"/>
<path d="M5940 5621 c0 -6 4 -13 10 -16 6 -3 7 1 4 9 -7 18 -14 21 -14 7z"/>
<path d="M6430 5576 c0 -8 6 -16 14 -19 10 -4 12 0 9 14 -6 22 -23 26 -23 5z"/>
<path d="M10686 5563 c-6 -14 -5 -15 5 -6 7 7 10 15 7 18 -3 3 -9 -2 -12 -12z"/>
<path d="M10720 5540 c-11 -7 -12 -12 -4 -20 8 -8 13 -6 17 9 3 12 4 21 4 21
-1 0 -9 -5 -17 -10z"/>
<path d="M10160 5480 c0 -5 5 -10 10 -10 6 0 10 5 10 10 0 6 -4 10 -10 10 -5
0 -10 -4 -10 -10z"/>
<path d="M5610 5467 c8 -7 20 -19 27 -26 10 -11 11 -10 7 7 -3 11 -16 23 -27
26 -19 4 -20 3 -7 -7z"/>
<path d="M5714 5420 c2 -20 -2 -30 -13 -33 -15 -4 -15 -5 0 -6 10 -1 19 -13
23 -32 3 -18 10 -28 16 -24 8 5 7 11 -1 21 -9 11 -8 18 1 29 10 12 10 19 2 27
-7 7 -12 20 -12 30 0 10 -4 18 -10 18 -5 0 -8 -13 -6 -30z"/>
<path d="M10661 5414 c0 -11 3 -14 6 -6 3 7 2 16 -1 19 -3 4 -6 -2 -5 -13z"/>
<path d="M5747 5366 c-6 -15 1 -26 15 -26 4 0 8 9 8 20 0 23 -15 27 -23 6z"/>
<path d="M10208 5353 c7 -3 16 -2 19 1 4 3 -2 6 -13 5 -11 0 -14 -3 -6 -6z"/>
<path d="M10260 5282 c0 -4 10 -9 22 -9 18 -2 20 0 8 7 -18 12 -30 13 -30 2z"/>
<path d="M10611 5274 c0 -11 3 -14 6 -6 3 7 2 16 -1 19 -3 4 -6 -2 -5 -13z"/>
<path d="M10234 5222 c-6 -4 -7 -18 -3 -32 6 -23 7 -23 8 -3 1 12 6 23 13 25
7 3 8 7 2 11 -5 3 -15 3 -20 -1z"/>
<path d="M10275 5210 c-8 -13 -1 -24 14 -19 6 3 7 10 2 18 -6 10 -10 10 -16 1z"/>
<path d="M5828 5193 c7 -3 16 -2 19 1 4 3 -2 6 -13 5 -11 0 -14 -3 -6 -6z"/>
<path d="M10500 5180 c0 -5 5 -10 10 -10 6 0 10 5 10 10 0 6 -4 10 -10 10 -5
0 -10 -4 -10 -10z"/>
<path d="M10593 5173 c-16 -3 -23 -11 -22 -26 1 -17 2 -18 6 -4 4 15 22 22 46
18 5 -1 6 3 2 9 -3 5 -7 9 -8 9 -1 -1 -12 -4 -24 -6z"/>
<path d="M10565 5101 c-3 -5 -1 -12 5 -16 5 -3 10 1 10 9 0 18 -6 21 -15 7z"/>
<path d="M10408 5093 c6 -2 18 -2 25 0 6 3 1 5 -13 5 -14 0 -19 -2 -12 -5z"/>
<path d="M10280 5086 c0 -9 30 -14 35 -6 4 6 -3 10 -14 10 -12 0 -21 -2 -21
-4z"/>
<path d="M10600 5030 c0 -5 5 -10 10 -10 6 0 10 5 10 10 0 6 -4 10 -10 10 -5
0 -10 -4 -10 -10z"/>
<path d="M10250 5020 c-13 -8 -12 -10 3 -10 9 0 17 5 17 10 0 12 -1 12 -20 0z"/>
<path d="M10172 4984 c-24 -28 -23 -40 1 -31 8 3 17 17 19 31 3 14 5 26 4 26
0 0 -11 -12 -24 -26z"/>
<path d="M10051 4984 c0 -11 3 -14 6 -6 3 7 2 16 -1 19 -3 4 -6 -2 -5 -13z"/>
<path d="M10271 4978 c-1 -12 -6 -15 -18 -11 -10 3 -15 3 -12 -1 4 -4 16 -8
28 -11 11 -2 26 -7 31 -10 6 -3 10 1 10 9 0 9 -6 16 -14 16 -8 0 -17 6 -19 13
-3 7 -6 5 -6 -5z"/>
<path d="M10384 4969 c-18 -7 -18 -8 3 -8 12 -1 29 -8 37 -17 9 -8 16 -12 16
-7 0 19 -36 39 -56 32z"/>
<path d="M10351 4954 c0 -11 3 -14 6 -6 3 7 2 16 -1 19 -3 4 -6 -2 -5 -13z"/>
<path d="M10551 4957 c8 -7 20 -19 27 -27 11 -13 12 -13 6 4 -4 10 -2 21 5 25
7 5 -1 8 -19 9 -26 1 -29 -2 -19 -11z"/>
<path d="M9784 4926 c-8 -33 1 -44 31 -39 13 3 22 9 19 14 -3 5 -10 7 -15 3
-6 -3 -10 0 -8 7 5 43 -17 55 -27 15z"/>
<path d="M10103 4930 c1 -11 7 -20 14 -20 17 0 16 8 -1 26 -13 12 -15 12 -13
-6z"/>
<path d="M9976 4918 c3 -4 16 -7 29 -6 30 3 23 11 -9 13 -14 0 -22 -3 -20 -7z"/>
<path d="M10194 4917 c3 -10 6 -21 6 -23 0 -2 7 -4 15 -4 8 0 15 7 15 16 0 8
-5 12 -11 8 -6 -3 -16 0 -21 7 -8 11 -8 10 -4 -4z"/>
<path d="M10450 4919 c0 -5 5 -7 10 -4 6 3 10 8 10 11 0 2 -4 4 -10 4 -5 0
-10 -5 -10 -11z"/>
<path d="M10618 4907 c3 -11 -1 -23 -9 -28 -22 -14 -29 -11 -29 14 0 17 -2 19
-9 8 -9 -14 4 -49 24 -63 15 -11 2 -17 -27 -11 -16 3 -28 12 -28 20 0 8 -4 12
-9 9 -14 -9 -1 -44 18 -49 14 -4 14 -5 -1 -6 -10 0 -18 -5 -18 -10 0 -5 9 -7
20 -4 11 3 20 9 20 13 0 5 9 6 20 3 10 -3 26 2 35 11 15 14 15 16 1 16 -23 0
-20 37 4 43 27 7 28 53 1 53 -13 0 -17 -6 -13 -19z"/>
<path d="M9671 4903 c-1 -6 -9 -13 -18 -15 -11 -2 -14 -6 -8 -10 16 -10 38 7
32 23 -3 9 -6 9 -6 2z"/>
<path d="M10280 4898 c0 -9 7 -19 16 -22 15 -6 15 -4 3 11 -7 10 -15 20 -16
22 -2 2 -3 -3 -3 -11z"/>
<path d="M10531 4894 c0 -11 3 -14 6 -6 3 7 2 16 -1 19 -3 4 -6 -2 -5 -13z"/>
<path d="M9863 4876 c-13 -6 -23 -17 -23 -25 0 -11 3 -11 15 -1 8 6 19 9 24 6
5 -4 12 -2 16 4 3 5 1 10 -5 10 -6 0 -8 5 -5 10 3 6 5 9 3 9 -2 -1 -13 -6 -25
-13z"/>
<path d="M10324 4874 c3 -9 6 -18 6 -20 0 -11 29 -2 34 12 3 8 2 12 -3 9 -5
-3 -12 -1 -16 5 -10 16 -28 11 -21 -6z"/>
<path d="M9545 4871 c-3 -5 -1 -12 4 -15 5 -3 11 1 15 9 6 16 -9 21 -19 6z"/>
<path d="M10151 4856 c17 -18 18 -18 42 0 l23 19 -41 0 c-40 0 -41 -1 -24 -19z"/>
<path d="M10260 4850 c0 -5 5 -10 11 -10 5 0 7 5 4 10 -3 6 -8 10 -11 10 -2 0
-4 -4 -4 -10z"/>
<path d="M10427 4836 c-4 -10 -1 -13 8 -9 8 3 12 9 9 14 -7 12 -11 11 -17 -5z"/>
<path d="M10476 4834 c-4 -9 -4 -19 -1 -22 2 -3 7 3 11 12 4 9 4 19 1 22 -2 3
-7 -3 -11 -12z"/>
<path d="M10391 4804 c0 -11 3 -14 6 -6 3 7 2 16 -1 19 -3 4 -6 -2 -5 -13z"/>
<path d="M10416 4731 c-3 -5 1 -11 9 -14 9 -4 12 -1 8 9 -6 16 -10 17 -17 5z"/>
<path d="M9370 4720 c0 -5 5 -10 10 -10 6 0 10 5 10 10 0 6 -4 10 -10 10 -5 0
-10 -4 -10 -10z"/>
<path d="M9685 4719 c-4 -6 -5 -12 -2 -15 2 -3 7 2 10 11 7 17 1 20 -8 4z"/>
<path d="M10360 4698 c0 -20 5 -28 18 -29 15 0 15 -1 -2 -8 -14 -5 -16 -10 -8
-15 19 -12 32 3 30 34 -1 16 -6 26 -11 23 -5 -3 -13 1 -18 8 -6 10 -9 6 -9
-13z"/>
<path d="M10430 4688 c0 -7 4 -19 9 -26 7 -11 10 -10 15 3 3 9 4 21 0 26 -8
13 -24 11 -24 -3z"/>
<path d="M10480 4680 c0 -11 4 -20 9 -20 5 0 7 9 4 20 -3 11 -7 20 -9 20 -2 0
-4 -9 -4 -20z"/>
<path d="M9270 4670 c-8 -5 -10 -10 -5 -11 6 0 18 -2 28 -4 15 -3 16 -1 6 11
-14 16 -10 16 -29 4z"/>
<path d="M9376 4658 c3 -5 10 -6 15 -3 13 9 11 12 -6 12 -8 0 -12 -4 -9 -9z"/>
<path d="M10260 4660 c0 -5 5 -10 10 -10 6 0 10 5 10 10 0 6 -4 10 -10 10 -5
0 -10 -4 -10 -10z"/>
<path d="M10410 4655 c0 -9 38 -43 43 -38 3 2 -3 13 -14 24 -19 19 -29 24 -29
14z"/>
<path d="M12842 4646 c7 -8 15 -12 17 -11 5 6 -10 25 -20 25 -5 0 -4 -6 3 -14z"/>
<path d="M10310 4636 c0 -2 9 -6 20 -9 11 -3 18 -1 14 4 -5 9 -34 13 -34 5z"/>
<path d="M9240 4591 c0 -9 30 -24 36 -18 2 1 -6 8 -16 15 -11 7 -20 8 -20 3z"/>
<path d="M10378 4583 c7 -3 16 -2 19 1 4 3 -2 6 -13 5 -11 0 -14 -3 -6 -6z"/>
<path d="M10425 4581 c11 -5 23 -7 27 -4 4 2 5 -3 2 -11 -8 -20 13 -21 31 -2
12 12 10 15 -17 20 -44 9 -69 7 -43 -3z"/>
<path d="M10382 4533 c11 -3 15 -11 12 -21 -5 -14 -4 -14 4 -2 13 18 6 30 -16
29 -16 -1 -16 -2 0 -6z"/>
<path d="M9275 4520 c3 -5 8 -10 11 -10 2 0 4 5 4 10 0 6 -5 10 -11 10 -5 0
-7 -4 -4 -10z"/>
<path d="M9081 4491 c-10 -7 -11 -13 -2 -30 7 -11 16 -21 21 -21 6 0 10 -7 10
-16 0 -8 4 -13 8 -10 12 7 1 86 -12 86 -6 0 -17 -4 -25 -9z m24 -31 c3 -5 1
-10 -4 -10 -6 0 -11 5 -11 10 0 6 2 10 4 10 3 0 8 -4 11 -10z"/>
<path d="M10506 4493 c-11 -11 -6 -23 9 -23 8 0 15 4 15 9 0 13 -16 22 -24 14z"/>
<path d="M10318 4463 c7 -3 16 -2 19 1 4 3 -2 6 -13 5 -11 0 -14 -3 -6 -6z"/>
<path d="M10527 4440 c3 -11 12 -20 19 -20 18 0 18 8 0 26 -20 19 -25 18 -19
-6z"/>
<path d="M10431 4424 c0 -11 3 -14 6 -6 3 7 2 16 -1 19 -3 4 -6 -2 -5 -13z"/>
<path d="M9257 4401 c24 -23 33 -26 33 -13 0 5 -12 14 -27 21 l-28 13 22 -21z"/>
<path d="M10458 4413 c7 -3 16 -2 19 1 4 3 -2 6 -13 5 -11 0 -14 -3 -6 -6z"/>
<path d="M9134 4396 c-15 -12 -17 -17 -6 -27 6 -7 12 -21 12 -31 0 -19 15 -24
25 -9 3 5 -2 17 -11 26 -15 15 -15 17 1 35 21 23 8 27 -21 6z"/>
<path d="M10356 4395 c4 -8 10 -15 15 -15 5 0 9 7 9 15 0 8 -7 15 -15 15 -9 0
-12 -6 -9 -15z"/>
<path d="M9182 4345 c-1 -14 3 -25 8 -25 6 0 10 11 10 25 0 14 -4 25 -8 25 -4
0 -9 -11 -10 -25z"/>
<path d="M10288 4363 c7 -3 16 -2 19 1 4 3 -2 6 -13 5 -11 0 -14 -3 -6 -6z"/>
<path d="M10440 4346 c0 -8 4 -17 9 -20 5 -4 7 3 4 14 -6 23 -13 26 -13 6z"/>
<path d="M10481 4314 c-16 -7 -27 -20 -28 -33 -2 -30 25 -27 33 4 6 24 24 35
24 15 0 -5 7 -10 15 -10 9 0 12 6 9 15 -5 11 -2 13 10 9 17 -7 23 -54 6 -54
-5 0 -10 -4 -10 -10 0 -13 27 -13 35 0 4 6 1 26 -5 45 -12 38 -34 42 -89 19z"/>
<path d="M9160 4309 c0 -11 29 -44 34 -38 14 17 25 49 16 49 -5 0 -10 -5 -10
-12 0 -9 -3 -9 -12 0 -15 15 -28 15 -28 1z"/>
<path d="M9246 4301 c-3 -5 1 -11 9 -14 9 -4 12 -1 8 9 -6 16 -10 17 -17 5z"/>
<path d="M9365 4270 c3 -5 8 -10 11 -10 2 0 4 5 4 10 0 6 -5 10 -11 10 -5 0
-7 -4 -4 -10z"/>
<path d="M10490 4267 c0 -7 9 -13 20 -13 11 0 20 6 20 13 0 7 -9 13 -20 13
-11 0 -20 -6 -20 -13z"/>
<path d="M9350 4206 c0 -2 7 -7 16 -10 8 -3 12 -2 9 4 -6 10 -25 14 -25 6z"/>
<path d="M9208 4179 c-4 -11 1 -20 18 -28 15 -6 24 -7 24 -1 0 6 -6 10 -14 10
-8 0 -16 8 -18 18 -3 15 -4 15 -10 1z"/>
<path d="M9166 4135 c4 -8 8 -15 10 -15 2 0 4 7 4 15 0 8 -4 15 -10 15 -5 0
-7 -7 -4 -15z"/>
<path d="M10448 4124 c3 -18 7 -22 13 -13 4 7 6 16 3 20 -2 4 2 10 8 12 7 3 3
6 -8 6 -18 1 -20 -3 -16 -25z"/>
<path d="M9112 4106 c-10 -23 -7 -36 9 -36 5 0 6 7 2 16 -3 9 0 20 7 24 7 4 8
10 3 13 -6 4 -15 -4 -21 -17z"/>
<path d="M10408 4113 c7 -3 16 -2 19 1 4 3 -2 6 -13 5 -11 0 -14 -3 -6 -6z"/>
<path d="M10250 4099 c0 -5 5 -7 10 -4 6 3 10 8 10 11 0 2 -4 4 -10 4 -5 0
-10 -5 -10 -11z"/>
<path d="M10290 4082 c0 -5 17 -9 38 -9 32 -1 34 0 12 7 -35 11 -50 11 -50 2z"/>
<path d="M10535 4070 c-4 -6 -10 -8 -14 -6 -11 7 -36 -12 -28 -21 5 -4 12 -1
16 6 7 11 9 11 14 0 3 -11 10 -9 28 9 19 18 20 22 7 22 -9 0 -20 -5 -23 -10z"/>
<path d="M12100 4070 c-8 -5 -10 -10 -5 -10 6 0 17 5 25 10 8 5 11 10 5 10 -5
0 -17 -5 -25 -10z"/>
<path d="M10177 4049 c4 -13 8 -18 11 -10 2 7 -1 18 -6 23 -8 8 -9 4 -5 -13z"/>
<path d="M10300 4046 c0 -8 -4 -16 -9 -18 -5 -1 -3 -9 5 -16 12 -11 14 -8 14
18 0 16 -2 30 -5 30 -3 0 -5 -6 -5 -14z"/>
<path d="M10320 4044 c0 -8 5 -12 10 -9 6 3 10 10 10 16 0 5 -4 9 -10 9 -5 0
-10 -7 -10 -16z"/>
<path d="M10213 4023 c-15 -5 -18 -33 -4 -33 5 0 11 9 14 20 3 11 4 20 4 19
-1 0 -8 -3 -14 -6z"/>
<path d="M10468 4023 c7 -3 16 -2 19 1 4 3 -2 6 -13 5 -11 0 -14 -3 -6 -6z"/>
<path d="M10360 4014 c0 -4 11 -17 25 -30 18 -16 25 -19 25 -9 0 8 -4 15 -10
15 -5 0 -10 7 -10 15 0 8 -7 15 -15 15 -8 0 -15 -3 -15 -6z"/>
<path d="M11999 4003 c-11 -3 -15 -11 -12 -24 8 -28 28 -24 28 6 0 14 0 24 0
24 0 -1 -7 -3 -16 -6z"/>
<path d="M10347 3979 c4 -15 8 -17 14 -8 8 14 3 29 -11 29 -4 0 -6 -9 -3 -21z"/>
<path d="M10498 3993 c7 -3 16 -2 19 1 4 3 -2 6 -13 5 -11 0 -14 -3 -6 -6z"/>
<path d="M10450 3986 c0 -2 7 -6 15 -10 8 -3 15 -1 15 4 0 6 -7 10 -15 10 -8
0 -15 -2 -15 -4z"/>
<path d="M10561 3964 c0 -11 3 -14 6 -6 3 7 2 16 -1 19 -3 4 -6 -2 -5 -13z"/>
<path d="M8715 3941 c-3 -5 -1 -12 4 -15 5 -4 12 -2 16 4 4 6 11 7 17 4 7 -4
8 -2 4 4 -9 14 -33 16 -41 3z"/>
<path d="M8895 3940 c3 -5 8 -10 11 -10 2 0 4 5 4 10 0 6 -5 10 -11 10 -5 0
-7 -4 -4 -10z"/>
<path d="M8967 3939 c7 -7 15 -10 18 -7 3 3 -2 9 -12 12 -14 6 -15 5 -6 -5z"/>
<path d="M10403 3943 c9 -2 23 -2 30 0 6 3 -1 5 -18 5 -16 0 -22 -2 -12 -5z"/>
<path d="M8916 3913 c-6 -14 -5 -15 5 -6 7 7 10 15 7 18 -3 3 -9 -2 -12 -12z"/>
<path d="M10320 3920 c0 -5 5 -10 10 -10 6 0 10 5 10 10 0 6 -4 10 -10 10 -5
0 -10 -4 -10 -10z"/>
<path d="M11770 3891 c0 -10 6 -21 13 -24 7 -3 12 4 12 19 0 13 -6 24 -12 24
-7 0 -13 -9 -13 -19z"/>
<path d="M10510 3888 c0 -9 -6 -19 -12 -21 -7 -3 5 -5 27 -5 22 0 33 2 25 5
-8 4 -20 13 -27 22 -11 15 -12 14 -13 -1z"/>
<path d="M8701 3874 c0 -11 3 -14 6 -6 3 7 2 16 -1 19 -3 4 -6 -2 -5 -13z"/>
<path d="M11690 3880 c0 -5 5 -10 10 -10 6 0 10 5 10 10 0 6 -4 10 -10 10 -5
0 -10 -4 -10 -10z"/>
<path d="M11595 3837 c1 -11 7 -23 13 -25 17 -5 15 35 -1 41 -9 3 -13 -2 -12
-16z"/>
<path d="M8625 3820 c-3 -6 1 -7 9 -4 18 7 21 14 7 14 -6 0 -13 -4 -16 -10z"/>
<path d="M11540 3800 c0 -5 -9 -19 -20 -30 -11 -11 -20 -26 -20 -32 0 -7 10
-1 23 13 12 15 31 28 42 31 19 4 19 4 -2 16 -15 8 -23 9 -23 2z"/>
<path d="M10668 3783 c7 -3 16 -2 19 1 4 3 -2 6 -13 5 -11 0 -14 -3 -6 -6z"/>
<path d="M10650 3760 c0 -5 7 -10 15 -10 8 0 15 5 15 10 0 6 -7 10 -15 10 -8
0 -15 -4 -15 -10z"/>
<path d="M10687 3751 c-4 -17 -3 -21 5 -13 5 5 8 16 6 23 -3 8 -7 3 -11 -10z"/>
<path d="M11600 3750 c0 -5 5 -10 11 -10 5 0 7 5 4 10 -3 6 -8 10 -11 10 -2 0
-4 -4 -4 -10z"/>
<path d="M10515 3719 c-4 -6 -5 -12 -2 -15 2 -3 7 2 10 11 7 17 1 20 -8 4z"/>
<path d="M11300 3705 c0 -8 5 -15 10 -15 6 0 10 7 10 15 0 8 -4 15 -10 15 -5
0 -10 -7 -10 -15z"/>
<path d="M11126 3683 c-4 -9 -4 -18 -1 -21 3 -3 5 0 5 6 0 6 8 12 18 14 15 3
16 4 0 10 -10 4 -19 1 -22 -9z"/>
<path d="M10450 3676 c0 -10 9 -16 21 -16 24 0 21 23 -4 28 -10 2 -17 -3 -17
-12z"/>
<path d="M10907 3674 c3 -9 9 -11 12 -6 3 5 15 12 26 15 13 3 9 5 -12 6 -26 1
-31 -2 -26 -15z"/>
<path d="M10611 3664 c0 -11 3 -14 6 -6 3 7 2 16 -1 19 -3 4 -6 -2 -5 -13z"/>
<path d="M10878 3653 c7 -3 16 -2 19 1 4 3 -2 6 -13 5 -11 0 -14 -3 -6 -6z"/>
<path d="M6720 3330 c0 -5 5 -10 10 -10 6 0 10 5 10 10 0 6 -4 10 -10 10 -5 0
-10 -4 -10 -10z"/>
<path d="M11081 3324 c0 -11 3 -14 6 -6 3 7 2 16 -1 19 -3 4 -6 -2 -5 -13z"/>
<path d="M11116 3283 c-6 -14 -5 -15 5 -6 7 7 10 15 7 18 -3 3 -9 -2 -12 -12z"/>
<path d="M10985 3280 c-3 -5 -1 -10 4 -10 6 0 11 5 11 10 0 6 -2 10 -4 10 -3
0 -8 -4 -11 -10z"/>
<path d="M10933 3256 c9 -9 18 -22 18 -27 1 -5 2 -13 3 -18 0 -5 4 -13 8 -17
4 -4 4 -12 -1 -18 -13 -17 -22 -48 -12 -41 5 3 12 -1 15 -7 3 -7 4 -1 1 15 -5
25 2 32 28 28 17 -3 5 41 -13 46 -23 6 -25 14 -8 31 9 9 8 12 -4 12 -9 0 -25
3 -35 7 -17 7 -17 6 0 -11z"/>
<path d="M10870 3243 c0 -12 -6 -24 -12 -26 -8 -3 -7 -6 4 -6 23 -1 31 15 19
36 -9 16 -10 16 -11 -4z"/>
<path d="M10783 3199 c2 -22 -1 -43 -5 -45 -4 -3 -8 5 -8 17 0 16 -5 20 -20
16 -11 -3 -20 -1 -20 4 0 5 -4 9 -10 9 -14 0 -12 -37 3 -44 6 -3 3 -4 -8 -3
-11 1 -23 7 -27 12 -5 6 -12 5 -17 -5 -7 -9 -6 -17 1 -21 6 -4 2 -12 -12 -19
-25 -14 -39 -1 -40 35 0 16 -2 17 -9 5 -6 -8 -7 -18 -4 -22 2 -5 0 -14 -6 -21
-5 -7 -6 -19 -2 -26 6 -9 11 -10 15 -2 9 14 36 15 36 1 0 -5 -7 -7 -15 -4 -8
4 -15 1 -15 -5 0 -6 -13 -11 -29 -11 -16 0 -34 -7 -41 -15 -10 -12 -9 -15 4
-15 10 0 15 4 12 8 -3 4 10 9 27 9 18 1 39 3 47 5 9 2 14 -3 12 -11 -3 -12 0
-12 13 -1 10 8 30 11 60 6 38 -5 43 -4 33 8 -7 8 -15 13 -18 11 -3 -2 -11 3
-18 11 -11 12 -10 14 3 14 8 0 14 6 13 12 -2 7 8 14 20 16 20 3 23 0 18 -16
-8 -25 21 -52 30 -28 3 9 10 13 15 10 5 -3 9 -1 9 4 0 5 10 8 23 8 17 -1 23 5
25 28 4 34 -8 49 -28 35 -11 -8 -12 -12 -2 -16 14 -6 16 -43 2 -43 -5 0 -10 8
-10 18 -1 16 -1 16 -14 0 -13 -18 -36 -24 -36 -10 0 4 9 13 20 20 11 7 20 17
20 22 0 6 -9 10 -20 10 -11 0 -20 5 -20 11 0 6 9 8 20 4 16 -5 20 -2 20 17 0
17 -3 19 -9 9 -6 -9 -11 -10 -15 -2 -4 6 -4 16 -1 21 3 6 -1 10 -9 10 -11 0
-14 -10 -13 -41z m-28 -38 c3 -5 1 -12 -5 -16 -5 -3 -10 1 -10 9 0 18 6 21 15
7z m-55 -62 c0 -8 -29 -39 -36 -39 -2 0 -4 10 -4 23 0 16 6 23 20 23 11 0 20
-3 20 -7z"/>
<path d="M10750 3220 c0 -5 5 -10 10 -10 6 0 10 5 10 10 0 6 -4 10 -10 10 -5
0 -10 -4 -10 -10z"/>
<path d="M11023 3223 c-17 -6 -16 -21 2 -39 8 -9 15 -11 15 -5 0 6 9 11 21 11
12 0 19 5 16 13 -2 6 -12 11 -22 9 -10 -2 -14 1 -10 7 6 11 -1 13 -22 4z"/>
<path d="M10920 3199 c0 -18 -2 -19 -15 -9 -20 17 -32 4 -19 -18 14 -21 44
-28 54 -12 9 14 1 60 -11 60 -5 0 -9 -10 -9 -21z"/>
<path d="M10660 3200 c0 -6 7 -10 15 -10 8 0 15 2 15 4 0 2 -7 6 -15 10 -8 3
-15 1 -15 -4z"/>
<path d="M6717 3179 c7 -7 15 -10 18 -7 3 3 -2 9 -12 12 -14 6 -15 5 -6 -5z"/>
<path d="M10641 3164 c0 -11 3 -14 6 -6 3 7 2 16 -1 19 -3 4 -6 -2 -5 -13z"/>
<path d="M10570 3160 c0 -5 7 -10 15 -10 8 0 15 5 15 10 0 6 -7 10 -15 10 -8
0 -15 -4 -15 -10z"/>
<path d="M6886 3084 c-3 -9 -6 -16 -6 -17 0 -1 12 -3 28 -3 15 -1 21 1 15 3
-7 3 -13 11 -13 19 0 19 -16 18 -24 -2z"/>
<path d="M10496 3075 c-3 -9 0 -15 8 -15 8 0 16 7 20 15 3 9 0 15 -8 15 -8 0
-16 -7 -20 -15z"/>
<path d="M6886 3036 c9 -23 33 -28 27 -5 -3 10 -11 19 -19 19 -7 0 -11 -6 -8
-14z"/>
<path d="M10341 3034 c0 -11 3 -14 6 -6 3 7 2 16 -1 19 -3 4 -6 -2 -5 -13z"/>
<path d="M10521 3038 c-1 -9 -10 -20 -22 -23 -11 -4 -18 -9 -16 -12 3 -2 15 0
26 7 16 8 21 8 21 -1 0 -7 2 -10 5 -7 3 3 1 16 -4 29 -7 16 -10 19 -10 7z"/>
<path d="M10415 3020 c27 -12 35 -12 35 0 0 6 -12 10 -27 9 -25 0 -26 -1 -8
-9z"/>
<path d="M10011 2874 c0 -11 3 -14 6 -6 3 7 2 16 -1 19 -3 4 -6 -2 -5 -13z"/>
<path d="M6785 2069 c-11 -16 -1 -19 13 -3 7 8 8 14 3 14 -5 0 -13 -5 -16 -11z"/>
</g>
</svg>
