<?xml version="1.0" standalone="no"?>
<!DOCTYPE svg PUBLIC "-//W3C//DTD SVG 20010904//EN"
 "http://www.w3.org/TR/2001/REC-SVG-20010904/DTD/svg10.dtd">
<svg version="1.0" xmlns="http://www.w3.org/2000/svg"
 width="640.000000pt" height="640.000000pt" viewBox="0 0 640.000000 640.000000"
 preserveAspectRatio="xMidYMid meet">
<metadata>
Created by potrace 1.11, written by Peter Selinger 2001-2013
</metadata>
<g transform="translate(0.000000,640.000000) scale(0.100000,-0.100000)"
fill="#000000" stroke="none">
<path d="M1800 5459 c-211 -44 -418 -169 -509 -306 -36 -54 -43 -130 -15 -157
41 -42 175 3 341 116 150 101 306 143 495 136 l118 -5 112 -76 c176 -118 286
-159 333 -123 20 15 20 16 -14 80 -76 149 -251 278 -460 340 -78 23 -278 20
-401 -5z"/>
<path d="M4310 5100 c-124 -13 -259 -37 -332 -60 -123 -38 -228 -117 -228
-172 0 -10 12 -31 28 -47 l27 -29 115 18 c237 37 359 44 776 45 441 0 444 0
444 51 0 41 -105 103 -275 164 -87 31 -96 32 -280 35 -104 2 -228 0 -275 -5z"/>
<path d="M2238 4836 c-290 -78 -418 -637 -194 -844 52 -48 110 -67 180 -58
137 16 277 183 322 384 22 101 15 254 -16 335 -55 145 -169 216 -292 183z
m139 -108 c204 -95 209 -466 9 -671 -123 -127 -280 -122 -366 13 -172 268 12
719 280 682 19 -3 54 -14 77 -24z"/>
<path d="M4043 4621 c-183 -63 -318 -342 -285 -589 18 -135 81 -244 167 -290
47 -24 141 -21 198 7 94 46 183 158 227 286 86 251 11 532 -158 589 -58 20
-84 20 -149 -3z m152 -101 c207 -100 213 -465 11 -673 -90 -93 -197 -117 -287
-65 -143 84 -190 349 -98 547 86 186 231 260 374 191z"/>
<path d="M2440 2701 c-76 -7 -90 -14 -90 -45 0 -42 16 -46 161 -36 558 39
1104 -32 1399 -180 95 -48 133 -50 138 -9 4 32 -25 55 -130 104 -150 68 -344
118 -588 151 -132 18 -758 29 -890 15z"/>
<path d="M937 1726 c-21 -32 -31 -72 -22 -93 5 -13 12 1 25 47 10 36 17 66 16
68 -2 1 -10 -8 -19 -22z"/>
<path d="M2825 1390 c-50 -20 -53 -56 -9 -85 23 -15 24 -15 24 10 0 14 7 39
15 55 17 32 10 37 -30 20z"/>
<path d="M2797 959 c-44 -26 -37 -109 9 -109 22 0 24 3 17 28 -4 15 -8 42 -8
60 0 17 0 32 0 32 0 0 -8 -5 -18 -11z"/>
</g>
</svg>
