<?xml version="1.0" standalone="no"?>
<!DOCTYPE svg PUBLIC "-//W3C//DTD SVG 20010904//EN"
 "http://www.w3.org/TR/2001/REC-SVG-20010904/DTD/svg10.dtd">
<svg version="1.0" xmlns="http://www.w3.org/2000/svg"
 width="1700.000000pt" height="1700.000000pt" viewBox="0 0 1700.000000 1700.000000"
 preserveAspectRatio="xMidYMid meet">
<metadata>
Created by potrace 1.11, written by Peter Selinger 2001-2013
</metadata>
<g transform="translate(0.000000,1700.000000) scale(0.100000,-0.100000)"
fill="#000000" stroke="none">
<path d="M5625 13719 c-55 -4 -134 -14 -175 -23 -41 -8 -88 -18 -105 -21 -16
-4 -39 -10 -50 -15 -11 -4 -47 -16 -80 -25 -33 -10 -78 -26 -99 -36 -22 -11
-46 -19 -53 -19 -7 0 -13 -4 -13 -10 0 -5 -6 -10 -12 -10 -13 0 -119 -50 -128
-61 -3 -3 -20 -12 -37 -20 -18 -8 -33 -17 -33 -21 0 -5 -5 -8 -10 -8 -10 0
-90 -49 -100 -61 -3 -3 -30 -23 -61 -45 -140 -97 -408 -322 -409 -342 -1 -4
-21 -29 -45 -56 -25 -27 -47 -58 -51 -68 -3 -10 -10 -18 -15 -18 -5 0 -9 -9
-9 -20 0 -11 -6 -29 -12 -40 -9 -14 -10 -23 -3 -28 6 -4 15 -16 21 -27 6 -11
24 -21 40 -23 32 -3 123 34 188 76 64 42 80 52 96 59 8 4 24 15 34 25 11 10
25 18 32 18 7 0 14 3 16 8 4 10 85 62 97 62 5 0 11 3 13 8 4 9 76 51 101 59 9
3 17 9 17 14 0 5 9 9 20 9 11 0 20 5 20 10 0 6 5 10 11 10 6 0 45 16 87 36 42
19 88 40 102 46 14 6 32 14 41 18 9 5 33 12 53 15 20 4 39 11 42 16 3 5 16 9
30 9 13 0 32 4 42 9 20 11 171 36 287 49 156 18 422 -4 595 -48 93 -23 157
-42 172 -51 10 -5 23 -9 31 -9 7 0 39 -13 72 -29 33 -16 78 -37 100 -47 22
-10 42 -20 45 -24 3 -3 31 -18 63 -35 31 -16 57 -33 57 -37 0 -4 9 -8 20 -8
11 0 20 -4 20 -10 0 -5 7 -10 15 -10 8 0 15 -4 15 -10 0 -5 6 -10 14 -10 8 0
34 -11 57 -25 24 -14 56 -25 71 -25 15 0 30 -4 33 -10 3 -5 24 -10 45 -10 21
0 42 5 45 10 3 6 15 10 25 10 25 0 75 44 95 82 17 35 21 133 5 143 -5 3 -10
13 -10 20 0 42 -213 235 -260 235 -5 0 -10 3 -10 8 0 4 -10 12 -23 18 -12 6
-65 33 -117 60 -83 43 -147 72 -225 104 -11 4 -36 14 -55 22 -45 19 -84 32
-140 49 -25 7 -49 16 -54 21 -6 4 -20 8 -33 8 -12 0 -32 4 -45 9 -85 33 -335
52 -513 40z"/>
<path d="M10695 12870 c-16 -4 -57 -8 -90 -9 -90 -2 -253 -37 -332 -72 -24
-11 -46 -19 -50 -19 -22 0 -101 -77 -120 -118 -29 -59 -29 -91 2 -155 27 -58
89 -106 160 -125 82 -22 213 -35 286 -28 81 8 260 20 529 35 393 23 938 8
1345 -38 344 -39 433 -50 471 -62 100 -30 191 27 155 99 -52 106 -85 139 -176
181 -71 32 -305 92 -475 122 -25 4 -128 24 -230 44 -102 19 -214 40 -250 46
-138 23 -177 29 -240 38 -36 5 -78 12 -95 15 -38 8 -204 25 -355 37 -161 13
-499 19 -535 9z"/>
<path d="M6080 12298 c-65 -9 -116 -21 -157 -39 -13 -5 -33 -13 -45 -18 -60
-25 -103 -46 -108 -51 -3 -4 -32 -25 -65 -48 -33 -22 -91 -74 -130 -114 -63
-65 -79 -88 -119 -163 -6 -11 -13 -22 -16 -25 -9 -9 -27 -53 -44 -110 -10 -30
-21 -64 -26 -75 -35 -82 -62 -367 -54 -565 4 -102 15 -203 30 -280 3 -14 8
-40 11 -58 3 -18 9 -35 14 -38 5 -3 9 -15 9 -27 0 -26 32 -121 43 -125 4 -2 7
-11 7 -20 0 -9 9 -28 20 -42 11 -14 20 -32 20 -40 1 -25 156 -200 177 -200 7
0 13 -4 13 -8 0 -12 93 -62 114 -62 9 0 16 -4 16 -10 0 -5 9 -10 19 -10 11 0
22 -4 25 -9 5 -7 108 -22 161 -23 38 0 140 14 160 22 11 4 36 13 55 20 57 20
136 60 158 81 12 10 26 19 32 19 6 0 48 37 93 83 85 84 213 267 224 320 3 15
9 27 14 27 5 0 9 5 9 10 0 6 9 29 19 53 11 23 27 69 36 102 9 33 21 68 26 77
5 10 9 29 9 42 0 14 4 27 9 30 5 3 11 29 14 58 3 29 11 87 17 128 16 97 6 372
-16 455 -9 33 -18 75 -21 93 -3 18 -9 35 -14 38 -5 3 -9 14 -9 25 0 11 -21 61
-47 111 -34 65 -68 112 -118 162 -69 70 -110 106 -121 106 -3 0 -20 11 -38 25
-18 14 -40 25 -50 25 -9 0 -25 5 -36 10 -11 6 -28 14 -38 19 -17 8 -74 16
-177 25 -22 2 -69 -1 -105 -6z"/>
<path d="M10755 11800 c-139 -16 -284 -88 -399 -198 -54 -53 -206 -267 -206
-292 0 -5 -4 -18 -9 -28 -16 -29 -38 -85 -51 -127 -7 -22 -16 -49 -21 -60 -4
-11 -10 -33 -14 -50 -3 -16 -13 -61 -22 -100 -21 -91 -24 -478 -5 -575 31
-153 107 -367 134 -378 4 -2 8 -11 8 -19 0 -14 17 -41 70 -107 56 -71 157
-159 210 -183 160 -73 169 -75 282 -75 99 -1 208 17 208 34 0 4 7 8 15 8 8 0
23 4 33 9 9 5 36 17 59 26 23 10 50 25 60 34 10 9 36 29 58 46 44 33 165 153
165 164 0 4 8 16 18 27 31 35 68 105 127 237 28 63 55 149 55 173 0 13 5 26
10 29 6 3 10 21 10 39 0 17 4 36 9 41 24 26 33 435 13 550 -52 294 -166 508
-347 650 -68 53 -185 106 -270 121 -85 15 -105 15 -200 4z"/>
<path d="M14558 8583 c7 -3 16 -2 19 1 4 3 -2 6 -13 5 -11 0 -14 -3 -6 -6z"/>
<path d="M14650 8564 c0 -8 5 -12 10 -9 6 4 8 11 5 16 -9 14 -15 11 -15 -7z"/>
<path d="M14530 8491 c0 -5 7 -12 16 -15 14 -5 15 -4 4 9 -14 17 -20 19 -20 6z"/>
<path d="M14657 8475 c-4 -8 -2 -17 3 -20 4 -3 10 0 12 6 3 9 9 9 26 0 26 -14
28 -9 6 13 -19 20 -40 20 -47 1z"/>
<path d="M14537 8433 c-10 -10 -8 -33 2 -33 6 0 9 9 8 20 -1 23 -1 22 -10 13z"/>
<path d="M14632 8375 c0 -16 2 -22 5 -12 2 9 2 23 0 30 -3 6 -5 -1 -5 -18z"/>
<path d="M14504 8369 c-11 -18 13 -34 30 -20 10 8 16 9 21 1 3 -5 11 -10 16
-10 17 0 -19 31 -41 35 -11 2 -22 -1 -26 -6z"/>
<path d="M14650 8345 c0 -32 -7 -40 -32 -36 -12 2 -10 -13 4 -27 6 -6 11 -26
10 -44 0 -18 4 -38 10 -45 12 -14 4 -43 -12 -43 -5 0 -10 7 -10 15 0 8 -5 15
-11 15 -7 0 -8 -7 -4 -17 17 -40 17 -73 1 -79 -9 -3 -14 -10 -11 -14 9 -15
-17 -71 -31 -66 -10 4 -14 -3 -14 -21 0 -31 -14 -22 -15 10 -1 12 -5 30 -8 40
-16 39 -15 47 2 59 20 15 37 40 24 36 -21 -5 -51 15 -56 38 -6 34 2 66 16 57
6 -4 7 -1 2 6 -4 7 4 5 19 -4 26 -17 26 -17 25 11 0 16 -3 24 -5 18 -3 -7 -14
-10 -25 -7 -32 9 -58 -30 -54 -83 l3 -44 -34 4 c-38 4 -48 -18 -14 -29 11 -3
20 -13 20 -21 0 -9 5 -12 12 -8 7 4 8 3 4 -5 -4 -6 -12 -9 -17 -6 -5 3 -21 -5
-35 -18 -17 -16 -22 -27 -15 -31 6 -4 11 -14 11 -22 0 -10 -7 -13 -25 -8 -21
5 -25 3 -25 -15 0 -16 6 -21 26 -21 22 0 24 -3 15 -14 -9 -11 -9 -19 1 -36 11
-17 11 -22 -2 -30 -8 -5 -22 -10 -31 -10 -9 0 -20 -7 -23 -16 -4 -10 -2 -13 6
-8 8 5 9 2 5 -10 -5 -12 -2 -16 9 -14 9 2 23 -7 32 -20 14 -22 14 -23 -7 -29
-15 -4 -20 -11 -16 -21 5 -13 2 -12 -14 2 -17 15 -23 16 -36 6 -19 -16 -19
-30 0 -30 16 0 21 -25 7 -34 -8 -5 -36 8 -31 15 6 7 -31 53 -37 46 -12 -12
-13 -56 -1 -54 6 1 16 -8 22 -21 7 -17 16 -22 33 -19 14 3 22 -1 22 -9 0 -8
-5 -14 -11 -14 -8 0 -8 -4 0 -14 9 -11 6 -12 -15 -8 -21 4 -25 2 -18 -9 17
-27 13 -39 -11 -33 -27 7 -38 -19 -21 -48 14 -24 2 -32 -24 -16 -18 11 -21 20
-17 56 2 23 1 42 -4 42 -5 0 -9 -13 -9 -29 0 -21 -6 -30 -21 -34 -21 -6 -22
-31 -1 -33 7 -1 15 -2 19 -3 3 0 -4 -12 -16 -25 -13 -14 -21 -31 -18 -38 4 -9
6 -8 6 4 1 14 5 14 25 5 18 -9 22 -16 15 -28 -4 -9 -5 -19 -2 -23 3 -3 1 -6
-6 -6 -7 0 -19 7 -27 15 -9 8 -19 15 -24 15 -9 0 -25 -57 -22 -76 1 -7 -8 -14
-20 -17 -22 -6 -22 -7 -4 -20 17 -12 17 -15 2 -29 -9 -9 -16 -19 -16 -22 0 -9
105 -1 112 9 11 15 18 1 12 -22 -5 -19 -35 -42 -33 -25 3 18 -2 32 -11 32 -5
0 -10 -7 -10 -15 0 -8 -5 -15 -11 -15 -6 0 -8 -7 -5 -16 8 -21 -11 -45 -30
-37 -13 5 -18 -9 -17 -45 1 -10 -7 -12 -25 -8 -15 3 -21 3 -14 0 19 -9 14 -23
-6 -17 -17 4 -20 -7 -13 -46 1 -3 15 8 32 25 22 21 28 24 23 10 -4 -11 -16
-28 -27 -39 -16 -16 -17 -21 -6 -29 11 -7 11 -11 2 -15 -24 -9 15 -36 42 -29
19 5 23 3 19 -9 -7 -17 -20 -18 -82 -6 -23 5 -45 5 -48 0 -3 -5 -16 -9 -29 -9
-12 0 -25 -7 -29 -15 -4 -10 1 -15 14 -15 11 0 20 -7 20 -15 0 -21 46 -19 58
1 8 15 11 15 28 -2 22 -22 23 -40 6 -72 -11 -18 -16 -20 -32 -12 -11 6 -20 16
-20 22 0 6 3 9 6 5 6 -6 34 16 34 27 0 10 -68 6 -72 -4 -2 -7 -14 -7 -36 -1
-31 9 -32 9 -26 -17 9 -35 7 -34 50 -34 37 0 64 -16 64 -37 0 -15 -27 -14 -34
2 -3 6 -3 0 -1 -14 3 -23 0 -26 -27 -27 -30 -1 -58 -17 -58 -34 0 -6 9 -8 19
-5 17 4 18 2 9 -24 -8 -24 -14 -28 -34 -23 -15 4 -24 2 -24 -5 0 -6 7 -11 15
-11 8 0 15 -7 15 -16 0 -10 -6 -14 -15 -11 -8 4 -17 2 -20 -4 -4 -5 -10 -7
-15 -4 -5 3 -11 1 -15 -5 -3 -5 2 -10 12 -10 15 0 16 -2 3 -10 -8 -5 -10 -10
-5 -10 6 0 3 -4 -5 -10 -12 -8 -12 -11 1 -27 20 -23 33 -56 18 -48 -6 4 -18 0
-28 -9 -10 -9 -24 -16 -31 -14 -8 2 -13 -9 -14 -29 0 -17 3 -29 8 -25 5 3 6
-2 3 -12 -4 -10 -7 -20 -7 -23 0 -3 -7 0 -15 7 -20 17 -21 -6 -1 -26 13 -12
15 -12 21 5 3 10 15 21 25 24 16 4 20 0 20 -19 0 -18 -4 -22 -17 -17 -13 5
-15 2 -11 -15 4 -12 3 -20 -2 -17 -4 3 -10 -2 -14 -10 -6 -17 -36 -21 -36 -5
0 16 -14 12 -38 -10 -28 -26 -28 -36 1 -51 18 -9 20 -9 10 2 -34 35 -4 39 32
4 29 -30 31 -35 10 -35 -8 0 -15 -7 -15 -15 0 -8 4 -15 10 -15 5 0 7 -7 4 -15
-4 -8 -10 -13 -14 -10 -5 3 -20 0 -33 -6 -17 -8 -23 -17 -20 -30 4 -14 9 -16
23 -9 27 15 34 12 46 -14 11 -23 9 -24 -22 -23 -19 1 -34 5 -34 11 0 5 -3 7
-6 4 -3 -4 -1 -16 5 -27 9 -17 9 -20 -3 -15 -8 3 -17 12 -20 20 -3 8 -10 14
-16 14 -6 0 -4 -7 4 -16 21 -21 11 -36 -21 -32 -19 2 -27 -2 -29 -15 -2 -12 2
-17 11 -13 9 3 12 0 8 -10 -3 -7 0 -14 6 -14 17 0 13 -14 -10 -38 -11 -12 -18
-26 -15 -31 3 -5 -1 -12 -10 -15 -9 -4 -14 -13 -10 -21 5 -13 2 -14 -15 -4
-24 12 -38 4 -21 -13 17 -17 15 -48 -3 -54 -8 -4 -15 -12 -15 -20 0 -16 26
-19 35 -3 5 7 14 4 26 -7 11 -9 21 -15 24 -12 3 3 -1 10 -9 17 -20 17 -8 51
17 51 16 0 18 -3 9 -12 -9 -9 -8 -14 3 -22 13 -9 12 -15 -10 -38 -30 -32 -49
-36 -40 -9 3 11 1 22 -4 25 -12 8 -31 -25 -31 -53 0 -12 -4 -21 -10 -21 -5 0
-7 -7 -4 -15 4 -8 9 -13 13 -11 9 6 46 -23 38 -30 -3 -3 -17 -7 -31 -8 -25 -1
-38 -16 -15 -16 14 0 0 -42 -20 -57 -9 -7 -24 -13 -33 -13 -9 0 -20 -9 -23
-20 -3 -11 -10 -20 -14 -20 -4 0 -8 -7 -8 -15 0 -8 6 -15 13 -15 6 0 15 -10
19 -22 4 -14 8 -18 12 -10 6 16 31 15 49 -2 16 -17 19 -46 4 -46 -5 0 -10 5
-10 10 0 6 -16 10 -35 10 -24 0 -35 -5 -35 -15 0 -8 4 -15 10 -15 5 0 13 -12
16 -27 4 -16 12 -31 18 -35 8 -5 7 -8 -2 -8 -7 0 -15 7 -18 15 -9 23 -44 19
-44 -5 0 -23 -6 -25 -24 -7 -14 14 -10 34 12 60 14 15 13 17 -7 17 -12 0 -20
-4 -16 -9 3 -5 0 -13 -6 -17 -14 -8 -4 -60 15 -80 18 -17 53 -18 59 -1 2 6 8
8 13 4 5 -5 2 -12 -6 -17 -8 -4 -26 -18 -40 -30 -20 -18 -22 -23 -10 -30 21
-13 30 -12 30 4 0 21 62 28 78 8 17 -23 10 -36 -21 -40 -31 -4 -37 -22 -7 -22
14 0 20 -7 20 -21 0 -11 5 -17 10 -14 6 3 10 17 10 30 0 12 6 25 13 28 16 6
42 -8 42 -23 0 -5 3 -10 8 -10 4 0 7 2 7 5 0 3 0 9 0 14 0 5 -8 12 -17 15 -12
4 -18 17 -19 36 -1 30 10 40 19 18 4 -8 8 -5 12 9 4 12 13 19 20 17 7 -3 16 0
21 7 4 7 2 15 -4 17 -7 2 -12 10 -12 18 0 9 5 12 11 9 5 -4 21 -4 35 -1 19 5
24 13 24 36 0 25 -4 30 -25 30 -28 0 -29 3 -15 31 15 26 43 26 35 -1 -5 -16
-2 -20 15 -20 12 0 18 -5 15 -10 -3 -6 1 -18 10 -27 16 -15 17 -14 13 18 -3
32 -1 34 31 37 35 4 60 25 61 51 0 11 -3 11 -15 1 -15 -12 -15 -11 -15 18 0 4
6 7 13 7 21 1 39 16 33 30 -5 15 16 37 57 58 26 13 27 16 12 31 -22 22 -3 60
26 51 17 -6 20 -3 17 17 -2 17 2 23 15 21 12 0 17 4 13 13 -3 8 1 17 10 21 10
4 14 17 12 43 -2 43 27 84 42 59 13 -20 22 -5 23 39 1 22 6 38 10 35 5 -3 11
4 14 16 3 12 8 21 12 21 3 0 12 10 20 21 11 18 11 23 -1 30 -10 7 -6 14 15 32
17 13 28 31 27 42 -4 39 0 47 20 42 17 -4 20 0 20 34 0 21 5 39 10 39 6 0 10
9 10 20 0 12 5 17 13 14 10 -4 12 3 9 26 -3 23 0 30 12 30 9 0 16 8 16 20 0
11 4 20 9 20 5 0 8 18 6 40 -3 36 -2 40 15 35 10 -3 21 -1 25 5 3 5 1 10 -4
10 -6 0 -11 4 -11 9 0 5 8 8 18 7 12 -1 17 7 18 24 1 49 17 93 35 97 12 3 23
21 29 44 9 34 8 44 -9 68 -18 24 -18 30 -6 35 8 3 19 -3 24 -12 10 -16 10 -16
11 0 0 9 -4 18 -10 20 -5 2 -7 14 -3 26 4 16 8 20 13 11 12 -18 40 13 40 45 0
18 5 26 18 26 14 0 15 2 2 9 -8 6 -17 8 -21 5 -4 -2 -9 7 -11 21 -3 14 0 26 8
29 9 3 14 -2 14 -14 0 -30 19 -24 26 8 3 15 10 40 16 55 8 21 8 34 -2 52 -15
27 -7 45 21 45 10 0 19 5 19 10 0 6 -9 10 -19 10 -10 0 -21 6 -24 13 -4 10 2
13 19 9 28 -5 30 0 8 33 -12 19 -13 25 -3 25 7 0 10 3 6 6 -3 3 5 18 18 31 20
22 22 33 18 76 -4 42 -3 49 11 44 26 -10 26 8 0 36 -25 27 -24 31 8 28 24 -3
34 20 14 34 -15 12 -15 14 -1 29 9 9 21 16 26 16 5 0 9 7 9 15 0 8 -9 15 -20
15 -24 0 -25 6 -4 27 8 9 13 22 10 30 -3 8 -1 11 4 8 17 -11 11 11 -10 35 -25
29 -21 44 11 48 21 2 25 8 23 32 -1 16 -5 34 -10 41 -5 9 -2 10 11 5 18 -6 18
-6 3 11 -10 11 -14 28 -11 44 4 20 -1 31 -18 43 -23 16 -23 16 -2 16 31 0 37
16 14 39 -26 26 -9 37 24 15 30 -20 32 -11 5 23 -25 31 -25 34 -2 59 16 16 17
22 5 32 -8 8 -13 9 -13 2 0 -5 -4 -10 -9 -10 -5 0 -8 11 -7 25 0 14 4 25 7 25
12 0 -5 55 -20 67 -11 8 -12 12 -3 13 6 0 12 5 12 11 0 7 8 18 18 25 16 13 16
13 0 14 -10 0 -18 7 -18 15 0 8 -4 15 -10 15 -5 0 -10 -4 -10 -10 0 -5 -4 -10
-8 -10 -5 0 -9 14 -10 32 0 17 -5 34 -11 37 -7 5 -6 15 2 31 18 35 18 70 1 87
-7 8 -14 25 -14 39 0 13 -4 24 -10 24 -5 0 -10 -16 -10 -35z m24 -90 c3 -9 0
-15 -9 -15 -16 0 -27 14 -18 24 10 10 21 7 27 -9z m30 -141 c-6 -3 -9 -16 -6
-29 2 -15 0 -25 -7 -25 -7 0 -9 5 -6 10 3 6 -2 10 -13 10 -32 0 -34 13 -5 26
16 7 33 12 38 12 6 0 5 -2 -1 -4z m-223 -87 c-10 -9 -11 -8 -5 6 3 10 9 15 12
12 3 -3 0 -11 -7 -18z m209 -26 c0 -12 -29 -35 -36 -28 -11 10 5 37 21 37 8 0
15 -4 15 -9z m-209 -54 c-16 -16 -26 0 -10 19 9 11 15 12 17 4 2 -6 -1 -17 -7
-23z m84 -27 c11 -18 -6 -51 -32 -61 -14 -5 -29 -7 -32 -3 -3 4 0 9 7 11 6 3
12 15 12 28 0 29 32 46 45 25z m-47 -144 c2 -10 -2 -15 -10 -14 -7 2 -12 -3
-10 -10 1 -8 -2 -11 -8 -7 -8 5 -8 11 0 20 7 8 8 19 4 26 -4 7 -2 10 7 7 8 -3
15 -12 17 -22z m212 -141 c0 -8 -4 -15 -10 -15 -5 0 -10 7 -10 15 0 8 5 15 10
15 6 0 10 -7 10 -15z m-330 -20 c0 -8 -7 -15 -16 -15 -14 0 -14 3 -4 15 7 8
14 15 16 15 2 0 4 -7 4 -15z m-120 -183 c0 -5 -7 -9 -15 -9 -8 0 -15 4 -15 9
0 4 7 8 15 8 8 0 15 -4 15 -8z m-40 -118 c0 -10 -11 -14 -37 -13 -38 1 -38 1
-10 12 15 6 27 15 27 20 0 4 5 5 10 2 6 -3 10 -13 10 -21z m20 -54 c0 -5 -4
-10 -10 -10 -5 0 -10 5 -10 10 0 6 5 10 10 10 6 0 10 -4 10 -10z m-122 -208
c-21 -4 -23 -13 -6 -30 6 -6 9 -14 6 -18 -10 -9 -29 33 -22 50 3 9 12 12 22 8
16 -6 15 -7 0 -10z m-58 -122 c0 -5 -4 -10 -10 -10 -5 0 -10 5 -10 10 0 6 5
10 10 10 6 0 10 -4 10 -10z m-30 -224 c0 -2 -7 -6 -15 -10 -8 -3 -15 -1 -15 4
0 6 7 10 15 10 8 0 15 -2 15 -4z m-68 -86 c-23 -22 -42 -26 -42 -9 0 5 4 8 8
5 5 -3 16 4 26 15 10 12 20 18 23 15 4 -3 -3 -15 -15 -26z m498 -30 c0 -5 -4
-10 -10 -10 -5 0 -10 5 -10 10 0 6 5 10 10 10 6 0 10 -4 10 -10z m-560 -20 c0
-5 -5 -10 -12 -10 -6 0 -3 -7 8 -15 17 -13 17 -14 2 -15 -21 0 -30 13 -22 34
7 18 24 22 24 6z m-35 -147 c0 -14 -6 -28 -12 -31 -14 -4 -17 16 -7 42 9 25
20 19 19 -11z m-35 -137 c0 -3 -4 -8 -10 -11 -5 -3 -10 -1 -10 4 0 6 5 11 10
11 6 0 10 -2 10 -4z m5 -36 c3 -5 -1 -10 -9 -10 -9 0 -16 -5 -16 -12 0 -6 -2
-9 -5 -6 -7 7 5 38 15 38 5 0 12 -4 15 -10z m-25 -110 c0 -5 -4 -10 -10 -10
-5 0 -10 5 -10 10 0 6 5 10 10 10 6 0 10 -4 10 -10z m-112 -222 c-7 -19 -38
-22 -38 -4 0 10 9 16 21 16 12 0 19 -5 17 -12z m202 -79 c0 -14 -17 -10 -23 5
-4 10 -1 13 9 9 7 -3 14 -9 14 -14z m-210 -209 c0 -5 -4 -10 -10 -10 -5 0 -10
5 -10 10 0 6 5 10 10 10 6 0 10 -4 10 -10z m-37 -63 c-2 -4 -5 -7 -8 -7 -3 0
-9 0 -15 0 -5 0 -10 4 -10 9 0 5 8 8 18 7 9 -2 16 -6 15 -9z m-50 -39 c-3 -13
-10 -29 -16 -35 -11 -15 -31 -18 -22 -4 3 5 1 12 -5 16 -5 3 -10 13 -10 21 0
8 4 13 9 9 5 -3 12 -1 16 5 12 20 33 11 28 -12z m-63 -14 c0 -8 -5 -12 -10 -9
-6 4 -8 11 -5 16 9 14 15 11 15 -7z m115 -5 c-4 -5 -12 -9 -18 -8 -9 0 -8 2 1
6 6 2 9 10 6 15 -4 7 -2 8 5 4 6 -4 9 -12 6 -17z m162 -54 c8 -9 13 -19 10
-22 -6 -5 -37 21 -37 31 0 10 11 6 27 -9z m-176 -27 c28 -31 23 -43 -6 -14
-14 14 -25 28 -25 31 0 11 13 4 31 -17z m-101 -38 c0 -5 -4 -10 -10 -10 -5 0
-10 5 -10 10 0 6 5 10 10 10 6 0 10 -4 10 -10z m56 -25 c2 -24 -6 -32 -19 -19
-5 6 9 44 16 44 1 0 3 -11 3 -25z m59 5 c-3 -5 -10 -10 -16 -10 -5 0 -9 5 -9
10 0 6 7 10 16 10 8 0 12 -4 9 -10z"/>
<path d="M14530 7880 c0 -5 5 -10 10 -10 6 0 10 5 10 10 0 6 -4 10 -10 10 -5
0 -10 -4 -10 -10z"/>
<path d="M14559 8328 c-7 -31 -6 -35 12 -31 21 6 21 24 1 31 -7 2 -12 2 -13 0z"/>
<path d="M14530 8080 c0 -5 5 -10 10 -10 6 0 10 5 10 10 0 6 -4 10 -10 10 -5
0 -10 -4 -10 -10z"/>
<path d="M14330 7900 c0 -5 5 -10 10 -10 6 0 10 5 10 10 0 6 -4 10 -10 10 -5
0 -10 -4 -10 -10z"/>
<path d="M14370 7879 c0 -5 5 -7 10 -4 6 3 10 8 10 11 0 2 -4 4 -10 4 -5 0
-10 -5 -10 -11z"/>
<path d="M14350 7770 c0 -5 5 -10 10 -10 6 0 10 5 10 10 0 6 -4 10 -10 10 -5
0 -10 -4 -10 -10z"/>
<path d="M14300 7749 c0 -5 5 -7 10 -4 6 3 10 8 10 11 0 2 -4 4 -10 4 -5 0
-10 -5 -10 -11z"/>
<path d="M14206 7672 c-3 -5 1 -9 9 -9 8 0 12 4 9 9 -3 4 -7 8 -9 8 -2 0 -6
-4 -9 -8z"/>
<path d="M14140 7650 c0 -5 7 -10 15 -10 8 0 15 5 15 10 0 6 -7 10 -15 10 -8
0 -15 -4 -15 -10z"/>
<path d="M14248 7573 c7 -3 16 -2 19 1 4 3 -2 6 -13 5 -11 0 -14 -3 -6 -6z"/>
<path d="M14065 7560 c-3 -5 -1 -10 4 -10 6 0 11 5 11 10 0 6 -2 10 -4 10 -3
0 -8 -4 -11 -10z"/>
<path d="M14050 7383 c0 -15 19 -37 26 -31 3 4 -1 14 -10 23 -9 9 -16 13 -16
8z"/>
<path d="M14065 7320 c3 -5 8 -10 11 -10 2 0 4 5 4 10 0 6 -5 10 -11 10 -5 0
-7 -4 -4 -10z"/>
<path d="M14125 7180 c-3 -5 -1 -10 4 -10 6 0 11 5 11 10 0 6 -2 10 -4 10 -3
0 -8 -4 -11 -10z"/>
<path d="M14070 7169 c0 -10 27 -19 34 -12 11 12 6 19 -14 19 -11 0 -20 -3
-20 -7z"/>
<path d="M13960 7105 c0 -19 23 -25 37 -10 9 10 7 14 -13 18 -15 3 -24 0 -24
-8z"/>
<path d="M7205 7100 c-151 -7 -338 -26 -505 -51 -160 -23 -186 -28 -225 -37
-199 -46 -257 -87 -258 -183 -1 -44 3 -54 30 -79 43 -40 119 -60 232 -60 97 0
391 23 511 40 264 38 928 9 1373 -61 113 -18 173 -28 217 -37 25 -5 77 -15
115 -21 39 -7 88 -16 110 -21 75 -16 140 -31 175 -40 19 -5 71 -16 115 -26 44
-9 105 -23 135 -31 30 -8 98 -25 150 -38 147 -37 229 -60 236 -68 4 -4 14 -7
23 -7 18 0 179 -48 203 -61 10 -5 26 -9 36 -9 10 0 22 -4 28 -8 5 -5 36 -17
69 -26 33 -10 70 -22 83 -27 13 -5 33 -9 45 -9 13 0 27 -4 33 -9 8 -9 83 -14
155 -12 14 1 40 14 58 31 25 24 31 38 31 71 0 76 -57 153 -148 202 -20 11 -39
23 -42 26 -8 11 -154 79 -199 93 -23 7 -41 16 -41 20 0 5 -9 8 -20 8 -11 0
-28 4 -38 10 -19 11 -177 63 -317 104 -49 14 -104 31 -121 36 -17 6 -40 10
-52 10 -11 0 -24 5 -27 10 -3 6 -17 10 -31 10 -13 0 -32 4 -42 9 -9 5 -53 17
-97 26 -44 10 -90 21 -103 26 -13 5 -36 9 -52 9 -16 0 -31 4 -34 9 -3 5 -23
11 -43 14 -21 3 -60 10 -88 17 -27 6 -88 18 -135 26 -47 8 -110 19 -140 25
-142 26 -241 40 -425 58 -60 6 -146 16 -190 21 -109 13 -593 19 -790 10z"/>
<path d="M13955 7050 c3 -5 10 -10 16 -10 5 0 9 5 9 10 0 6 -7 10 -16 10 -8 0
-12 -4 -9 -10z"/>
<path d="M13998 7054 c6 -3 12 -19 12 -34 0 -32 16 -48 32 -32 18 18 -5 67
-33 69 -13 1 -18 0 -11 -3z"/>
<path d="M13950 6989 c0 -24 23 -21 28 4 2 10 -3 17 -12 17 -10 0 -16 -9 -16
-21z"/>
<path d="M13900 6846 c0 -9 5 -16 10 -16 6 0 10 4 10 9 0 6 -4 13 -10 16 -5 3
-10 -1 -10 -9z"/>
<path d="M13940 6790 c0 -5 7 -10 16 -10 8 0 12 5 9 10 -3 6 -10 10 -16 10 -5
0 -9 -4 -9 -10z"/>
<path d="M13845 6780 c-3 -6 1 -7 9 -4 18 7 21 14 7 14 -6 0 -13 -4 -16 -10z"/>
<path d="M13802 6614 c-13 -9 -13 -12 2 -17 14 -6 66 17 66 29 0 8 -53 -1 -68
-12z"/>
<path d="M13771 6321 c-10 -6 -9 -10 3 -14 8 -3 18 -2 21 3 8 13 -9 20 -24 11z"/>
<path d="M13690 6199 c0 -5 5 -7 10 -4 6 3 10 8 10 11 0 2 -4 4 -10 4 -5 0
-10 -5 -10 -11z"/>
<path d="M13717 6165 c3 -8 9 -12 14 -9 12 7 11 11 -5 17 -10 4 -13 1 -9 -8z"/>
<path d="M13672 6152 l-24 -4 23 -24 c12 -13 30 -24 38 -24 11 0 12 3 5 8 -7
4 -14 16 -15 27 -3 15 -10 19 -27 17z"/>
<path d="M13630 5970 c0 -5 5 -10 10 -10 6 0 10 5 10 10 0 6 -4 10 -10 10 -5
0 -10 -4 -10 -10z"/>
<path d="M13480 5671 c0 -17 18 -21 24 -6 3 9 0 15 -9 15 -8 0 -15 -4 -15 -9z"/>
<path d="M13551 5583 c8 -10 9 -14 2 -10 -6 4 -14 3 -17 -2 -3 -5 1 -11 9 -15
8 -3 19 3 25 13 7 14 6 20 -6 25 -25 9 -27 7 -13 -11z"/>
<path d="M4410 5420 c0 -5 7 -10 15 -10 8 0 15 5 15 10 0 6 -7 10 -15 10 -8 0
-15 -4 -15 -10z"/>
<path d="M4420 5390 c0 -5 5 -10 10 -10 6 0 10 5 10 10 0 6 -4 10 -10 10 -5 0
-10 -4 -10 -10z"/>
<path d="M4423 5344 c-16 -16 -17 -50 -3 -59 6 -4 7 -11 4 -17 -10 -16 -11
-161 -1 -175 4 -6 11 -44 14 -85 3 -40 10 -75 14 -79 5 -3 10 -28 11 -57 1
-29 6 -52 9 -52 4 0 10 -8 13 -17 3 -10 3 7 0 37 -3 30 -9 66 -14 80 -8 24
-15 98 -29 331 -5 86 -8 104 -18 93z"/>
<path d="M13780 5325 c0 -8 -9 -15 -20 -15 -13 0 -20 -7 -20 -18 0 -10 -9 -24
-19 -31 -11 -8 -17 -20 -14 -28 9 -22 30 -14 38 15 4 15 15 35 26 45 17 16 26
47 14 47 -3 0 -5 -7 -5 -15z"/>
<path d="M13405 5310 c3 -5 8 -10 11 -10 2 0 4 5 4 10 0 6 -5 10 -11 10 -5 0
-7 -4 -4 -10z"/>
<path d="M13430 5250 c0 -13 7 -20 20 -20 13 0 20 7 20 20 0 13 -7 20 -20 20
-13 0 -20 -7 -20 -20z"/>
<path d="M13400 5225 c0 -3 12 -17 26 -30 21 -20 24 -27 14 -44 -7 -14 -7 -21
0 -21 5 0 10 5 10 10 0 6 10 10 23 11 12 0 16 3 10 6 -7 2 -13 11 -13 19 0 9
5 12 10 9 6 -3 10 -1 10 4 0 6 -14 11 -30 11 -18 0 -33 6 -36 15 -6 14 -24 21
-24 10z"/>
<path d="M13383 5135 c0 -8 9 -15 19 -15 10 0 18 7 18 15 0 8 -8 15 -18 15
-10 0 -19 -7 -19 -15z"/>
<path d="M13520 5140 c-13 -8 -12 -10 3 -10 9 0 17 5 17 10 0 12 -1 12 -20 0z"/>
<path d="M13380 5100 c0 -5 5 -10 10 -10 6 0 10 5 10 10 0 6 -4 10 -10 10 -5
0 -10 -4 -10 -10z"/>
<path d="M13400 5050 c0 -5 5 -10 11 -10 5 0 7 5 4 10 -3 6 -8 10 -11 10 -2 0
-4 -4 -4 -10z"/>
<path d="M9995 4975 c-11 -14 -24 -31 -30 -38 -28 -34 -37 -65 -25 -87 l12
-22 22 21 c30 28 36 27 37 -11 0 -18 3 -26 6 -18 6 20 23 61 34 82 20 40 5 98
-25 98 -6 0 -20 -12 -31 -25z"/>
<path d="M3288 4233 c-16 -2 -28 -9 -28 -14 0 -5 -7 -9 -16 -9 -11 0 -14 -5
-10 -16 3 -9 6 -25 7 -37 l0 -22 11 23 c6 12 15 22 20 22 13 0 33 21 41 43 3
9 5 16 4 16 -1 -1 -14 -4 -29 -6z"/>
<path d="M8487 4166 c-4 -10 -5 -21 -2 -24 9 -9 17 6 13 25 -3 17 -4 17 -11
-1z"/>
<path d="M8410 4155 c-14 -8 -37 -14 -52 -15 -15 0 -43 -9 -63 -20 -20 -11
-44 -20 -55 -20 -11 0 -34 -6 -52 -14 -18 -8 -48 -21 -65 -28 -18 -7 -33 -16
-33 -20 0 -5 -13 -8 -30 -8 -16 0 -30 -4 -30 -10 0 -5 -9 -10 -20 -10 -11 0
-43 -11 -72 -24 -101 -47 -163 -73 -203 -87 -22 -8 -42 -16 -45 -19 -11 -11
-91 -44 -174 -72 -48 -16 -95 -36 -103 -43 -8 -8 -18 -15 -22 -15 -12 0 -95
-82 -115 -113 -9 -16 -18 -43 -18 -60 0 -18 -5 -37 -10 -44 -5 -7 -5 -14 2
-18 5 -3 10 -13 10 -21 0 -8 19 -33 41 -55 40 -39 44 -40 93 -36 28 3 71 10
96 16 152 35 177 35 216 -3 25 -25 37 -64 35 -126 -1 -72 -2 -79 -12 -85 -5
-4 -5 -14 1 -26 9 -15 7 -21 -5 -25 -8 -3 -15 -13 -15 -20 0 -8 -6 -17 -14
-20 -8 -3 -13 -13 -11 -22 3 -21 -15 -62 -27 -62 -5 0 -6 -11 -2 -24 4 -18 0
-30 -14 -42 -11 -9 -18 -22 -16 -29 3 -6 -2 -18 -11 -25 -8 -7 -15 -18 -15
-24 0 -7 -16 -29 -35 -50 -19 -21 -35 -41 -35 -43 0 -14 -32 -32 -80 -43 -30
-8 -62 -19 -70 -25 -8 -7 -23 -15 -32 -18 -10 -4 -18 -13 -18 -22 0 -8 -4 -15
-9 -15 -5 0 -14 -15 -19 -32 -19 -64 -21 -95 -7 -114 8 -11 15 -27 15 -36 0
-25 59 -80 79 -73 9 3 40 -4 68 -14 46 -17 56 -17 100 -5 77 21 123 40 145 58
11 10 27 15 36 11 14 -5 15 -4 4 7 -14 14 -135 17 -267 8 l-70 -5 -3 54 c-2
30 -1 65 3 78 7 31 48 69 90 84 19 7 35 17 35 21 0 4 9 8 20 8 11 0 20 5 20
10 0 6 7 10 15 10 8 0 15 5 15 10 0 6 7 10 16 10 9 0 28 8 42 18 44 28 66 42
80 48 23 11 105 103 120 135 8 16 18 29 23 29 5 0 9 9 9 20 0 11 5 20 10 20 6
0 10 9 10 19 0 11 5 23 10 26 6 3 10 24 10 46 0 46 31 84 61 76 10 -3 19 -1
19 4 0 5 7 9 15 9 8 0 15 -4 15 -10 0 -11 32 -1 42 14 4 6 5 19 2 29 -8 26 11
20 24 -8 6 -14 15 -25 19 -25 16 0 37 19 30 27 -5 4 -12 1 -17 -7 -5 -8 -12
-11 -15 -8 -4 4 8 21 25 38 29 28 38 31 74 27 23 -3 33 -3 24 0 -19 5 -25 43
-8 43 6 0 10 9 10 19 0 26 50 39 66 17 16 -23 24 -20 24 9 0 18 -5 25 -20 25
-11 0 -20 2 -20 5 0 13 51 56 60 50 6 -3 7 1 4 9 -3 9 -11 16 -18 16 -6 0 -5
4 4 9 16 11 33 4 25 -10 -4 -5 3 -9 14 -9 12 0 21 3 22 8 0 4 2 18 5 32 3 20
2 22 -7 10 -8 -11 -12 -12 -16 -2 -2 6 -12 12 -21 12 -15 0 -15 2 -2 10 8 5
11 10 6 10 -5 0 1 8 12 19 26 22 29 51 5 51 -15 0 -15 1 0 18 19 20 23 92 6
92 -5 0 -7 5 -4 10 7 12 15 101 18 210 2 69 4 75 25 78 26 4 28 14 7 32 -12
10 -13 15 -4 21 10 6 10 11 -1 23 -11 14 -10 16 4 10 11 -4 16 -1 16 10 0 9
-7 16 -15 16 -18 0 -20 16 -2 23 6 3 8 6 2 6 -5 0 -21 -6 -35 -14z m-630
-1028 c0 -9 5 -17 11 -19 7 -2 11 -26 10 -61 -2 -83 -3 -86 -19 -79 -11 4 -14
1 -9 -11 4 -12 1 -17 -9 -17 -12 0 -15 6 -10 25 5 18 2 25 -9 25 -20 0 -19 36
1 44 13 5 16 18 12 70 -3 52 -1 61 9 50 7 -7 13 -19 13 -27z"/>
<path d="M8508 4093 c7 -3 16 -2 19 1 4 3 -2 6 -13 5 -11 0 -14 -3 -6 -6z"/>
<path d="M8420 4010 c0 -5 5 -10 10 -10 6 0 10 5 10 10 0 6 -4 10 -10 10 -5 0
-10 -4 -10 -10z"/>
<path d="M8420 3820 c0 -11 5 -20 10 -20 6 0 10 9 10 20 0 11 -4 20 -10 20 -5
0 -10 -9 -10 -20z"/>
<path d="M8420 3709 c0 -5 5 -7 10 -4 6 3 10 8 10 11 0 2 -4 4 -10 4 -5 0 -10
-5 -10 -11z"/>
<path d="M8434 3679 c-11 -18 13 -34 31 -19 8 7 15 16 15 21 0 13 -38 11 -46
-2z"/>
<path d="M7807 2438 c-22 -8 -27 -15 -24 -30 8 -27 -2 -48 -22 -48 -14 0 -14
-2 -1 -10 12 -8 12 -10 -2 -15 -10 -4 -20 -15 -23 -26 -4 -10 -14 -19 -24 -19
-14 0 -20 -11 -24 -52 -4 -28 -12 -55 -18 -59 -6 -3 -9 -13 -7 -20 3 -8 1 -25
-5 -39 -5 -14 -11 -41 -14 -60 -2 -19 -8 -39 -12 -45 -5 -5 -12 -21 -16 -35
-4 -14 -18 -48 -31 -77 -13 -28 -24 -54 -24 -58 0 -3 -11 -16 -25 -29 -14 -13
-25 -27 -25 -32 0 -5 -10 -20 -22 -34 -13 -14 -24 -38 -26 -55 -2 -16 -7 -32
-12 -35 -16 -10 -15 -131 1 -142 11 -7 11 -11 2 -15 -16 -6 -18 -99 -3 -108 6
-3 10 -18 10 -32 0 -18 -4 -24 -14 -20 -10 4 -13 1 -9 -9 3 -8 -1 -14 -11 -14
-11 0 -15 -9 -14 -33 1 -19 -2 -39 -6 -45 -4 -7 -2 -12 3 -12 6 0 11 -4 11
-10 0 -5 -7 -7 -15 -4 -20 8 -20 -29 0 -46 8 -7 12 -17 8 -23 -3 -5 2 -16 11
-22 14 -11 15 -13 1 -18 -8 -4 -12 -13 -9 -22 4 -10 0 -15 -10 -15 -12 0 -16
-10 -15 -42 l1 -43 13 30 c8 17 14 24 15 18 0 -18 35 -16 54 2 8 8 17 15 21
15 12 0 56 55 71 87 19 44 27 123 13 140 -6 7 -9 13 -7 13 3 0 -3 35 -14 78
-11 42 -22 89 -25 105 -3 15 -9 27 -14 27 -13 0 -11 44 2 57 9 9 9 19 -1 42
-11 26 -9 34 9 60 12 16 21 34 21 40 0 6 14 24 31 39 49 42 109 105 109 114 0
4 7 8 15 8 15 0 19 11 15 39 -1 9 5 12 19 8 15 -3 25 1 32 15 12 23 2 39 -11
18 -8 -13 -10 -12 -10 3 0 9 5 17 10 17 6 0 9 3 9 8 -3 20 2 32 15 32 8 0 17
-6 19 -12 3 -7 6 -3 6 10 1 17 -5 22 -24 22 -25 0 -35 15 -14 22 7 2 7 12 -1
33 -8 20 -9 53 -4 100 5 39 7 80 6 93 -2 18 2 22 23 22 14 0 25 -4 25 -8 0 -5
12 -14 26 -21 26 -12 26 -11 20 23 -4 21 -2 37 4 41 6 4 9 13 6 20 -3 8 0 16
7 19 9 3 7 9 -4 18 -9 7 -14 19 -11 26 4 13 -15 43 -27 41 -3 0 -19 -5 -34
-11z m-332 -818 c3 -5 1 -10 -4 -10 -6 0 -11 5 -11 10 0 6 2 10 4 10 3 0 8 -4
11 -10z"/>
<path d="M7800 2065 c0 -14 4 -25 9 -25 5 0 9 11 9 25 0 14 -4 25 -9 25 -5 0
-9 -11 -9 -25z"/>
<path d="M8660 1330 c0 -5 5 -10 11 -10 5 0 7 5 4 10 -3 6 -8 10 -11 10 -2 0
-4 -4 -4 -10z"/>
<path d="M9670 1330 c0 -5 5 -10 10 -10 6 0 10 5 10 10 0 6 -4 10 -10 10 -5 0
-10 -4 -10 -10z"/>
<path d="M8811 1321 c-7 -5 -9 -11 -5 -14 5 -3 15 1 22 9 14 16 5 18 -17 5z"/>
<path d="M9148 1323 c7 -3 16 -2 19 1 4 3 -2 6 -13 5 -11 0 -14 -3 -6 -6z"/>
<path d="M9030 1315 c0 -5 5 -17 10 -25 5 -8 10 -10 10 -5 0 6 -5 17 -10 25
-5 8 -10 11 -10 5z"/>
<path d="M9080 1311 c0 -10 19 -25 25 -20 1 2 -3 10 -11 17 -8 7 -14 8 -14 3z"/>
<path d="M9184 1295 c1 -33 16 -33 16 0 0 14 -4 25 -9 25 -5 0 -8 -11 -7 -25z"/>
<path d="M9406 1305 c-9 -26 -7 -32 5 -12 6 10 9 21 6 23 -2 3 -7 -2 -11 -11z"/>
<path d="M10280 1276 c0 -2 7 -9 15 -16 9 -7 15 -8 15 -2 0 5 -7 12 -15 16 -8
3 -15 4 -15 2z"/>
<path d="M9340 1260 c0 -5 5 -10 10 -10 6 0 10 5 10 10 0 6 -4 10 -10 10 -5 0
-10 -4 -10 -10z"/>
<path d="M9453 1255 c0 -8 4 -12 9 -9 4 3 8 9 8 15 0 5 -4 9 -8 9 -5 0 -9 -7
-9 -15z"/>
</g>
</svg>
